<svg width="12" height="12" viewBox="0 0 12 12" fill="none" xmlns="http://www.w3.org/2000/svg">
<path d="M10.2135 1.40137C9.72717 3.47246 8.18243 5.2357 6 5.89694C6.51865 3.67622 8.17803 2.0208 10.2135 1.40137Z" fill="#F5F3EA" fill-opacity="0.33"/>
<path d="M12 7.29828C9.96329 7.91287 7.66378 7.4565 6 5.89702C8.18243 5.23578 10.4461 5.84508 12 7.29828Z" fill="#F5F3EA" fill-opacity="0.33"/>
<path d="M7.78619 11.7938C6.23573 10.3371 5.48098 8.11769 5.99963 5.89697C7.66363 7.45667 8.26765 9.72163 7.78619 11.7938Z" fill="#F5F3EA" fill-opacity="0.33"/>
<path d="M4.21366 0C5.76412 1.45672 6.51889 3.67611 6.00024 5.89683C4.33624 4.33735 3.7322 2.07241 4.21366 0Z" fill="#F5F3EA" fill-opacity="0.33"/>
<path d="M0 4.4956C2.03676 3.88123 4.33605 4.33739 6.00005 5.89686C3.81739 6.55811 1.55376 5.9488 0 4.4956Z" fill="#F5F3EA" fill-opacity="0.33"/>
<path d="M6.0001 5.89697C5.48144 8.11769 3.82184 9.77333 1.78662 10.3925C2.27271 8.32124 3.81744 6.558 6.0001 5.89697Z" fill="#F5F3EA" fill-opacity="0.33"/>
<path d="M7.48217 6.00984C8.07146 6.00236 8.65613 5.90906 9.22011 5.73258C9.68133 5.58823 9.78982 5.18818 9.74206 4.88979C9.68925 4.55862 9.43487 4.20501 9.00072 4.21051C8.92612 4.21139 8.84844 4.22371 8.76989 4.24682C7.75525 4.54366 6.83237 5.10347 6.09521 5.86835C6.55225 5.96781 7.01831 6.01578 7.48217 6.00984Z" fill="#F5F3EA"/>
<path d="M6.07275 5.96533C6.3949 6.97733 6.97429 7.88789 7.75238 8.6037C7.90531 8.74453 8.08311 8.81759 8.26685 8.81517C8.57954 8.81121 8.88364 8.59006 9.00665 8.27759C9.11976 7.98955 9.04978 7.69557 8.81411 7.47068C8.04922 6.74056 7.10302 6.22125 6.07275 5.96533Z" fill="#F5F3EA"/>
<path d="M4.53191 8.76762C4.47778 9.00945 4.52333 9.22885 4.66372 9.4018C4.81555 9.58906 5.07036 9.70327 5.3287 9.69996C5.68958 9.69534 5.95694 9.47904 6.04408 9.12102C6.29383 8.09384 6.27051 7.0145 5.97718 5.99414C5.26181 6.77883 4.76274 7.73604 4.53191 8.76762Z" fill="#F5F3EA"/>
<path d="M7.46741 3.02616C7.52154 2.78411 7.47599 2.56516 7.3356 2.39198C7.18377 2.20494 6.92896 2.09052 6.67062 2.09382C6.30996 2.09844 6.0426 2.31496 5.95547 2.67298C5.70549 3.70016 5.72882 4.77928 6.02236 5.79986C6.73752 5.01473 7.23636 4.05753 7.46741 3.02616Z" fill="#F5F3EA"/>
<path d="M5.92687 5.82912C5.60472 4.8169 5.02511 3.90633 4.24702 3.19052C4.09409 3.04969 3.91629 2.97685 3.73277 2.97905C3.42009 2.98301 3.11576 3.20416 2.99297 3.51663C2.87965 3.80467 2.94985 4.09865 3.1853 4.32354C3.94975 5.05344 4.89595 5.57298 5.92687 5.82912Z" fill="#F5F3EA"/>
<path d="M2.25733 6.90442C2.31036 7.23559 2.56474 7.58898 2.99889 7.58348C3.07349 7.5826 3.15094 7.5705 3.2295 7.54739C4.24392 7.25033 5.16702 6.69053 5.90418 5.92609C5.44692 5.82597 4.98064 5.77843 4.51678 5.78415C3.92772 5.79163 3.34304 5.88494 2.77906 6.0612C2.31806 6.20621 2.2098 6.60581 2.25733 6.90442Z" fill="#F5F3EA"/>
<path d="M9.23465 5.77966C10.1692 5.48699 9.84946 4.15042 8.99985 4.1612C8.92283 4.16208 8.84121 4.17419 8.75583 4.19927C7.73547 4.4981 6.77936 5.06515 5.99951 5.89693C6.49682 6.01312 6.99391 6.06549 7.48263 6.05911C8.08512 6.05163 8.6744 5.95504 9.23465 5.77966ZM6.19315 5.8384C6.91359 5.11269 7.80566 4.58017 8.78355 4.29389C8.85771 4.27211 8.93098 4.26066 9.00095 4.25978C9.40584 4.25472 9.64371 4.58677 9.69322 4.89748C9.73987 5.18992 9.63602 5.55058 9.20517 5.68547C8.6458 5.86063 8.06597 5.95305 7.4813 5.96053C7.05089 5.96625 6.61851 5.9251 6.19315 5.8384Z" fill="#F5F3EA"/>
<path d="M8.26732 8.86454C8.90744 8.8564 9.44897 8.00877 8.84802 7.4351C8.07917 6.70102 7.11009 6.15641 5.99951 5.89697C6.33024 6.98819 6.93625 7.9201 7.71874 8.63987C7.89346 8.80073 8.08424 8.86696 8.26732 8.86454ZM8.78003 7.50641C9.0003 7.71677 9.06609 7.99117 8.96069 8.25941C8.84494 8.55383 8.5591 8.76222 8.266 8.76596C8.09282 8.76816 7.93131 8.70127 7.78564 8.56748C7.03572 7.87763 6.47173 7.00514 6.14738 6.03539C7.13584 6.29659 8.04309 6.80291 8.78003 7.50641Z" fill="#F5F3EA"/>
<path d="M5.32931 9.74957C5.66291 9.74539 5.9888 9.55637 6.09179 9.13278C6.34308 8.09987 6.33032 6.98819 5.99958 5.89697C5.21996 6.72897 4.71604 7.71986 4.48367 8.75716C4.34592 9.37396 4.84587 9.75573 5.32931 9.74957ZM4.58005 8.77872C4.80251 7.78454 5.27629 6.85991 5.95381 6.09392C6.22205 7.08061 6.23701 8.11945 5.99628 9.10945C5.91486 9.44414 5.66511 9.64658 5.32821 9.65099C5.08462 9.65407 4.84477 9.54669 4.70218 9.37109C4.57148 9.21024 4.52943 9.00537 4.58005 8.77872Z" fill="#F5F3EA"/>
<path d="M6.67022 2.04451C6.33663 2.04869 6.01073 2.2377 5.90775 2.6613C5.65646 3.6942 5.66944 4.80588 5.99995 5.8971C6.7798 5.0651 7.28371 4.07422 7.51586 3.03691C7.65383 2.42012 7.15389 2.03835 6.67022 2.04451ZM7.41948 3.01535C7.19701 4.00953 6.72325 4.93417 6.04572 5.70015C5.77749 4.71346 5.76252 3.67462 6.00326 2.68463C6.08467 2.34993 6.33443 2.14749 6.67132 2.14309C6.91492 2.14001 7.15476 2.24716 7.29735 2.42298C7.42806 2.58384 7.47031 2.78871 7.41948 3.01535Z" fill="#F5F3EA"/>
<path d="M3.73205 2.92975C3.09193 2.93789 2.5504 3.78552 3.15113 4.35919C3.91998 5.09349 4.88907 5.6381 5.99965 5.89732C5.66892 4.8061 5.0629 3.8742 4.28041 3.1542C4.10591 2.99357 3.91513 2.92733 3.73205 2.92975ZM3.21934 4.28789C2.99908 4.07752 2.93329 3.80313 3.03869 3.53467C3.15443 3.24024 3.44004 3.03207 3.73315 3.02833C3.90632 3.02613 4.06806 3.09302 4.21374 3.22681C4.96366 3.91666 5.52764 4.78915 5.85199 5.7589C4.86354 5.49771 3.95628 4.99138 3.21934 4.28789Z" fill="#F5F3EA"/>
<path d="M2.99955 7.63281C3.07657 7.63171 3.15821 7.61959 3.24359 7.59473C4.26395 7.2959 5.22005 6.72885 5.9999 5.89707C5.5026 5.78088 5.00551 5.72851 4.51678 5.73489C3.91451 5.7426 3.325 5.8392 2.76476 6.01457C1.83021 6.30702 2.14995 7.64381 2.99955 7.63281ZM2.79425 6.10831C3.35361 5.93315 3.93343 5.84073 4.5181 5.83325C4.94851 5.82775 5.38112 5.8689 5.80648 5.9556C5.08604 6.68132 4.19376 7.21383 3.21587 7.50011C3.14171 7.5219 3.06843 7.53334 2.99824 7.53422C2.59335 7.53929 2.35569 7.20723 2.30618 6.89652C2.25953 6.60408 2.36318 6.24342 2.79425 6.10831Z" fill="#F5F3EA"/>
</svg>
