<svg width="12" height="12" viewBox="0 0 12 12" fill="none" xmlns="http://www.w3.org/2000/svg">
<path d="M10.2135 1.40137C9.72717 3.47246 8.18243 5.2357 6 5.89694C6.51865 3.67622 8.17803 2.0208 10.2135 1.40137Z" fill="#B3976E" fill-opacity="0.44"/>
<path d="M12 7.29828C9.96329 7.91287 7.66378 7.4565 6 5.89702C8.18243 5.23578 10.4461 5.84508 12 7.29828Z" fill="#B3976E" fill-opacity="0.44"/>
<path d="M7.78619 11.7938C6.23573 10.3371 5.48098 8.11769 5.99963 5.89697C7.66363 7.45667 8.26765 9.72163 7.78619 11.7938Z" fill="#B3976E" fill-opacity="0.44"/>
<path d="M4.21318 0C5.76363 1.45672 6.5184 3.67611 5.99975 5.89683C4.33575 4.33735 3.73171 2.07241 4.21318 0Z" fill="#B3976E" fill-opacity="0.44"/>
<path d="M0 4.4956C2.03676 3.88123 4.33605 4.33739 6.00005 5.89686C3.81739 6.55811 1.55376 5.9488 0 4.4956Z" fill="#B3976E" fill-opacity="0.44"/>
<path d="M5.99961 5.89697C5.48096 8.11769 3.82135 9.77333 1.78613 10.3925C2.27222 8.32124 3.81696 6.558 5.99961 5.89697Z" fill="#B3976E" fill-opacity="0.44"/>
<path d="M7.48266 6.00984C8.07195 6.00236 8.65662 5.90906 9.2206 5.73258C9.68182 5.58823 9.7903 5.18818 9.74255 4.88979C9.68974 4.55862 9.43536 4.20501 9.00121 4.21051C8.92661 4.21139 8.84893 4.22371 8.77038 4.24682C7.75574 4.54366 6.83286 5.10347 6.0957 5.86835C6.55274 5.96781 7.0188 6.01578 7.48266 6.00984Z" fill="#B3976E"/>
<path d="M6.07227 5.96533C6.39442 6.97733 6.9738 7.88789 7.75189 8.6037C7.90482 8.74453 8.08262 8.81759 8.26636 8.81517C8.57905 8.81121 8.88316 8.59006 9.00616 8.27759C9.11927 7.98955 9.04929 7.69557 8.81362 7.47068C8.04874 6.74056 7.10253 6.22125 6.07227 5.96533Z" fill="#B3976E"/>
<path d="M4.53191 8.76762C4.47778 9.00945 4.52333 9.22885 4.66372 9.4018C4.81555 9.58906 5.07036 9.70327 5.3287 9.69996C5.68958 9.69534 5.95694 9.47904 6.04408 9.12102C6.29383 8.09384 6.27051 7.0145 5.97718 5.99414C5.26181 6.77883 4.76274 7.73604 4.53191 8.76762Z" fill="#B3976E"/>
<path d="M7.4679 3.02616C7.52203 2.78411 7.47648 2.56516 7.33609 2.39198C7.18425 2.20494 6.92944 2.09052 6.67111 2.09382C6.31045 2.09844 6.04309 2.31496 5.95595 2.67298C5.70598 3.70016 5.72931 4.77928 6.02285 5.79986C6.73801 5.01473 7.23685 4.05753 7.4679 3.02616Z" fill="#B3976E"/>
<path d="M5.92736 5.82912C5.60521 4.8169 5.0256 3.90633 4.24751 3.19052C4.09458 3.04969 3.91678 2.97685 3.73326 2.97905C3.42058 2.98301 3.11625 3.20416 2.99346 3.51663C2.88014 3.80467 2.95034 4.09865 3.18579 4.32354C3.95024 5.05344 4.89644 5.57298 5.92736 5.82912Z" fill="#B3976E"/>
<path d="M2.25733 6.90442C2.31036 7.23559 2.56474 7.58898 2.99889 7.58348C3.07349 7.5826 3.15094 7.5705 3.2295 7.54739C4.24392 7.25033 5.16702 6.69053 5.90418 5.92609C5.44692 5.82597 4.98064 5.77843 4.51678 5.78415C3.92772 5.79163 3.34304 5.88494 2.77906 6.0612C2.31806 6.20621 2.2098 6.60581 2.25733 6.90442Z" fill="#B3976E"/>
<path d="M9.23513 5.77966C10.1697 5.48699 9.84994 4.15042 9.00034 4.1612C8.92332 4.16208 8.8417 4.17419 8.75632 4.19927C7.73596 4.4981 6.77985 5.06515 6 5.89693C6.49731 6.01312 6.99439 6.06549 7.48312 6.05911C8.08561 6.05163 8.67489 5.95504 9.23513 5.77966ZM6.19364 5.8384C6.91408 5.11269 7.80615 4.58017 8.78404 4.29389C8.85819 4.27211 8.93147 4.26066 9.00144 4.25978C9.40633 4.25472 9.6442 4.58677 9.69371 4.89748C9.74036 5.18992 9.63651 5.55058 9.20565 5.68547C8.64629 5.86063 8.06646 5.95305 7.48179 5.96053C7.05138 5.96625 6.619 5.9251 6.19364 5.8384Z" fill="#B3976E"/>
<path d="M8.2678 8.86454C8.90792 8.8564 9.44946 8.00877 8.84851 7.4351C8.07966 6.70102 7.11058 6.15641 6 5.89697C6.33073 6.98819 6.93674 7.9201 7.71923 8.63987C7.89395 8.80073 8.08473 8.86696 8.2678 8.86454ZM8.78052 7.50641C9.00079 7.71677 9.06658 7.99117 8.96118 8.25941C8.84543 8.55383 8.55959 8.76222 8.26649 8.76596C8.09331 8.76816 7.9318 8.70127 7.78613 8.56748C7.03621 7.87763 6.47222 7.00514 6.14787 6.03539C7.13633 6.29659 8.04358 6.80291 8.78052 7.50641Z" fill="#B3976E"/>
<path d="M5.3298 9.74957C5.66339 9.74539 5.98929 9.55637 6.09227 9.13278C6.34357 8.09987 6.3308 6.98819 6.00007 5.89697C5.22044 6.72897 4.71653 7.71986 4.48416 8.75716C4.34641 9.37396 4.84636 9.75573 5.3298 9.74957ZM4.58053 8.77872C4.803 7.78454 5.27677 6.85991 5.9543 6.09392C6.22254 7.08061 6.2375 8.11945 5.99677 9.10945C5.91535 9.44414 5.66559 9.64658 5.3287 9.65099C5.08511 9.65407 4.84526 9.54669 4.70267 9.37109C4.57196 9.21024 4.52992 9.00537 4.58053 8.77872Z" fill="#B3976E"/>
<path d="M6.66973 2.04451C6.33614 2.04869 6.01025 2.2377 5.90726 2.6613C5.65597 3.6942 5.66895 4.80588 5.99946 5.8971C6.77931 5.0651 7.28322 4.07422 7.51537 3.03691C7.65334 2.42012 7.1534 2.03835 6.66973 2.04451ZM7.41899 3.01535C7.19652 4.00953 6.72276 4.93417 6.04524 5.70015C5.777 4.71346 5.76204 3.67462 6.00277 2.68463C6.08419 2.34993 6.33394 2.14749 6.67084 2.14309C6.91443 2.14001 7.15427 2.24716 7.29686 2.42298C7.42757 2.58384 7.46982 2.78871 7.41899 3.01535Z" fill="#B3976E"/>
<path d="M3.73205 2.92975C3.09193 2.93789 2.5504 3.78552 3.15113 4.35919C3.91998 5.09349 4.88907 5.6381 5.99965 5.89732C5.66892 4.8061 5.0629 3.8742 4.28041 3.1542C4.10591 2.99357 3.91513 2.92733 3.73205 2.92975ZM3.21934 4.28789C2.99908 4.07752 2.93329 3.80313 3.03869 3.53467C3.15443 3.24024 3.44004 3.03207 3.73315 3.02833C3.90632 3.02613 4.06806 3.09302 4.21374 3.22681C4.96366 3.91666 5.52764 4.78915 5.85199 5.7589C4.86354 5.49771 3.95628 4.99138 3.21934 4.28789Z" fill="#B3976E"/>
<path d="M2.99955 7.63281C3.07657 7.63171 3.15821 7.61959 3.24359 7.59473C4.26395 7.2959 5.22005 6.72885 5.9999 5.89707C5.5026 5.78088 5.00551 5.72851 4.51678 5.73489C3.91451 5.7426 3.325 5.8392 2.76476 6.01457C1.83021 6.30702 2.14995 7.64381 2.99955 7.63281ZM2.79425 6.10831C3.35361 5.93315 3.93343 5.84073 4.5181 5.83325C4.94851 5.82775 5.38112 5.8689 5.80648 5.9556C5.08604 6.68132 4.19376 7.21383 3.21587 7.50011C3.14171 7.5219 3.06843 7.53334 2.99824 7.53422C2.59335 7.53929 2.35569 7.20723 2.30618 6.89652C2.25953 6.60408 2.36318 6.24342 2.79425 6.10831Z" fill="#B3976E"/>
</svg>
