<svg width="585" height="197" viewBox="0 0 585 197" fill="none" xmlns="http://www.w3.org/2000/svg">
<path d="M194.554 70H203.194L219.454 107.02V106.96L219.574 107.26C220.054 108.34 220.594 109.12 221.134 109.72V75.1C221.134 70.54 218.974 70.6 216.874 70.6V70H225.874V70.6C223.774 70.6 221.674 70.54 221.674 75.1V110.32C223.054 111.52 224.554 111.46 225.874 111.46V112.06H217.234L200.854 74.8C200.374 73.72 199.834 72.88 199.294 72.34V106.96C199.294 111.52 201.454 111.46 203.554 111.46V112.06H194.554V111.46C196.654 111.46 198.754 111.52 198.754 106.96V71.74C197.374 70.54 195.874 70.6 194.554 70.6V70ZM264.823 98.62L259.423 78.7L254.143 98.62H264.823ZM251.383 106.96L259.123 77.68L261.163 70H261.703L271.543 106.96C272.743 111.52 274.723 111.46 277.123 111.46V112.06H264.223V111.46C266.623 111.46 268.243 111.46 267.043 106.96L264.943 99.16H253.963L251.923 106.96C250.723 111.4 252.343 111.46 254.803 111.46V112.06H245.803V111.46C248.203 111.46 250.123 111.46 251.383 106.96ZM299.934 106.96C299.934 111.52 302.094 111.46 304.194 111.46V112H295.494V108.82C293.574 110.8 291.114 112 288.474 112C282.174 112 277.074 105.16 277.074 96.7C277.074 88.18 282.174 81.34 288.474 81.34C291.114 81.34 293.574 82.54 295.494 84.52V78.22C295.494 73.66 293.694 73.12 291.234 73.78V73.18L299.934 70V106.96ZM295.494 107.68V85.66C294.054 84.16 292.314 83.32 290.454 83.32C285.534 83.32 281.514 89.32 281.514 96.7C281.514 104.08 285.534 110.02 290.454 110.02C292.314 110.02 294.054 109.18 295.494 107.68ZM329.875 106.96C329.875 111.52 332.035 111.46 334.135 111.46V112H325.435V108.82C323.515 110.8 321.055 112 318.415 112C312.115 112 307.015 105.16 307.015 96.7C307.015 88.18 312.115 81.34 318.415 81.34C321.055 81.34 323.515 82.54 325.435 84.52V78.22C325.435 73.66 323.635 73.12 321.175 73.78V73.18L329.875 70V106.96ZM325.435 107.68V85.66C323.995 84.16 322.255 83.32 320.395 83.32C315.475 83.32 311.455 89.32 311.455 96.7C311.455 104.08 315.475 110.02 320.395 110.02C322.255 110.02 323.995 109.18 325.435 107.68ZM336.117 84.52L344.757 81.34V84.58C349.137 79.84 355.497 79.72 357.717 87.94L353.817 89.2C352.017 82.54 347.877 82.18 344.757 85.48V106.96C344.757 111.52 346.917 111.46 349.017 111.46V112H336.117V111.46C338.217 111.46 340.317 111.52 340.317 106.96V89.56C340.317 85 338.577 84.4 336.117 85.06V84.52ZM364.067 96.28H385.787C385.607 88.3 380.807 81.88 374.927 81.88C371.447 81.88 368.387 84.16 366.407 87.46C364.967 90.04 364.187 93.16 364.067 96.28ZM378.947 111.52C367.427 114.58 359.987 105.76 359.687 96.82V96.7C359.447 88.54 365.267 82.3 373.247 81.4C382.607 80.38 389.747 87.64 389.687 96.82H364.067C364.127 103.66 367.847 110.32 376.607 110.32C381.827 110.32 386.327 107.08 388.427 102.58L389.267 102.22C387.527 106.6 383.807 110.2 378.947 111.52ZM404.901 112C398.601 112 393.501 108.22 393.501 103.54L396.981 102.28C396.501 108.7 401.001 111.46 404.901 111.46C408.801 111.46 411.921 109.66 411.921 106C411.921 98.08 393.501 98.98 393.501 88.78C393.501 84.1 398.601 81.34 404.901 81.34C411.261 81.34 416.361 85.12 416.361 89.8L412.881 91.06C413.361 84.64 408.861 81.88 404.901 81.88C401.061 81.88 397.941 83.68 397.941 87.34C397.941 95.26 416.361 94.36 416.361 104.56C416.361 109.24 411.261 112 404.901 112ZM431.913 112C425.613 112 420.513 108.22 420.513 103.54L423.993 102.28C423.513 108.7 428.013 111.46 431.913 111.46C435.813 111.46 438.933 109.66 438.933 106C438.933 98.08 420.513 98.98 420.513 88.78C420.513 84.1 425.613 81.34 431.913 81.34C438.273 81.34 443.373 85.12 443.373 89.8L439.893 91.06C440.373 84.64 435.873 81.88 431.913 81.88C428.073 81.88 424.953 83.68 424.953 87.34C424.953 95.26 443.373 94.36 443.373 104.56C443.373 109.24 438.273 112 431.913 112ZM473.78 70.6V87.04C475.58 87.04 478.7 87.1 479.9 86.68C486.8 84.28 489.56 70.6 473.78 70.6ZM479.9 87.76C478.88 87.58 475.7 87.58 473.78 87.58V111.46H476C492.92 111.46 491.78 89.86 479.9 87.76ZM465.14 70H475.16C493.76 70 491.66 84.58 480.86 87.22C496.94 89.44 499.22 112.06 475.7 112.06H465.14V111.46C467.24 111.46 469.34 111.52 469.34 106.96V75.1C469.34 70.54 467.24 70.6 465.14 70.6V70ZM511.863 81.34C520.383 81.34 527.283 88.24 527.283 96.7C527.283 105.22 520.383 112.12 511.863 112.12C503.343 112.12 496.503 105.22 496.503 96.7C496.503 88.24 503.343 81.34 511.863 81.34ZM511.863 111.58C517.923 111.58 522.843 104.92 522.843 96.7C522.843 88.54 517.923 81.88 511.863 81.88C505.803 81.88 500.943 88.54 500.943 96.7C500.943 104.92 505.803 111.58 511.863 111.58ZM529.124 84.52L537.764 81.34V84.58C542.144 79.84 548.504 79.72 550.724 87.94L546.824 89.2C545.024 82.54 540.884 82.18 537.764 85.48V106.96C537.764 111.52 539.924 111.46 542.024 111.46V112H529.124V111.46C531.224 111.46 533.324 111.52 533.324 106.96V89.56C533.324 85 531.584 84.4 529.124 85.06V84.52ZM552.562 84.52L561.202 81.34V84.52C563.182 82.54 565.582 81.34 568.222 81.34C574.522 81.34 579.682 88.18 579.682 96.7V106.96C579.682 111.52 581.782 111.46 583.942 111.46V112H570.982V111.46C573.082 111.46 575.242 111.52 575.242 106.96V96.7C575.242 89.32 571.222 83.32 566.302 83.32C564.382 83.32 562.642 84.16 561.202 85.66V106.96C561.202 111.52 563.362 111.46 565.462 111.46V112H552.562V111.46C554.662 111.46 556.762 111.52 556.762 106.96V89.56C556.762 85 555.022 84.4 552.562 85.06V84.52Z" fill="white"/>
<path d="M215.657 124.06C227.297 124.06 236.657 133.42 236.657 145.06C236.657 156.64 227.297 166.06 215.657 166.06C204.077 166.06 194.717 156.64 194.717 145.06C194.717 133.42 204.077 124.06 215.657 124.06ZM215.657 165.46C224.837 165.46 232.217 156.34 232.217 145.06C232.217 133.72 224.837 124.6 215.657 124.6C206.537 124.6 199.157 133.72 199.157 145.06C199.157 156.34 206.537 165.46 215.657 165.46ZM257.529 128.26L254.049 129.7C253.809 127.12 253.029 124.6 251.349 124.6C248.829 124.6 248.169 129.52 248.049 135.34H254.049V135.88H248.049C247.989 138.52 247.989 141.28 247.989 143.86V160.96C247.989 165.52 250.149 165.46 252.249 165.46V166H239.349V165.46C241.449 165.46 243.549 165.52 243.549 160.96V143.44C243.549 140.68 243.549 138.16 243.669 135.88H239.349V135.34H243.669C244.089 128.26 245.589 124 251.349 124C253.929 124 256.089 125.5 257.529 128.26ZM274.156 124H287.056V124.6C284.956 124.6 282.796 124.54 282.796 129.1V165.46H287.176C294.316 165.46 300.076 164.14 301.396 157H301.936L301.276 166H274.156V165.46C276.256 165.46 278.356 165.52 278.356 160.96V129.1C278.356 124.54 276.256 124.6 274.156 124.6V124ZM308.67 150.28H330.39C330.21 142.3 325.41 135.88 319.53 135.88C316.05 135.88 312.99 138.16 311.01 141.46C309.57 144.04 308.79 147.16 308.67 150.28ZM323.55 165.52C312.03 168.58 304.59 159.76 304.29 150.82V150.7C304.05 142.54 309.87 136.3 317.85 135.4C327.21 134.38 334.35 141.64 334.29 150.82H308.67C308.73 157.66 312.45 164.32 321.21 164.32C326.43 164.32 330.93 161.08 333.03 156.58L333.87 156.22C332.13 160.6 328.41 164.2 323.55 165.52ZM340.864 157.42C340.144 163.66 360.064 157.66 360.064 169C360.064 175.06 354.004 177.46 348.124 177.34C342.544 177.28 337.204 175 337.204 171.46C337.204 168.16 340.744 166.54 345.604 166.06C337.024 164.62 336.724 157.12 341.524 154.96C339.604 152.92 338.404 149.98 338.404 146.8C338.404 140.44 343.024 135.34 348.604 135.34C350.104 135.34 351.544 135.7 352.864 136.36C354.244 132.34 357.064 131.98 360.124 132.1L359.584 135.82C357.244 134.74 354.604 134.02 353.344 136.6C356.584 138.52 358.804 142.36 358.804 146.8C358.804 153.1 354.244 158.26 348.604 158.26C346.144 158.26 343.864 157.24 342.124 155.62C341.344 156.1 340.924 156.76 340.864 157.42ZM348.604 135.88C345.484 135.88 342.904 140.74 342.904 146.8C342.904 152.8 345.484 157.66 348.604 157.66C351.784 157.66 354.364 152.8 354.364 146.8C354.364 140.74 351.784 135.88 348.604 135.88ZM348.124 176.56C351.784 176.62 355.624 174.7 355.624 170.62C355.624 167.56 352.264 166.72 348.604 166.42C344.764 166.42 341.044 167.98 341.044 171.46C341.044 175.06 344.824 176.56 348.124 176.56ZM385.871 160.96C385.871 165.52 388.031 165.46 390.131 165.46V166H381.431V162.94C374.771 168.58 363.011 166.6 363.011 156.58C363.011 146.92 373.211 145.36 381.431 145.12V141.34C381.431 137.68 378.311 135.88 374.411 135.88C370.511 135.88 366.011 138.64 366.491 145.06L363.011 143.8C363.011 139.12 368.111 135.34 374.411 135.34C380.771 135.34 385.871 138.1 385.871 142.78V160.96ZM381.431 161.98V145.78C374.711 146.14 367.451 147.94 367.451 156.28C367.451 165.7 376.151 166.96 381.431 161.98ZM410.914 165.52C391.174 170.8 383.434 141.1 402.934 135.88C410.254 133.9 417.814 137.56 420.874 144.22L417.754 145.48C416.254 140.02 412.174 135.88 406.954 135.88C393.274 135.88 390.454 164.32 408.574 164.32C413.794 164.32 418.294 161.08 420.394 156.58L421.234 156.22C419.494 160.6 415.834 164.2 410.914 165.52ZM434.788 168.46L435.688 166L426.388 140.38C424.708 135.88 422.428 135.88 420.328 135.88V135.34H433.228V135.88C431.128 135.88 429.328 136.18 430.888 140.38L438.028 159.7L442.768 146.62L445.048 140.38C446.548 136.12 444.748 135.88 442.648 135.88V135.34H451.648V135.88C449.548 135.88 447.208 135.88 445.588 140.38L443.308 146.62C440.668 153.88 438.088 161.08 435.448 168.34C434.008 172.18 431.728 178.78 424.948 176.98V172.9C429.148 173.86 433.048 173.44 434.788 168.46Z" fill="white"/>
<path d="M142.569 147.916C147.512 146.866 152.888 145.012 158.697 142.354C163.765 139.944 168.863 137.534 173.992 135.124L174.733 135.032L175.475 136.144L175.011 137.164C164.012 144.764 152.518 149.276 140.529 150.697L136.729 157H124.215L128.85 149.677C122.238 148.132 116.923 146.371 112.907 144.394C109.384 142.602 104.688 139.512 98.8173 135.124C77.8686 149.708 58.6193 157 41.0693 157C34.828 157 28.9574 155.702 23.4576 153.107C16.6601 149.832 13.2613 145.382 13.2613 139.759C13.2613 132.653 15.8876 129.099 21.1403 129.099C24.9098 129.099 26.7946 131.077 26.7946 135.032C26.7946 139.852 24.539 142.262 20.0279 142.262C18.9156 142.262 17.8651 141.829 16.8764 140.964C16.8146 145.537 19.9044 149.152 26.1457 151.809C31.0276 153.787 36.1566 154.775 41.5328 154.775C58.3412 154.775 76.7872 147.762 96.8708 133.734C82.905 119.027 75.9221 104.536 75.9221 90.2608C75.9221 81.424 78.1158 73.9467 82.5033 67.829C87.4469 61.0314 94.1827 57.6327 102.71 57.6327C119.704 57.6327 132.774 70.0227 141.92 94.8027C152.672 85.2862 163.394 75.7697 174.084 66.2532C188.236 54.0794 200.78 44.7483 211.718 38.2598C226.116 29.732 239.124 25.0973 250.742 24.3558C239.804 31.3387 221.358 50.4953 195.404 81.8257C194.909 82.32 177.298 104.35 142.569 147.916ZM140.529 133.734C157.338 114.392 174.146 95.019 190.955 75.6152C216.538 47.251 233.964 31.1842 243.234 27.4146C229.391 30.01 211.718 39.6811 190.213 56.4277C186.752 59.0849 170.871 72.7108 142.569 97.3055C143.619 103.856 144.144 109.232 144.144 113.434C144.144 120.17 142.939 126.936 140.529 133.734ZM98.6319 132.065C111.733 121.251 118.746 115.473 119.673 114.732C127.583 108.058 134.35 101.971 139.973 96.4712C133.732 73.854 122.145 62.5454 105.213 62.5454C97.118 62.5454 90.6912 65.5116 85.9329 71.444C81.5455 76.9438 79.3517 83.8649 79.3517 92.2073C79.3517 105.123 85.7785 118.409 98.6319 132.065ZM130.518 147.453C137.934 136.638 141.642 124.712 141.642 111.673C141.642 107.656 141.271 103.516 140.529 99.252C133.423 105.864 120.199 117.296 100.857 133.549C110.064 140.779 119.951 145.413 130.518 147.453Z" fill="white"/>
</svg>
