<svg width="150" height="30" viewBox="0 0 150 30" fill="none" xmlns="http://www.w3.org/2000/svg">
<path d="M3.64987 28.5613H2.09627C1.55359 28.5613 1.06855 28.5421 0.641128 28.5037C0.213709 28.4653 0 28.3812 0 28.2515C0.465838 28.1219 0.938879 27.889 1.41672 27.5528C1.89457 27.2166 2.30278 26.5563 2.63895 25.5718L9.47045 4.88038L9.16069 3.98712C9.34078 3.88386 9.5689 3.71578 9.84024 3.48286C10.1116 3.24994 10.3781 2.98581 10.635 2.68806C10.8944 2.3903 11.1321 2.09256 11.353 1.79481C11.5715 1.49705 11.7228 1.23292 11.7996 1L19.2915 25.5334C19.4211 25.9992 19.582 26.3882 19.7765 26.6979C19.971 27.0077 20.1775 27.2742 20.3984 27.4928C20.6194 27.7137 20.8379 27.901 21.0588 28.0546C21.2773 28.2107 21.479 28.3644 21.6615 28.5205H14.3642V28.2491C14.7532 28.1459 15.0941 27.9658 15.3919 27.7065C15.6896 27.4471 15.8385 27.0461 15.8385 26.5034C15.8385 26.1144 15.7737 25.6558 15.644 25.1251C15.5143 24.5945 15.3463 24.0062 15.1397 23.3578C14.9332 22.7119 14.7051 22.0324 14.4602 21.3192C14.2129 20.6084 13.9872 19.9025 13.7807 19.2037H5.4724L3.29929 25.8023C3.16962 26.2417 3.10479 26.5539 3.10479 26.734C3.10479 27.0437 3.15522 27.2766 3.26087 27.4327C3.36412 27.5888 3.49379 27.7233 3.64987 27.8409C3.80595 27.9562 3.96683 28.0618 4.13492 28.1507C4.303 28.2419 4.45188 28.3644 4.58155 28.5205C4.45188 28.5205 4.14212 28.5325 3.64987 28.5589V28.5613ZM5.70772 18.5842H13.5886C13.2788 17.5493 12.9474 16.4615 12.5993 15.3233C12.2487 14.1851 11.9077 13.0518 11.5715 11.9256C11.2354 10.7994 10.9112 9.71406 10.6014 8.66472C10.2917 7.61778 10.0059 6.66449 9.74659 5.81206L5.71012 18.5842H5.70772Z" fill="#9c6b25"/>
<path d="M29.5038 27.3967C29.7896 27.8361 30.1762 28.1219 30.6684 28.2515V28.5229H26.9033V28.2515C27.3956 28.1219 27.7774 27.8385 28.0487 27.3967C28.32 26.9573 28.4569 26.3089 28.4569 25.4565V4.37611C28.4569 3.54768 28.32 2.91375 28.0487 2.47432C27.7774 2.0349 27.3956 1.74915 26.9033 1.61948V1.34814H30.9398L44.9534 23.7468V4.37611C44.9534 3.54768 44.8117 2.91375 44.5259 2.47432C44.2402 2.0349 43.8656 1.74915 43.3998 1.61948V1.34814H47.1265V1.61948C46.6342 1.74915 46.2524 2.0349 45.9811 2.47432C45.7097 2.91375 45.5729 3.54768 45.5729 4.37611V28.5229H44.6796L29.074 3.56209V25.4565C29.074 26.3113 29.2157 26.9573 29.5014 27.3967H29.5038Z" fill="#9c6b25"/>
<path d="M56.0185 28.5613H54.4649C53.9223 28.5613 53.4372 28.5421 53.0098 28.5037C52.5824 28.4653 52.3687 28.3812 52.3687 28.2515C52.8345 28.1219 53.3075 27.889 53.7854 27.5528C54.2632 27.2166 54.6714 26.5563 55.0076 25.5718L61.8391 4.88038L61.5293 3.98712C61.7094 3.88386 61.9376 3.71578 62.2089 3.48286C62.4802 3.24994 62.7468 2.98581 63.0037 2.68806C63.263 2.3903 63.5008 2.09256 63.7217 1.79481C63.9402 1.49705 64.0915 1.23292 64.1683 1L71.6601 25.5334C71.7898 25.9992 71.9507 26.3882 72.1452 26.6979C72.3397 27.0077 72.5462 27.2742 72.7671 27.4928C72.988 27.7137 73.2065 27.901 73.4274 28.0546C73.6459 28.2107 73.8477 28.3644 74.0301 28.5205H66.7328V28.2491C67.1218 28.1459 67.4628 27.9658 67.7605 27.7065C68.0583 27.4471 68.2072 27.0461 68.2072 26.5034C68.2072 26.1144 68.1423 25.6558 68.0127 25.1251C67.883 24.5945 67.7149 24.0062 67.5084 23.3578C67.3019 22.7119 67.0738 22.0324 66.8289 21.3192C66.5815 20.6084 66.3558 19.9025 66.1493 19.2037H57.8411L55.6679 25.8023C55.5383 26.2417 55.4734 26.5539 55.4734 26.734C55.4734 27.0437 55.5239 27.2766 55.6295 27.4327C55.7328 27.5888 55.8624 27.7233 56.0185 27.8409C56.1746 27.9562 56.3355 28.0618 56.5036 28.1507C56.6717 28.2419 56.8205 28.3644 56.9502 28.5205C56.8205 28.5205 56.5108 28.5325 56.0185 28.5589V28.5613ZM58.074 18.5842H65.9548C65.645 17.5493 65.3137 16.4615 64.9655 15.3233C64.6149 14.1851 64.2739 13.0518 63.9378 11.9256C63.6016 10.7994 63.2774 9.71406 62.9677 8.66472C62.6579 7.61778 62.3722 6.66449 62.1128 5.81206L58.0764 18.5842H58.074Z" fill="#9c6b25"/>
<path d="M81.8701 27.3967C82.1558 27.8361 82.5424 28.1219 83.0347 28.2515V28.5229H79.2695V28.2515C79.7618 28.1219 80.1436 27.8385 80.4149 27.3967C80.6862 26.9573 80.8231 26.3089 80.8231 25.4565V4.37611C80.8231 3.54768 80.6862 2.91375 80.4149 2.47432C80.1436 2.0349 79.7618 1.74915 79.2695 1.61948V1.34814H83.306L97.3196 23.7468V4.37611C97.3196 3.54768 97.1779 2.91375 96.8921 2.47432C96.6064 2.0349 96.2318 1.74915 95.766 1.61948V1.34814H99.4927V1.61948C99.0004 1.74915 98.6186 2.0349 98.3473 2.47432C98.0759 2.91375 97.9391 3.54768 97.9391 4.37611V28.5229H97.0458L81.4402 3.56209V25.4565C81.4402 26.3113 81.5819 26.9573 81.8676 27.3967H81.8701Z" fill="#9c6b25"/>
<path d="M116.887 27.4351C117.146 27.9009 117.533 28.1339 118.052 28.1339V28.5229H111.648V28.2515C112.14 28.1219 112.526 27.8385 112.812 27.3967C113.096 26.9573 113.24 26.3233 113.24 25.4949V1.97007C112.178 1.97007 111.22 1.99648 110.368 2.04691C109.513 2.09974 108.757 2.30623 108.096 2.66882C107.436 3.03141 106.867 3.62691 106.389 4.45534C105.909 5.28376 105.529 6.47477 105.244 8.02596C105.14 7.97554 105.049 7.92272 104.972 7.86989C104.895 7.81947 104.816 7.76663 104.739 7.71381C104.946 6.54921 105.14 5.49988 105.32 4.5682C105.45 3.76619 105.58 3.03381 105.709 2.37588C105.839 1.71554 105.904 1.37216 105.904 1.34814H123.8C123.8 1.37456 123.858 1.71073 123.976 2.35666C124.093 3.005 124.228 3.72776 124.384 4.52977C124.54 5.46145 124.734 6.5228 124.965 7.71381C124.888 7.76663 124.809 7.81706 124.732 7.86989C124.655 7.92272 124.564 7.97313 124.461 8.02596C124.151 6.42194 123.743 5.20453 123.238 4.37611C122.734 3.54768 122.146 2.95218 121.471 2.58959C120.799 2.227 120.035 2.03249 119.18 2.00608C118.325 1.97967 117.42 1.96767 116.462 1.96767V25.4925C116.462 26.3209 116.604 26.9669 116.889 27.4327L116.887 27.4351Z" fill="#9c6b25"/>
<path d="M131.988 28.5613H130.435C129.892 28.5613 129.407 28.5421 128.98 28.5037C128.552 28.4653 128.338 28.3812 128.338 28.2515C128.804 28.1219 129.277 27.889 129.755 27.5528C130.233 27.2166 130.641 26.5563 130.977 25.5718L137.809 4.88038L137.499 3.98712C137.679 3.88386 137.907 3.71578 138.179 3.48286C138.45 3.24994 138.716 2.98581 138.973 2.68806C139.233 2.3903 139.47 2.09256 139.691 1.79481C139.912 1.49705 140.061 1.23292 140.138 1L147.63 25.5334C147.76 25.9992 147.92 26.3882 148.115 26.6979C148.309 27.0077 148.516 27.2742 148.737 27.4928C148.955 27.7137 149.176 27.901 149.397 28.0546C149.618 28.2107 149.817 28.3644 150 28.5205H142.703V28.2491C143.092 28.1459 143.432 27.9658 143.73 27.7065C144.028 27.4471 144.177 27.0461 144.177 26.5034C144.177 26.1144 144.112 25.6558 143.982 25.1251C143.853 24.5945 143.685 24.0062 143.478 23.3578C143.272 22.7119 143.043 22.0324 142.799 21.3192C142.551 20.6084 142.326 19.9025 142.119 19.2037H133.811L131.638 25.8023C131.508 26.2417 131.443 26.5539 131.443 26.734C131.443 27.0437 131.494 27.2766 131.599 27.4327C131.703 27.5888 131.832 27.7233 131.988 27.8409C132.144 27.9586 132.305 28.0618 132.473 28.1507C132.641 28.2419 132.79 28.3644 132.92 28.5205C132.79 28.5205 132.481 28.5325 131.988 28.5589V28.5613ZM134.044 18.5842H141.925C141.615 17.5493 141.283 16.4615 140.935 15.3233C140.585 14.1851 140.244 13.0518 139.907 11.9256C139.571 10.7994 139.247 9.71406 138.937 8.66472C138.628 7.61778 138.342 6.66449 138.083 5.81206L134.046 18.5842H134.044Z" fill="#9c6b25"/>
</svg>
