<svg width="650" height="197" viewBox="0 0 650 197" fill="none" xmlns="http://www.w3.org/2000/svg">
<path d="M147.133 78.74C146.533 79.34 145.813 79.64 144.973 79.64C144.093 79.64 143.353 79.34 142.753 78.74C142.153 78.14 141.853 77.4 141.853 76.52C141.853 75.64 142.153 74.9 142.753 74.3C143.353 73.7 144.093 73.4 144.973 73.4C145.813 73.4 146.533 73.7 147.133 74.3C147.733 74.9 148.033 75.64 148.033 76.52C148.033 77.4 147.733 78.14 147.133 78.74ZM148.333 116C147.773 116.36 147.133 116.54 146.413 116.54C145.133 116.54 144.133 116.04 143.413 115.04C142.733 114 142.393 112.56 142.393 110.72V93.5C142.393 90.98 141.693 89.56 140.293 89.24V88.82L147.133 86.06H147.433V108.86C147.433 110.82 147.493 112.16 147.613 112.88C147.733 113.6 148.073 113.96 148.633 113.96C148.953 113.96 149.253 113.82 149.533 113.54C149.813 113.26 150.073 112.94 150.313 112.58C150.593 112.18 150.853 111.72 151.093 111.2L151.633 111.38C151.433 111.86 151.173 112.4 150.853 113C150.573 113.6 150.213 114.16 149.773 114.68C149.373 115.2 148.893 115.64 148.333 116ZM162.344 114.2C162.744 114.88 163.324 115.32 164.084 115.52V115.94H154.244V115.52C155.004 115.32 155.584 114.88 155.984 114.2C156.424 113.52 156.644 112.54 156.644 111.26V93.5C156.644 90.98 155.944 89.56 154.544 89.24V88.82L161.384 86.06H161.684V91.46C162.044 90.66 162.524 89.94 163.124 89.3C163.724 88.62 164.404 88.04 165.164 87.56C165.924 87.08 166.724 86.72 167.564 86.48C168.444 86.2 169.304 86.06 170.144 86.06C171.024 86.06 171.884 86.16 172.724 86.36C173.564 86.56 174.324 86.88 175.004 87.32C175.724 87.76 176.324 88.32 176.804 89C177.324 89.68 177.704 90.5 177.944 91.46C178.184 90.7 178.564 90 179.084 89.36C179.644 88.68 180.284 88.1 181.004 87.62C181.764 87.14 182.564 86.76 183.404 86.48C184.284 86.2 185.164 86.06 186.044 86.06C188.124 86.06 189.784 86.4 191.024 87.08C192.264 87.72 193.204 88.56 193.844 89.6C194.524 90.64 194.964 91.82 195.164 93.14C195.364 94.42 195.464 95.7 195.464 96.98V111.26C195.464 112.54 195.684 113.52 196.124 114.2C196.564 114.88 197.144 115.32 197.864 115.52V115.94H188.084V115.52C188.804 115.32 189.384 114.88 189.824 114.2C190.264 113.52 190.484 112.54 190.484 111.26V96.98C190.484 96.18 190.444 95.24 190.364 94.16C190.324 93.08 190.144 92.06 189.824 91.1C189.544 90.14 189.044 89.32 188.324 88.64C187.644 87.96 186.684 87.62 185.444 87.62C183.724 87.62 182.404 88.04 181.484 88.88C180.564 89.72 179.884 90.68 179.444 91.76C179.044 92.84 178.804 93.9 178.724 94.94C178.684 95.94 178.664 96.62 178.664 96.98V111.26C178.664 112.54 178.884 113.52 179.324 114.2C179.764 114.88 180.344 115.32 181.064 115.52V115.94H171.284V115.52C172.004 115.32 172.584 114.88 173.024 114.2C173.464 113.52 173.684 112.54 173.684 111.26V96.98C173.684 96.54 173.644 95.82 173.564 94.82C173.524 93.78 173.344 92.74 173.024 91.7C172.744 90.62 172.244 89.68 171.524 88.88C170.844 88.04 169.884 87.62 168.644 87.62C167.604 87.62 166.664 87.84 165.824 88.28C164.984 88.68 164.264 89.22 163.664 89.9C163.064 90.54 162.584 91.28 162.224 92.12C161.904 92.96 161.724 93.78 161.684 94.58V111.26C161.684 112.54 161.904 113.52 162.344 114.2ZM217.329 115.58C216.049 116.22 214.509 116.54 212.709 116.54C211.229 116.54 209.769 116.22 208.329 115.58C206.889 114.94 205.589 113.98 204.429 112.7C203.309 111.42 202.389 109.84 201.669 107.96C200.949 106.04 200.589 103.82 200.589 101.3C200.589 99.3 200.869 97.38 201.429 95.54C201.989 93.7 202.809 92.08 203.889 90.68C204.969 89.28 206.289 88.16 207.849 87.32C209.449 86.48 211.249 86.06 213.249 86.06C215.209 86.06 216.869 86.5 218.229 87.38C219.589 88.26 220.689 89.42 221.529 90.86C222.369 92.3 222.969 93.92 223.329 95.72C223.729 97.48 223.929 99.26 223.929 101.06H205.569C205.569 102.66 205.689 104.22 205.929 105.74C206.209 107.26 206.649 108.62 207.249 109.82C207.849 111.02 208.649 111.98 209.649 112.7C210.689 113.42 211.989 113.78 213.549 113.78C214.909 113.78 216.109 113.62 217.149 113.3C218.229 112.94 219.169 112.5 219.969 111.98C220.769 111.46 221.449 110.9 222.009 110.3C222.569 109.66 223.009 109.06 223.329 108.5C223.369 108.5 223.409 108.52 223.449 108.56C223.489 108.6 223.549 108.64 223.629 108.68L223.869 108.8C223.589 109.28 223.189 109.96 222.669 110.84C222.149 111.68 221.449 112.54 220.569 113.42C219.689 114.26 218.609 114.98 217.329 115.58ZM205.929 95.9C205.689 97.5 205.569 99.02 205.569 100.46H218.889C218.889 99.02 218.849 97.5 218.769 95.9C218.689 94.26 218.449 92.76 218.049 91.4C217.689 90.04 217.089 88.92 216.249 88.04C215.409 87.12 214.229 86.66 212.709 86.66C211.309 86.66 210.149 87.12 209.229 88.04C208.309 88.92 207.569 90.06 207.009 91.46C206.489 92.82 206.129 94.3 205.929 95.9ZM234.469 116C233.909 116.36 233.269 116.54 232.549 116.54C231.269 116.54 230.269 116.04 229.549 115.04C228.869 114 228.529 112.56 228.529 110.72V80.24C228.529 77.72 227.829 76.3 226.429 75.98V75.56L233.269 72.8H233.569V108.86C233.569 110.82 233.629 112.16 233.749 112.88C233.869 113.6 234.209 113.96 234.769 113.96C235.089 113.96 235.389 113.82 235.669 113.54C235.949 113.26 236.209 112.94 236.449 112.58C236.729 112.18 236.989 111.72 237.229 111.2L237.769 111.38C237.569 111.86 237.309 112.4 236.989 113C236.709 113.6 236.349 114.16 235.909 114.68C235.509 115.2 235.029 115.64 234.469 116ZM257.055 115.58C255.775 116.22 254.235 116.54 252.435 116.54C250.955 116.54 249.495 116.22 248.055 115.58C246.615 114.94 245.315 113.98 244.155 112.7C243.035 111.42 242.115 109.84 241.395 107.96C240.675 106.04 240.315 103.82 240.315 101.3C240.315 99.3 240.595 97.38 241.155 95.54C241.715 93.7 242.535 92.08 243.615 90.68C244.695 89.28 246.015 88.16 247.575 87.32C249.175 86.48 250.975 86.06 252.975 86.06C254.935 86.06 256.595 86.5 257.955 87.38C259.315 88.26 260.415 89.42 261.255 90.86C262.095 92.3 262.695 93.92 263.055 95.72C263.455 97.48 263.655 99.26 263.655 101.06H245.295C245.295 102.66 245.415 104.22 245.655 105.74C245.935 107.26 246.375 108.62 246.975 109.82C247.575 111.02 248.375 111.98 249.375 112.7C250.415 113.42 251.715 113.78 253.275 113.78C254.635 113.78 255.835 113.62 256.875 113.3C257.955 112.94 258.895 112.5 259.695 111.98C260.495 111.46 261.175 110.9 261.735 110.3C262.295 109.66 262.735 109.06 263.055 108.5C263.095 108.5 263.135 108.52 263.175 108.56C263.215 108.6 263.275 108.64 263.355 108.68L263.595 108.8C263.315 109.28 262.915 109.96 262.395 110.84C261.875 111.68 261.175 112.54 260.295 113.42C259.415 114.26 258.335 114.98 257.055 115.58ZM245.655 95.9C245.415 97.5 245.295 99.02 245.295 100.46H258.615C258.615 99.02 258.575 97.5 258.495 95.9C258.415 94.26 258.175 92.76 257.775 91.4C257.415 90.04 256.815 88.92 255.975 88.04C255.135 87.12 253.955 86.66 252.435 86.66C251.035 86.66 249.875 87.12 248.955 88.04C248.035 88.92 247.295 90.06 246.735 91.46C246.215 92.82 245.855 94.3 245.655 95.9ZM279.055 115.88C277.935 116.28 276.715 116.48 275.395 116.48C273.995 116.48 272.715 116.28 271.555 115.88C270.435 115.48 269.475 114.98 268.675 114.38C267.875 113.78 267.255 113.12 266.815 112.4C266.375 111.68 266.155 111 266.155 110.36L268.555 108.5C268.555 109.14 268.675 109.9 268.915 110.78C269.155 111.62 269.555 112.44 270.115 113.24C270.675 114 271.375 114.64 272.215 115.16C273.095 115.64 274.115 115.88 275.275 115.88C275.395 115.88 275.495 115.88 275.575 115.88C276.335 115.84 277.055 115.68 277.735 115.4C278.415 115.08 278.995 114.68 279.475 114.2C279.995 113.72 280.395 113.18 280.675 112.58C280.995 111.98 281.155 111.38 281.155 110.78C281.155 109.42 280.795 108.28 280.075 107.36C279.395 106.4 278.535 105.54 277.495 104.78C276.455 103.98 275.315 103.24 274.075 102.56C272.875 101.88 271.755 101.12 270.715 100.28C269.675 99.44 268.795 98.48 268.075 97.4C267.395 96.32 267.055 95 267.055 93.44C267.055 92.12 267.275 91 267.715 90.08C268.155 89.16 268.735 88.4 269.455 87.8C270.215 87.2 271.075 86.76 272.035 86.48C272.995 86.2 273.995 86.06 275.035 86.06C276.075 86.06 277.055 86.26 277.975 86.66C278.895 87.06 279.675 87.56 280.315 88.16C280.995 88.76 281.515 89.42 281.875 90.14C282.275 90.86 282.475 91.54 282.475 92.18L279.895 94.16C279.895 93.52 279.815 92.78 279.655 91.94C279.495 91.06 279.215 90.24 278.815 89.48C278.415 88.68 277.875 88.02 277.195 87.5C276.555 86.94 275.755 86.66 274.795 86.66C273.355 86.66 272.195 87.08 271.315 87.92C270.475 88.72 270.055 89.68 270.055 90.8C270.055 92.2 270.415 93.38 271.135 94.34C271.855 95.3 272.755 96.16 273.835 96.92C274.915 97.68 276.075 98.4 277.315 99.08C278.555 99.76 279.715 100.52 280.795 101.36C281.875 102.2 282.775 103.18 283.495 104.3C284.215 105.42 284.575 106.78 284.575 108.38C284.575 109.58 284.335 110.68 283.855 111.68C283.415 112.64 282.775 113.48 281.935 114.2C281.135 114.92 280.175 115.48 279.055 115.88ZM299.856 115.88C298.736 116.28 297.516 116.48 296.196 116.48C294.796 116.48 293.516 116.28 292.356 115.88C291.236 115.48 290.276 114.98 289.476 114.38C288.676 113.78 288.056 113.12 287.616 112.4C287.176 111.68 286.956 111 286.956 110.36L289.356 108.5C289.356 109.14 289.476 109.9 289.716 110.78C289.956 111.62 290.356 112.44 290.916 113.24C291.476 114 292.176 114.64 293.016 115.16C293.896 115.64 294.916 115.88 296.076 115.88C296.196 115.88 296.296 115.88 296.376 115.88C297.136 115.84 297.856 115.68 298.536 115.4C299.216 115.08 299.796 114.68 300.276 114.2C300.796 113.72 301.196 113.18 301.476 112.58C301.796 111.98 301.956 111.38 301.956 110.78C301.956 109.42 301.596 108.28 300.876 107.36C300.196 106.4 299.336 105.54 298.296 104.78C297.256 103.98 296.116 103.24 294.876 102.56C293.676 101.88 292.556 101.12 291.516 100.28C290.476 99.44 289.596 98.48 288.876 97.4C288.196 96.32 287.856 95 287.856 93.44C287.856 92.12 288.076 91 288.516 90.08C288.956 89.16 289.536 88.4 290.256 87.8C291.016 87.2 291.876 86.76 292.836 86.48C293.796 86.2 294.796 86.06 295.836 86.06C296.876 86.06 297.856 86.26 298.776 86.66C299.696 87.06 300.476 87.56 301.116 88.16C301.796 88.76 302.316 89.42 302.676 90.14C303.076 90.86 303.276 91.54 303.276 92.18L300.696 94.16C300.696 93.52 300.616 92.78 300.456 91.94C300.296 91.06 300.016 90.24 299.616 89.48C299.216 88.68 298.676 88.02 297.996 87.5C297.356 86.94 296.556 86.66 295.596 86.66C294.156 86.66 292.996 87.08 292.116 87.92C291.276 88.72 290.856 89.68 290.856 90.8C290.856 92.2 291.216 93.38 291.936 94.34C292.656 95.3 293.556 96.16 294.636 96.92C295.716 97.68 296.876 98.4 298.116 99.08C299.356 99.76 300.516 100.52 301.596 101.36C302.676 102.2 303.576 103.18 304.296 104.3C305.016 105.42 305.376 106.78 305.376 108.38C305.376 109.58 305.136 110.68 304.656 111.68C304.216 112.64 303.576 113.48 302.736 114.2C301.936 114.92 300.976 115.48 299.856 115.88ZM344.343 114.68C342.463 115.56 340.603 116 338.763 116H324.063V115.58C324.823 115.38 325.403 114.94 325.803 114.26C326.243 113.58 326.463 112.6 326.463 111.32V78.68C326.463 77.4 326.243 76.42 325.803 75.74C325.403 75.06 324.823 74.62 324.063 74.42V74H338.763C340.603 74 342.463 74.44 344.343 75.32C346.223 76.2 347.903 77.52 349.383 79.28C350.903 81 352.123 83.14 353.043 85.7C354.003 88.26 354.483 91.24 354.483 94.64C354.483 98.24 354.003 101.38 353.043 104.06C352.123 106.74 350.903 108.98 349.383 110.78C347.903 112.54 346.223 113.84 344.343 114.68ZM331.503 115.04H335.403C337.203 115.04 338.943 114.6 340.623 113.72C342.303 112.8 343.783 111.48 345.063 109.76C346.383 108 347.423 105.86 348.183 103.34C348.943 100.78 349.323 97.88 349.323 94.64C349.323 91.6 348.943 88.86 348.183 86.42C347.423 83.98 346.383 81.92 345.063 80.24C343.783 78.52 342.303 77.22 340.623 76.34C338.943 75.42 337.203 74.96 335.403 74.96H331.503V115.04ZM373.422 115.58C372.142 116.22 370.602 116.54 368.802 116.54C367.322 116.54 365.862 116.22 364.422 115.58C362.982 114.94 361.682 113.98 360.522 112.7C359.402 111.42 358.482 109.84 357.762 107.96C357.042 106.04 356.682 103.82 356.682 101.3C356.682 99.3 356.962 97.38 357.522 95.54C358.082 93.7 358.902 92.08 359.982 90.68C361.062 89.28 362.382 88.16 363.942 87.32C365.542 86.48 367.342 86.06 369.342 86.06C371.302 86.06 372.962 86.5 374.322 87.38C375.682 88.26 376.782 89.42 377.622 90.86C378.462 92.3 379.062 93.92 379.422 95.72C379.822 97.48 380.022 99.26 380.022 101.06H361.662C361.662 102.66 361.782 104.22 362.022 105.74C362.302 107.26 362.742 108.62 363.342 109.82C363.942 111.02 364.742 111.98 365.742 112.7C366.782 113.42 368.082 113.78 369.642 113.78C371.002 113.78 372.202 113.62 373.242 113.3C374.322 112.94 375.262 112.5 376.062 111.98C376.862 111.46 377.542 110.9 378.102 110.3C378.662 109.66 379.102 109.06 379.422 108.5C379.462 108.5 379.502 108.52 379.542 108.56C379.582 108.6 379.642 108.64 379.722 108.68L379.962 108.8C379.682 109.28 379.282 109.96 378.762 110.84C378.242 111.68 377.542 112.54 376.662 113.42C375.782 114.26 374.702 114.98 373.422 115.58ZM362.022 95.9C361.782 97.5 361.662 99.02 361.662 100.46H374.982C374.982 99.02 374.942 97.5 374.862 95.9C374.782 94.26 374.542 92.76 374.142 91.4C373.782 90.04 373.182 88.92 372.342 88.04C371.502 87.12 370.322 86.66 368.802 86.66C367.402 86.66 366.242 87.12 365.322 88.04C364.402 88.92 363.662 90.06 363.102 91.46C362.582 92.82 362.222 94.3 362.022 95.9ZM395.422 115.88C394.302 116.28 393.082 116.48 391.762 116.48C390.362 116.48 389.082 116.28 387.922 115.88C386.802 115.48 385.842 114.98 385.042 114.38C384.242 113.78 383.622 113.12 383.182 112.4C382.742 111.68 382.522 111 382.522 110.36L384.922 108.5C384.922 109.14 385.042 109.9 385.282 110.78C385.522 111.62 385.922 112.44 386.482 113.24C387.042 114 387.742 114.64 388.582 115.16C389.462 115.64 390.482 115.88 391.642 115.88C391.762 115.88 391.862 115.88 391.942 115.88C392.702 115.84 393.422 115.68 394.102 115.4C394.782 115.08 395.362 114.68 395.842 114.2C396.362 113.72 396.762 113.18 397.042 112.58C397.362 111.98 397.522 111.38 397.522 110.78C397.522 109.42 397.162 108.28 396.442 107.36C395.762 106.4 394.902 105.54 393.862 104.78C392.822 103.98 391.682 103.24 390.442 102.56C389.242 101.88 388.122 101.12 387.082 100.28C386.042 99.44 385.162 98.48 384.442 97.4C383.762 96.32 383.422 95 383.422 93.44C383.422 92.12 383.642 91 384.082 90.08C384.522 89.16 385.102 88.4 385.822 87.8C386.582 87.2 387.442 86.76 388.402 86.48C389.362 86.2 390.362 86.06 391.402 86.06C392.442 86.06 393.422 86.26 394.342 86.66C395.262 87.06 396.042 87.56 396.682 88.16C397.362 88.76 397.882 89.42 398.242 90.14C398.642 90.86 398.842 91.54 398.842 92.18L396.262 94.16C396.262 93.52 396.182 92.78 396.022 91.94C395.862 91.06 395.582 90.24 395.182 89.48C394.782 88.68 394.242 88.02 393.562 87.5C392.922 86.94 392.122 86.66 391.162 86.66C389.722 86.66 388.562 87.08 387.682 87.92C386.842 88.72 386.422 89.68 386.422 90.8C386.422 92.2 386.782 93.38 387.502 94.34C388.222 95.3 389.122 96.16 390.202 96.92C391.282 97.68 392.442 98.4 393.682 99.08C394.922 99.76 396.082 100.52 397.162 101.36C398.242 102.2 399.142 103.18 399.862 104.3C400.582 105.42 400.942 106.78 400.942 108.38C400.942 109.58 400.702 110.68 400.222 111.68C399.782 112.64 399.142 113.48 398.302 114.2C397.502 114.92 396.542 115.48 395.422 115.88ZM410.043 78.74C409.443 79.34 408.723 79.64 407.883 79.64C407.003 79.64 406.263 79.34 405.663 78.74C405.063 78.14 404.763 77.4 404.763 76.52C404.763 75.64 405.063 74.9 405.663 74.3C406.263 73.7 407.003 73.4 407.883 73.4C408.723 73.4 409.443 73.7 410.043 74.3C410.643 74.9 410.943 75.64 410.943 76.52C410.943 77.4 410.643 78.14 410.043 78.74ZM411.243 116C410.683 116.36 410.043 116.54 409.323 116.54C408.043 116.54 407.043 116.04 406.323 115.04C405.643 114 405.303 112.56 405.303 110.72V93.5C405.303 90.98 404.603 89.56 403.203 89.24V88.82L410.043 86.06H410.343V108.86C410.343 110.82 410.403 112.16 410.523 112.88C410.643 113.6 410.983 113.96 411.543 113.96C411.863 113.96 412.163 113.82 412.443 113.54C412.723 113.26 412.983 112.94 413.223 112.58C413.503 112.18 413.763 111.72 414.003 111.2L414.543 111.38C414.343 111.86 414.083 112.4 413.763 113C413.483 113.6 413.123 114.16 412.683 114.68C412.283 115.2 411.803 115.64 411.243 116ZM433.774 128.3C432.094 128.9 430.114 129.2 427.834 129.2C425.314 129.2 423.294 128.72 421.774 127.76C420.254 126.84 419.214 125.78 418.654 124.58C418.094 123.42 417.814 122.28 417.814 121.16C417.814 120.88 417.854 120.28 417.934 119.36C418.054 118.48 418.534 117.52 419.374 116.48C418.254 115.56 417.694 114.4 417.694 113C417.694 111.8 418.114 110.88 418.954 110.24C419.834 109.56 420.834 109.22 421.954 109.22C422.074 109.22 422.194 109.22 422.314 109.22C420.794 108.18 419.534 106.78 418.534 105.02C417.534 103.26 417.034 101.12 417.034 98.6C417.034 96.56 417.374 94.76 418.054 93.2C418.774 91.6 419.694 90.28 420.814 89.24C421.974 88.2 423.254 87.4 424.654 86.84C426.094 86.28 427.554 86 429.034 86C429.914 84.44 431.154 83.24 432.754 82.4C434.394 81.56 436.034 81.14 437.674 81.14C439.154 81.14 440.394 81.46 441.394 82.1V85.64C440.074 84.72 438.874 84.08 437.794 83.72C436.714 83.32 435.754 83.12 434.914 83.12C434.194 83.12 433.554 83.22 432.994 83.42C432.434 83.62 431.934 83.88 431.494 84.2C431.094 84.48 430.754 84.78 430.474 85.1C430.194 85.42 429.994 85.72 429.874 86C431.314 86.08 432.714 86.42 434.074 87.02C435.434 87.58 436.634 88.4 437.674 89.48C438.754 90.52 439.614 91.82 440.254 93.38C440.934 94.9 441.274 96.64 441.274 98.6C441.274 100.64 440.934 102.46 440.254 104.06C439.574 105.62 438.654 106.94 437.494 108.02C436.374 109.1 435.074 109.92 433.594 110.48C432.154 111 430.674 111.26 429.154 111.26C427.234 111.26 425.434 110.84 423.754 110C423.354 109.88 422.874 109.82 422.314 109.82C421.794 109.82 421.294 109.92 420.814 110.12C420.334 110.28 419.914 110.54 419.554 110.9C419.234 111.22 419.074 111.64 419.074 112.16C419.074 113.08 419.354 113.72 419.914 114.08C420.474 114.4 421.174 114.56 422.014 114.56C422.734 114.56 423.494 114.44 424.294 114.2C425.094 113.96 425.934 113.7 426.814 113.42C427.734 113.1 428.694 112.82 429.694 112.58C430.734 112.3 431.834 112.16 432.994 112.16C434.034 112.16 435.034 112.36 435.994 112.76C436.954 113.12 437.794 113.62 438.514 114.26C439.234 114.9 439.814 115.64 440.254 116.48C440.694 117.36 440.914 118.3 440.914 119.3C440.914 120.46 440.654 121.62 440.134 122.78C439.654 123.98 438.874 125.04 437.794 125.96C436.754 126.92 435.414 127.7 433.774 128.3ZM423.934 107.24C425.214 109.48 426.954 110.62 429.154 110.66C431.394 110.62 433.134 109.5 434.374 107.3C435.654 105.06 436.294 102.16 436.294 98.6C436.294 96.84 436.134 95.22 435.814 93.74C435.494 92.26 435.014 90.98 434.374 89.9C433.774 88.82 433.034 87.98 432.154 87.38C431.274 86.78 430.274 86.48 429.154 86.48C428.034 86.48 427.034 86.78 426.154 87.38C425.274 87.98 424.514 88.82 423.874 89.9C423.274 90.98 422.814 92.26 422.494 93.74C422.174 95.22 422.014 96.84 422.014 98.6C422.014 102.16 422.654 105.04 423.934 107.24ZM425.374 125.42C426.694 126.02 428.294 126.32 430.174 126.32C431.934 126.32 433.414 126.1 434.614 125.66C435.854 125.22 436.854 124.64 437.614 123.92C438.374 123.24 438.914 122.48 439.234 121.64C439.594 120.8 439.774 119.98 439.774 119.18C439.774 118.34 439.414 117.54 438.694 116.78C437.974 116.06 436.934 115.7 435.574 115.7C434.614 115.7 433.634 115.82 432.634 116.06C431.674 116.3 430.714 116.56 429.754 116.84C428.794 117.16 427.834 117.44 426.874 117.68C425.914 117.92 424.954 118.04 423.994 118.04C422.874 118.04 421.774 117.8 420.694 117.32C420.534 117.84 420.454 118.36 420.454 118.88C420.454 119.32 420.534 119.92 420.694 120.68C420.894 121.44 421.394 122.26 422.194 123.14C422.994 124.06 424.054 124.82 425.374 125.42ZM452.031 114.2C452.431 114.88 453.011 115.32 453.771 115.52V115.94H443.931V115.52C444.691 115.32 445.271 114.88 445.671 114.2C446.111 113.52 446.331 112.54 446.331 111.26V93.32C446.331 92.04 446.171 91.1 445.851 90.5C445.531 89.86 444.991 89.44 444.231 89.24V88.82L451.071 86.06H451.371V91.46C451.611 90.78 451.991 90.12 452.511 89.48C453.031 88.8 453.631 88.22 454.311 87.74C454.991 87.22 455.711 86.82 456.471 86.54C457.271 86.22 458.051 86.06 458.811 86.06C461.011 86.06 462.751 86.4 464.031 87.08C465.311 87.72 466.271 88.54 466.911 89.54C467.551 90.54 467.951 91.64 468.111 92.84C468.271 94.04 468.351 95.16 468.351 96.2V111.26C468.351 112.54 468.571 113.52 469.011 114.2C469.451 114.88 470.031 115.32 470.751 115.52V115.94H460.971V115.52C461.691 115.32 462.271 114.88 462.711 114.2C463.151 113.52 463.371 112.54 463.371 111.26V94.76C463.371 93.76 463.231 92.74 462.951 91.7C462.671 90.62 462.171 89.68 461.451 88.88C460.771 88.04 459.731 87.62 458.331 87.62C456.091 87.62 454.451 88.26 453.411 89.54C452.411 90.82 451.771 92.4 451.491 94.28C451.251 96.12 451.131 98 451.131 99.92C451.131 100.68 451.171 101.98 451.251 103.82C451.331 105.66 451.371 108.14 451.371 111.26C451.371 112.54 451.591 113.52 452.031 114.2ZM479.82 115.46C479.1 116.18 478.22 116.54 477.18 116.54C476.14 116.54 475.26 116.2 474.54 115.52C473.86 114.8 473.52 113.92 473.52 112.88C473.52 111.84 473.86 110.98 474.54 110.3C475.26 109.58 476.14 109.22 477.18 109.22C478.22 109.22 479.08 109.58 479.76 110.3C480.48 110.98 480.84 111.84 480.84 112.88C480.84 113.92 480.5 114.78 479.82 115.46ZM524.448 115.4C524.408 115.64 524.368 115.84 524.328 116H499.668V115.58C500.428 115.38 501.008 114.94 501.408 114.26C501.848 113.58 502.068 112.6 502.068 111.32V78.68C502.068 77.4 501.848 76.42 501.408 75.74C501.008 75.06 500.428 74.62 499.668 74.42V74H522.888L524.688 83.9C524.568 83.98 524.448 84.06 524.328 84.14C524.208 84.18 524.068 84.24 523.908 84.32C523.788 83.84 523.628 83.08 523.428 82.04C523.228 81 522.828 79.96 522.228 78.92C521.628 77.84 520.748 76.92 519.588 76.16C518.428 75.36 516.868 74.96 514.908 74.96H507.108V93.38H513.348C513.948 93.38 514.488 93.24 514.968 92.96C515.488 92.68 515.928 92.34 516.288 91.94C516.648 91.5 516.928 91.04 517.128 90.56C517.368 90.08 517.528 89.62 517.608 89.18H517.968V98.48H517.608C517.528 98.08 517.368 97.64 517.128 97.16C516.928 96.68 516.648 96.24 516.288 95.84C515.928 95.4 515.488 95.04 514.968 94.76C514.488 94.48 513.948 94.34 513.348 94.34H507.108V115.04H514.848C516.808 115.04 518.428 114.62 519.708 113.78C521.028 112.94 522.088 111.94 522.888 110.78C523.688 109.58 524.288 108.34 524.688 107.06C525.088 105.74 525.388 104.62 525.588 103.7C525.708 103.78 525.848 103.86 526.008 103.94C526.168 103.98 526.288 104.04 526.368 104.12C525.888 106.88 525.528 109.02 525.288 110.54L524.448 115.4ZM536.636 116C536.076 116.36 535.436 116.54 534.716 116.54C533.436 116.54 532.436 116.04 531.716 115.04C531.036 114 530.696 112.56 530.696 110.72V80.24C530.696 77.72 529.996 76.3 528.596 75.98V75.56L535.436 72.8H535.736V108.86C535.736 110.82 535.796 112.16 535.916 112.88C536.036 113.6 536.376 113.96 536.936 113.96C537.256 113.96 537.556 113.82 537.836 113.54C538.116 113.26 538.376 112.94 538.616 112.58C538.896 112.18 539.156 111.72 539.396 111.2L539.936 111.38C539.736 111.86 539.476 112.4 539.156 113C538.876 113.6 538.516 114.16 538.076 114.68C537.676 115.2 537.196 115.64 536.636 116ZM549.203 78.74C548.603 79.34 547.883 79.64 547.043 79.64C546.163 79.64 545.423 79.34 544.823 78.74C544.223 78.14 543.923 77.4 543.923 76.52C543.923 75.64 544.223 74.9 544.823 74.3C545.423 73.7 546.163 73.4 547.043 73.4C547.883 73.4 548.603 73.7 549.203 74.3C549.803 74.9 550.103 75.64 550.103 76.52C550.103 77.4 549.803 78.14 549.203 78.74ZM550.403 116C549.843 116.36 549.203 116.54 548.483 116.54C547.203 116.54 546.203 116.04 545.483 115.04C544.803 114 544.463 112.56 544.463 110.72V93.5C544.463 90.98 543.763 89.56 542.363 89.24V88.82L549.203 86.06H549.503V108.86C549.503 110.82 549.563 112.16 549.683 112.88C549.803 113.6 550.143 113.96 550.703 113.96C551.023 113.96 551.323 113.82 551.603 113.54C551.883 113.26 552.143 112.94 552.383 112.58C552.663 112.18 552.923 111.72 553.163 111.2L553.703 111.38C553.503 111.86 553.243 112.4 552.923 113C552.643 113.6 552.283 114.16 551.843 114.68C551.443 115.2 550.963 115.64 550.403 116ZM564.294 116C563.734 116.36 563.094 116.54 562.374 116.54C561.094 116.54 560.114 116.04 559.434 115.04C558.754 114 558.414 112.58 558.414 110.78V87.26H556.194V86.6H558.414V80.42L563.154 78.38H563.394V86.6H568.494V87.26H563.394V108.92C563.394 110.84 563.454 112.16 563.574 112.88C563.694 113.6 564.014 113.96 564.534 113.96C564.854 113.96 565.154 113.82 565.434 113.54C565.714 113.26 565.974 112.96 566.214 112.64C566.494 112.24 566.754 111.78 566.994 111.26L567.534 111.44C567.374 111.92 567.134 112.46 566.814 113.06C566.534 113.62 566.174 114.16 565.734 114.68C565.334 115.2 564.854 115.64 564.294 116ZM587.641 115.58C586.361 116.22 584.821 116.54 583.021 116.54C581.541 116.54 580.081 116.22 578.641 115.58C577.201 114.94 575.901 113.98 574.741 112.7C573.621 111.42 572.701 109.84 571.981 107.96C571.261 106.04 570.901 103.82 570.901 101.3C570.901 99.3 571.181 97.38 571.741 95.54C572.301 93.7 573.121 92.08 574.201 90.68C575.281 89.28 576.601 88.16 578.161 87.32C579.761 86.48 581.561 86.06 583.561 86.06C585.521 86.06 587.181 86.5 588.541 87.38C589.901 88.26 591.001 89.42 591.841 90.86C592.681 92.3 593.281 93.92 593.641 95.72C594.041 97.48 594.241 99.26 594.241 101.06H575.881C575.881 102.66 576.001 104.22 576.241 105.74C576.521 107.26 576.961 108.62 577.561 109.82C578.161 111.02 578.961 111.98 579.961 112.7C581.001 113.42 582.301 113.78 583.861 113.78C585.221 113.78 586.421 113.62 587.461 113.3C588.541 112.94 589.481 112.5 590.281 111.98C591.081 111.46 591.761 110.9 592.321 110.3C592.881 109.66 593.321 109.06 593.641 108.5C593.681 108.5 593.721 108.52 593.761 108.56C593.801 108.6 593.861 108.64 593.941 108.68L594.181 108.8C593.901 109.28 593.501 109.96 592.981 110.84C592.461 111.68 591.761 112.54 590.881 113.42C590.001 114.26 588.921 114.98 587.641 115.58ZM576.241 95.9C576.001 97.5 575.881 99.02 575.881 100.46H589.201C589.201 99.02 589.161 97.5 589.081 95.9C589.001 94.26 588.761 92.76 588.361 91.4C588.001 90.04 587.401 88.92 586.561 88.04C585.721 87.12 584.541 86.66 583.021 86.66C581.621 86.66 580.461 87.12 579.541 88.04C578.621 88.92 577.881 90.06 577.321 91.46C576.801 92.82 576.441 94.3 576.241 95.9ZM320.309 167.56C320.429 167.68 320.549 167.8 320.669 167.92L318.929 178H292.949V177.58C293.709 177.38 294.289 176.94 294.689 176.26C295.129 175.58 295.349 174.6 295.349 173.32V140.74C295.349 139.42 295.129 138.42 294.689 137.74C294.289 137.06 293.709 136.62 292.949 136.42V136H302.789V136.42C302.029 136.62 301.429 137.06 300.989 137.74C300.589 138.42 300.389 139.42 300.389 140.74V177.4H309.569C311.569 177.4 313.209 176.98 314.489 176.14C315.769 175.26 316.789 174.26 317.549 173.14C318.349 171.98 318.909 170.84 319.229 169.72C319.589 168.6 319.809 167.78 319.889 167.26C320.049 167.38 320.189 167.48 320.309 167.56ZM328.891 140.74C328.291 141.34 327.571 141.64 326.731 141.64C325.851 141.64 325.111 141.34 324.511 140.74C323.911 140.14 323.611 139.4 323.611 138.52C323.611 137.64 323.911 136.9 324.511 136.3C325.111 135.7 325.851 135.4 326.731 135.4C327.571 135.4 328.291 135.7 328.891 136.3C329.491 136.9 329.791 137.64 329.791 138.52C329.791 139.4 329.491 140.14 328.891 140.74ZM330.091 178C329.531 178.36 328.891 178.54 328.171 178.54C326.891 178.54 325.891 178.04 325.171 177.04C324.491 176 324.151 174.56 324.151 172.72V155.5C324.151 152.98 323.451 151.56 322.051 151.24V150.82L328.891 148.06H329.191V170.86C329.191 172.82 329.251 174.16 329.371 174.88C329.491 175.6 329.831 175.96 330.391 175.96C330.711 175.96 331.011 175.82 331.291 175.54C331.571 175.26 331.831 174.94 332.071 174.58C332.351 174.18 332.611 173.72 332.851 173.2L333.391 173.38C333.191 173.86 332.931 174.4 332.611 175C332.331 175.6 331.971 176.16 331.531 176.68C331.131 177.2 330.651 177.64 330.091 178ZM349.802 174.7C349.442 175.62 348.962 176.9 348.362 178.54L339.002 152.86C338.082 150.66 336.742 149.38 334.982 149.02V148.6H345.602V149.02C344.922 149.22 344.502 149.52 344.342 149.92C344.182 150.32 344.102 150.68 344.102 151C344.102 151.52 344.202 152.12 344.402 152.8L350.582 169.78L353.642 161.86C354.002 160.9 354.362 159.72 354.722 158.32C355.082 156.92 355.282 155.84 355.322 155.08C355.362 154.32 355.382 153.84 355.382 153.64C355.382 152.6 355.222 151.62 354.902 150.7C354.622 149.78 354.002 149.22 353.042 149.02L353.102 148.6H362.342V149.02C361.382 149.18 360.442 149.96 359.522 151.36C358.602 152.72 357.542 154.78 356.342 157.54C355.262 160.38 354.382 162.66 353.702 164.38C353.062 166.06 352.542 167.4 352.142 168.4C351.782 169.4 351.482 170.18 351.242 170.74C351.042 171.3 350.822 171.88 350.582 172.48C350.382 173.08 350.122 173.82 349.802 174.7ZM371.606 140.74C371.006 141.34 370.286 141.64 369.446 141.64C368.566 141.64 367.826 141.34 367.226 140.74C366.626 140.14 366.326 139.4 366.326 138.52C366.326 137.64 366.626 136.9 367.226 136.3C367.826 135.7 368.566 135.4 369.446 135.4C370.286 135.4 371.006 135.7 371.606 136.3C372.206 136.9 372.506 137.64 372.506 138.52C372.506 139.4 372.206 140.14 371.606 140.74ZM372.806 178C372.246 178.36 371.606 178.54 370.886 178.54C369.606 178.54 368.606 178.04 367.886 177.04C367.206 176 366.866 174.56 366.866 172.72V155.5C366.866 152.98 366.166 151.56 364.766 151.24V150.82L371.606 148.06H371.906V170.86C371.906 172.82 371.966 174.16 372.086 174.88C372.206 175.6 372.546 175.96 373.106 175.96C373.426 175.96 373.726 175.82 374.006 175.54C374.286 175.26 374.546 174.94 374.786 174.58C375.066 174.18 375.326 173.72 375.566 173.2L376.106 173.38C375.906 173.86 375.646 174.4 375.326 175C375.046 175.6 374.686 176.16 374.246 176.68C373.846 177.2 373.366 177.64 372.806 178ZM386.816 176.2C387.216 176.88 387.796 177.32 388.556 177.52V177.94H378.716V177.52C379.476 177.32 380.056 176.88 380.456 176.2C380.896 175.52 381.116 174.54 381.116 173.26V155.32C381.116 154.04 380.956 153.1 380.636 152.5C380.316 151.86 379.776 151.44 379.016 151.24V150.82L385.856 148.06H386.156V153.46C386.396 152.78 386.776 152.12 387.296 151.48C387.816 150.8 388.416 150.22 389.096 149.74C389.776 149.22 390.496 148.82 391.256 148.54C392.056 148.22 392.836 148.06 393.596 148.06C395.796 148.06 397.536 148.4 398.816 149.08C400.096 149.72 401.056 150.54 401.696 151.54C402.336 152.54 402.736 153.64 402.896 154.84C403.056 156.04 403.136 157.16 403.136 158.2V173.26C403.136 174.54 403.356 175.52 403.796 176.2C404.236 176.88 404.816 177.32 405.536 177.52V177.94H395.756V177.52C396.476 177.32 397.056 176.88 397.496 176.2C397.936 175.52 398.156 174.54 398.156 173.26V156.76C398.156 155.76 398.016 154.74 397.736 153.7C397.456 152.62 396.956 151.68 396.236 150.88C395.556 150.04 394.516 149.62 393.116 149.62C390.876 149.62 389.236 150.26 388.196 151.54C387.196 152.82 386.556 154.4 386.276 156.28C386.036 158.12 385.916 160 385.916 161.92C385.916 162.68 385.956 163.98 386.036 165.82C386.116 167.66 386.156 170.14 386.156 173.26C386.156 174.54 386.376 175.52 386.816 176.2ZM424.985 190.3C423.305 190.9 421.325 191.2 419.045 191.2C416.525 191.2 414.505 190.72 412.985 189.76C411.465 188.84 410.425 187.78 409.865 186.58C409.305 185.42 409.025 184.28 409.025 183.16C409.025 182.88 409.065 182.28 409.145 181.36C409.265 180.48 409.745 179.52 410.585 178.48C409.465 177.56 408.905 176.4 408.905 175C408.905 173.8 409.325 172.88 410.165 172.24C411.045 171.56 412.045 171.22 413.165 171.22C413.285 171.22 413.405 171.22 413.525 171.22C412.005 170.18 410.745 168.78 409.745 167.02C408.745 165.26 408.245 163.12 408.245 160.6C408.245 158.56 408.585 156.76 409.265 155.2C409.985 153.6 410.905 152.28 412.025 151.24C413.185 150.2 414.465 149.4 415.865 148.84C417.305 148.28 418.765 148 420.245 148C421.125 146.44 422.365 145.24 423.965 144.4C425.605 143.56 427.245 143.14 428.885 143.14C430.365 143.14 431.605 143.46 432.605 144.1V147.64C431.285 146.72 430.085 146.08 429.005 145.72C427.925 145.32 426.965 145.12 426.125 145.12C425.405 145.12 424.765 145.22 424.205 145.42C423.645 145.62 423.145 145.88 422.705 146.2C422.305 146.48 421.965 146.78 421.685 147.1C421.405 147.42 421.205 147.72 421.085 148C422.525 148.08 423.925 148.42 425.285 149.02C426.645 149.58 427.845 150.4 428.885 151.48C429.965 152.52 430.825 153.82 431.465 155.38C432.145 156.9 432.485 158.64 432.485 160.6C432.485 162.64 432.145 164.46 431.465 166.06C430.785 167.62 429.865 168.94 428.705 170.02C427.585 171.1 426.285 171.92 424.805 172.48C423.365 173 421.885 173.26 420.365 173.26C418.445 173.26 416.645 172.84 414.965 172C414.565 171.88 414.085 171.82 413.525 171.82C413.005 171.82 412.505 171.92 412.025 172.12C411.545 172.28 411.125 172.54 410.765 172.9C410.445 173.22 410.285 173.64 410.285 174.16C410.285 175.08 410.565 175.72 411.125 176.08C411.685 176.4 412.385 176.56 413.225 176.56C413.945 176.56 414.705 176.44 415.505 176.2C416.305 175.96 417.145 175.7 418.025 175.42C418.945 175.1 419.905 174.82 420.905 174.58C421.945 174.3 423.045 174.16 424.205 174.16C425.245 174.16 426.245 174.36 427.205 174.76C428.165 175.12 429.005 175.62 429.725 176.26C430.445 176.9 431.025 177.64 431.465 178.48C431.905 179.36 432.125 180.3 432.125 181.3C432.125 182.46 431.865 183.62 431.345 184.78C430.865 185.98 430.085 187.04 429.005 187.96C427.965 188.92 426.625 189.7 424.985 190.3ZM415.145 169.24C416.425 171.48 418.165 172.62 420.365 172.66C422.605 172.62 424.345 171.5 425.585 169.3C426.865 167.06 427.505 164.16 427.505 160.6C427.505 158.84 427.345 157.22 427.025 155.74C426.705 154.26 426.225 152.98 425.585 151.9C424.985 150.82 424.245 149.98 423.365 149.38C422.485 148.78 421.485 148.48 420.365 148.48C419.245 148.48 418.245 148.78 417.365 149.38C416.485 149.98 415.725 150.82 415.085 151.9C414.485 152.98 414.025 154.26 413.705 155.74C413.385 157.22 413.225 158.84 413.225 160.6C413.225 164.16 413.865 167.04 415.145 169.24ZM416.585 187.42C417.905 188.02 419.505 188.32 421.385 188.32C423.145 188.32 424.625 188.1 425.825 187.66C427.065 187.22 428.065 186.64 428.825 185.92C429.585 185.24 430.125 184.48 430.445 183.64C430.805 182.8 430.985 181.98 430.985 181.18C430.985 180.34 430.625 179.54 429.905 178.78C429.185 178.06 428.145 177.7 426.785 177.7C425.825 177.7 424.845 177.82 423.845 178.06C422.885 178.3 421.925 178.56 420.965 178.84C420.005 179.16 419.045 179.44 418.085 179.68C417.125 179.92 416.165 180.04 415.205 180.04C414.085 180.04 412.985 179.8 411.905 179.32C411.745 179.84 411.665 180.36 411.665 180.88C411.665 181.32 411.745 181.92 411.905 182.68C412.105 183.44 412.605 184.26 413.405 185.14C414.205 186.06 415.265 186.82 416.585 187.42ZM441.382 177.46C440.662 178.18 439.782 178.54 438.742 178.54C437.702 178.54 436.822 178.2 436.102 177.52C435.422 176.8 435.082 175.92 435.082 174.88C435.082 173.84 435.422 172.98 436.102 172.3C436.822 171.58 437.702 171.22 438.742 171.22C439.782 171.22 440.642 171.58 441.322 172.3C442.042 172.98 442.402 173.84 442.402 174.88C442.402 175.92 442.062 176.78 441.382 177.46Z" fill="#9c6b25"/>
<path d="M-0.000260316 137.905C-0.000260316 135.557 0.741287 133.61 2.22438 132.065C3.70748 130.459 5.59224 129.655 7.87868 129.655C9.48536 129.655 10.8449 130.304 11.9572 131.602C13.1313 132.9 13.7184 134.352 13.7184 135.959C13.7184 137.318 13.224 138.709 12.2353 140.13C11.3083 141.551 10.1651 142.262 8.80561 142.262C6.76636 142.262 4.88159 141.644 3.15132 140.408C5.06698 149.368 14.8925 153.848 32.6278 153.848C46.3464 153.848 57.964 150.388 67.4805 143.467C74.278 138.585 82.5896 129.47 92.4151 116.122L113.735 87.1092C118.987 80.0027 128.102 70.1463 141.079 57.54C154.489 44.3775 164.5 35.757 171.112 31.6785L172.317 31.4004L173.058 32.2347L172.78 33.2543C170.679 35.6643 167.435 38.7541 163.047 42.5237C158.289 46.6022 154.983 49.5993 153.129 51.5149C146.085 59.054 135.425 74.0394 121.15 96.4712C108.729 115.999 97.5132 129.81 87.5023 137.905C72.4242 150.017 54.04 156.073 32.3497 156.073C24.1927 156.073 17.3643 154.992 11.8645 152.829C3.95466 149.739 -0.000260316 144.764 -0.000260316 137.905ZM117.628 25.0046C102.611 25.0046 88.491 27.8781 75.2668 33.6251C58.2112 40.9788 49.6834 51.175 49.6834 64.2139C49.6834 69.3429 52.2788 73.1743 57.4696 75.7079C61.4864 77.7471 66.3064 78.7668 71.9298 78.7668C80.3958 78.7668 89.9741 76.2332 100.665 71.1659C113.209 65.2335 119.482 58.5596 119.482 51.1441C119.482 47.8072 118.153 45.2118 115.496 43.3579C113.147 41.6894 110.243 40.8552 106.783 40.8552C92.3842 40.8552 78.2948 47.0347 64.5143 59.3939C62.5987 61.5567 59.5398 64.5847 55.3377 68.4778L54.5035 68.6632L53.8546 67.9216L54.1327 66.902C57.2843 60.4753 64.9778 54.0794 77.2133 47.7145C88.9545 41.6585 98.6255 38.6305 106.226 38.6305C110.181 38.6305 113.611 39.5266 116.515 41.3186C119.976 43.4815 121.706 46.4477 121.706 50.2172C121.706 58.8686 115.341 66.4077 102.611 72.8344C91.7971 78.396 81.5699 81.1768 71.9298 81.1768C65.5649 81.1768 60.1269 79.8791 55.6158 77.2837C50.1778 74.1321 47.4588 69.5592 47.4588 63.5651C47.4588 58.3124 48.8183 53.7396 51.5373 49.8464C61.2392 36.066 77.306 27.2601 99.7378 23.4288C109.811 21.6985 128.936 20.8334 157.115 20.8334C164.16 20.8334 174.696 20.8952 188.723 21.0188C202.813 21.0806 213.38 21.1115 220.425 21.1115C226.048 21.1115 230.312 20.5244 233.216 19.3503C235.256 18.4852 238.809 16.1678 243.876 12.3983L244.71 12.0275L245.823 13.3252L245.452 14.2522C235.256 25.19 218.385 30.6589 194.841 30.6589C186.128 30.6589 173.213 29.732 156.095 27.8781C138.978 25.9624 126.155 25.0046 117.628 25.0046Z" fill="#9c6b25"/>
</svg>
