<svg width="344" height="118" viewBox="0 0 344 118" fill="none" xmlns="http://www.w3.org/2000/svg">
<path d="M45.1584 40H53.7584V40.4C52.3584 40.4 50.9184 40.36 50.9184 43.4V64.64C50.9184 67.68 52.3584 67.64 53.7584 67.64V68.04H45.1584V67.64C46.5584 67.64 47.9584 67.68 47.9584 64.64V43.4C47.9584 40.36 46.5584 40.4 45.1584 40.4V40ZM55.3147 49.68L61.0747 47.56V49.68C62.3947 48.36 63.9947 47.56 65.7547 47.56C68.2747 47.56 70.5147 49.2 71.9147 51.72C73.2747 49.2 75.5147 47.56 78.0347 47.56C82.2747 47.56 85.6747 52.12 85.6747 57.8V64.64C85.6747 67.68 87.1147 67.64 88.5147 67.64V68H79.8747V67.64C81.3147 67.64 82.7147 67.68 82.7147 64.64V57.8C82.7147 52.88 80.0347 48.88 76.7547 48.88C74.8747 48.88 73.2347 50.16 72.1147 52.16C72.9147 53.76 73.3947 55.72 73.3947 57.8V64.64C73.3947 67.68 74.7947 67.64 76.1947 67.64V68H67.5947V67.64C68.9947 67.64 70.4347 67.68 70.4347 64.64V57.8C70.4347 52.88 67.7547 48.88 64.4347 48.88C63.1947 48.88 62.0347 49.44 61.0747 50.44V64.64C61.0747 67.68 62.5147 67.64 63.9147 67.64V68H55.3147V67.64C56.7147 67.64 58.1147 67.68 58.1147 64.64V53.04C58.1147 50 56.9547 49.6 55.3147 50.04V49.68ZM92.3466 57.52H106.827C106.707 52.2 103.507 47.92 99.5866 47.92C97.2666 47.92 95.2266 49.44 93.9066 51.64C92.9466 53.36 92.4266 55.44 92.3466 57.52ZM102.267 67.68C94.5866 69.72 89.6266 63.84 89.4266 57.88V57.8C89.2666 52.36 93.1466 48.2 98.4666 47.6C104.707 46.92 109.467 51.76 109.427 57.88H92.3466C92.3866 62.44 94.8666 66.88 100.707 66.88C104.187 66.88 107.187 64.72 108.587 61.72L109.147 61.48C107.987 64.4 105.507 66.8 102.267 67.68ZM110.348 42.12L116.108 40V64.64C116.108 67.68 117.548 67.64 118.948 67.64V68H110.348V67.64C111.748 67.64 113.148 67.68 113.148 64.64V45.48C113.148 42.44 111.988 42.08 110.348 42.52V42.12ZM122.893 57.52H137.373C137.253 52.2 134.053 47.92 130.133 47.92C127.813 47.92 125.773 49.44 124.453 51.64C123.493 53.36 122.973 55.44 122.893 57.52ZM132.813 67.68C125.133 69.72 120.173 63.84 119.973 57.88V57.8C119.813 52.36 123.693 48.2 129.013 47.6C135.253 46.92 140.013 51.76 139.973 57.88H122.893C122.933 62.44 125.413 66.88 131.253 66.88C134.733 66.88 137.733 64.72 139.133 61.72L139.693 61.48C138.533 64.4 136.053 66.8 132.813 67.68ZM150.116 68C145.916 68 142.516 65.48 142.516 62.36L144.836 61.52C144.516 65.8 147.516 67.64 150.116 67.64C152.716 67.64 154.796 66.44 154.796 64C154.796 58.72 142.516 59.32 142.516 52.52C142.516 49.4 145.916 47.56 150.116 47.56C154.356 47.56 157.756 50.08 157.756 53.2L155.436 54.04C155.756 49.76 152.756 47.92 150.116 47.92C147.556 47.92 145.476 49.12 145.476 51.56C145.476 56.84 157.756 56.24 157.756 63.04C157.756 66.16 154.356 68 150.116 68ZM168.124 68C163.924 68 160.524 65.48 160.524 62.36L162.844 61.52C162.524 65.8 165.524 67.64 168.124 67.64C170.724 67.64 172.804 66.44 172.804 64C172.804 58.72 160.524 59.32 160.524 52.52C160.524 49.4 163.924 47.56 168.124 47.56C172.364 47.56 175.764 50.08 175.764 53.2L173.444 54.04C173.764 49.76 170.764 47.92 168.124 47.92C165.564 47.92 163.484 49.12 163.484 51.56C163.484 56.84 175.764 56.24 175.764 63.04C175.764 66.16 172.364 68 168.124 68ZM195.996 40.4V67.64C204.036 67.64 208.796 61.96 208.916 54C208.916 45.8 204.236 40.4 195.996 40.4ZM190.236 40H195.996C204.596 40 211.876 44.68 211.876 54C211.876 63.48 204.516 68 195.996 68H190.236V67.64C191.636 67.64 193.036 67.68 193.036 64.64V43.4C193.036 40.36 191.636 40.4 190.236 40.4V40ZM217.19 57.52H231.67C231.55 52.2 228.35 47.92 224.43 47.92C222.11 47.92 220.07 49.44 218.75 51.64C217.79 53.36 217.27 55.44 217.19 57.52ZM227.11 67.68C219.43 69.72 214.47 63.84 214.27 57.88V57.8C214.11 52.36 217.99 48.2 223.31 47.6C229.55 46.92 234.31 51.76 234.27 57.88H217.19C217.23 62.44 219.71 66.88 225.55 66.88C229.03 66.88 232.03 64.72 233.43 61.72L233.99 61.48C232.83 64.4 230.35 66.8 227.11 67.68ZM244.413 68C240.213 68 236.813 65.48 236.813 62.36L239.133 61.52C238.813 65.8 241.813 67.64 244.413 67.64C247.013 67.64 249.093 66.44 249.093 64C249.093 58.72 236.813 59.32 236.813 52.52C236.813 49.4 240.213 47.56 244.413 47.56C248.653 47.56 252.053 50.08 252.053 53.2L249.733 54.04C250.053 49.76 247.053 47.92 244.413 47.92C241.853 47.92 239.773 49.12 239.773 51.56C239.773 56.84 252.053 56.24 252.053 63.04C252.053 66.16 248.653 68 244.413 68ZM258.501 43C259.341 43 259.981 43.64 259.981 44.48C259.981 45.28 259.341 45.96 258.501 45.96C257.701 45.96 257.021 45.28 257.021 44.48C257.021 43.64 257.701 43 258.501 43ZM254.221 49.68L259.981 47.56V64.64C259.981 67.68 261.421 67.64 262.821 67.64V68H254.221V67.64C255.621 67.64 257.021 67.68 257.021 64.64V53.04C257.021 50 255.861 49.6 254.221 50.04V49.68ZM266.036 62.28C265.556 66.44 278.836 62.44 278.836 70C278.836 74.04 274.796 75.64 270.876 75.56C267.156 75.52 263.596 74 263.596 71.64C263.596 69.44 265.956 68.36 269.196 68.04C263.476 67.08 263.276 62.08 266.476 60.64C265.196 59.28 264.396 57.32 264.396 55.2C264.396 50.96 267.476 47.56 271.196 47.56C272.196 47.56 273.156 47.8 274.036 48.24C274.956 45.56 276.836 45.32 278.876 45.4L278.516 47.88C276.956 47.16 275.196 46.68 274.356 48.4C276.516 49.68 277.996 52.24 277.996 55.2C277.996 59.4 274.956 62.84 271.196 62.84C269.556 62.84 268.036 62.16 266.876 61.08C266.356 61.4 266.076 61.84 266.036 62.28ZM271.196 47.92C269.116 47.92 267.396 51.16 267.396 55.2C267.396 59.2 269.116 62.44 271.196 62.44C273.316 62.44 275.036 59.2 275.036 55.2C275.036 51.16 273.316 47.92 271.196 47.92ZM270.876 75.04C273.316 75.08 275.876 73.8 275.876 71.08C275.876 69.04 273.636 68.48 271.196 68.28C268.636 68.28 266.156 69.32 266.156 71.64C266.156 74.04 268.676 75.04 270.876 75.04ZM280.549 49.68L286.309 47.56V49.68C287.629 48.36 289.229 47.56 290.989 47.56C295.189 47.56 298.629 52.12 298.629 57.8V64.64C298.629 67.68 300.029 67.64 301.469 67.64V68H292.829V67.64C294.229 67.64 295.669 67.68 295.669 64.64V57.8C295.669 52.88 292.989 48.88 289.709 48.88C288.429 48.88 287.269 49.44 286.309 50.44V64.64C286.309 67.68 287.749 67.64 289.149 67.64V68H280.549V67.64C281.949 67.64 283.349 67.68 283.349 64.64V53.04C283.349 50 282.189 49.6 280.549 50.04V49.68ZM304.738 65.08C305.538 65.08 306.218 65.72 306.218 66.56C306.218 67.36 305.538 68.04 304.738 68.04C303.898 68.04 303.258 67.36 303.258 66.56C303.258 65.72 303.898 65.08 304.738 65.08ZM83.2239 77H101.304L101.744 81.52H101.384C100.664 77.56 98.9039 77.4 95.1839 77.4H88.9839V88.36H93.2639C97.6639 88.36 97.9439 86.08 97.9439 84.64H98.3439V92.44H97.9439C97.9439 91.04 97.6639 88.72 93.2639 88.72H88.9839V104.64H95.1839C98.9039 104.64 100.664 104.48 101.384 100.52H101.744L101.304 105H83.2239V104.64C84.6239 104.64 86.0239 104.68 86.0239 101.64V80.4C86.0239 77.36 84.6239 77.4 83.2239 77.4V77ZM103.375 79.12L109.135 77V101.64C109.135 104.68 110.575 104.64 111.975 104.64V105H103.375V104.64C104.775 104.64 106.175 104.68 106.175 101.64V82.48C106.175 79.44 105.015 79.08 103.375 79.52V79.12ZM117.583 80C118.423 80 119.063 80.64 119.063 81.48C119.063 82.28 118.423 82.96 117.583 82.96C116.783 82.96 116.103 82.28 116.103 81.48C116.103 80.64 116.783 80 117.583 80ZM113.303 86.68L119.063 84.56V101.64C119.063 104.68 120.503 104.64 121.903 104.64V105H113.303V104.64C114.703 104.64 116.103 104.68 116.103 101.64V90.04C116.103 87 114.943 86.6 113.303 87.04V86.68ZM131.767 84.56V84.92H127.727V91.8C127.727 97.52 127.367 104.64 131.767 104.64V105C124.807 105 124.767 100 124.767 92.04V84.92H121.967V84.56H124.767V82.48C124.767 79.44 123.607 79.08 121.967 79.52V79.12L127.727 77V84.56H131.767ZM134.788 94.52H149.268C149.148 89.2 145.948 84.92 142.028 84.92C139.708 84.92 137.668 86.44 136.348 88.64C135.388 90.36 134.868 92.44 134.788 94.52ZM144.708 104.68C137.028 106.72 132.068 100.84 131.868 94.88V94.8C131.708 89.36 135.588 85.2 140.908 84.6C147.148 83.92 151.908 88.76 151.868 94.88H134.788C134.828 99.44 137.308 103.88 143.148 103.88C146.628 103.88 149.628 101.72 151.028 98.72L151.588 98.48C150.428 101.4 147.948 103.8 144.708 104.68ZM166.115 77H174.715V77.4C173.315 77.4 171.875 77.36 171.875 80.4V104.64H174.795C179.555 104.64 183.395 103.76 184.275 99H184.635L184.195 105H166.115V104.64C167.515 104.64 168.915 104.68 168.915 101.64V80.4C168.915 77.36 167.515 77.4 166.115 77.4V77ZM190.044 80C190.884 80 191.524 80.64 191.524 81.48C191.524 82.28 190.884 82.96 190.044 82.96C189.244 82.96 188.564 82.28 188.564 81.48C188.564 80.64 189.244 80 190.044 80ZM185.764 86.68L191.524 84.56V101.64C191.524 104.68 192.964 104.64 194.364 104.64V105H185.764V104.64C187.164 104.64 188.564 104.68 188.564 101.64V90.04C188.564 87 187.404 86.6 185.764 87.04V86.68ZM211.301 87.92L205.101 105H204.701L198.501 87.92C197.381 84.92 195.861 84.92 194.461 84.92V84.56H203.061V84.92C201.661 84.92 200.461 85.12 201.501 87.92L206.261 100.8L210.941 87.92C211.941 85.08 210.741 84.92 209.341 84.92V84.56H215.341V84.92C213.941 84.92 212.421 84.92 211.301 87.92ZM220.591 80C221.431 80 222.071 80.64 222.071 81.48C222.071 82.28 221.431 82.96 220.591 82.96C219.791 82.96 219.111 82.28 219.111 81.48C219.111 80.64 219.791 80 220.591 80ZM216.311 86.68L222.071 84.56V101.64C222.071 104.68 223.511 104.64 224.911 104.64V105H216.311V104.64C217.711 104.64 219.111 104.68 219.111 101.64V90.04C219.111 87 217.951 86.6 216.311 87.04V86.68ZM226.233 86.68L231.993 84.56V86.68C233.313 85.36 234.913 84.56 236.673 84.56C240.873 84.56 244.313 89.12 244.313 94.8V101.64C244.313 104.68 245.713 104.64 247.153 104.64V105H238.513V104.64C239.913 104.64 241.353 104.68 241.353 101.64V94.8C241.353 89.88 238.673 85.88 235.393 85.88C234.113 85.88 232.953 86.44 231.993 87.44V101.64C231.993 104.68 233.433 104.64 234.833 104.64V105H226.233V104.64C227.633 104.64 229.033 104.68 229.033 101.64V90.04C229.033 87 227.873 86.6 226.233 87.04V86.68ZM250.274 99.28C249.794 103.44 263.074 99.44 263.074 107C263.074 111.04 259.034 112.64 255.114 112.56C251.394 112.52 247.834 111 247.834 108.64C247.834 106.44 250.194 105.36 253.434 105.04C247.714 104.08 247.514 99.08 250.714 97.64C249.434 96.28 248.634 94.32 248.634 92.2C248.634 87.96 251.714 84.56 255.434 84.56C256.434 84.56 257.394 84.8 258.274 85.24C259.194 82.56 261.074 82.32 263.114 82.4L262.754 84.88C261.194 84.16 259.434 83.68 258.594 85.4C260.754 86.68 262.234 89.24 262.234 92.2C262.234 96.4 259.194 99.84 255.434 99.84C253.794 99.84 252.274 99.16 251.114 98.08C250.594 98.4 250.314 98.84 250.274 99.28ZM255.434 84.92C253.354 84.92 251.634 88.16 251.634 92.2C251.634 96.2 253.354 99.44 255.434 99.44C257.554 99.44 259.274 96.2 259.274 92.2C259.274 88.16 257.554 84.92 255.434 84.92ZM255.114 112.04C257.554 112.08 260.114 110.8 260.114 108.08C260.114 106.04 257.874 105.48 255.434 105.28C252.874 105.28 250.394 106.32 250.394 108.64C250.394 111.04 252.914 112.04 255.114 112.04ZM266.633 102.08C267.433 102.08 268.113 102.72 268.113 103.56C268.113 104.36 267.433 105.04 266.633 105.04C265.793 105.04 265.153 104.36 265.153 103.56C265.153 102.72 265.793 102.08 266.633 102.08Z" fill="#1D1B18"/>
<path d="M9.17175 82.5757C9.17175 81.1708 9.61541 80.0062 10.5027 79.0819C11.3901 78.1206 12.5177 77.64 13.8856 77.64C14.8469 77.64 15.6603 78.0282 16.3258 78.8046C17.0282 79.581 17.3795 80.4499 17.3795 81.4111C17.3795 82.2245 17.0837 83.0564 16.4922 83.9067C15.9376 84.7571 15.2536 85.1822 14.4402 85.1822C13.2202 85.1822 12.0925 84.8125 11.0573 84.0731C12.2034 89.434 18.0819 92.1144 28.6928 92.1144C36.9005 92.1144 43.8512 90.044 49.5449 85.9032C53.6118 82.9824 58.5845 77.5291 64.463 69.5432L77.2182 52.185C80.3608 47.9332 85.8141 42.0362 93.5782 34.494C101.601 26.619 107.59 21.4615 111.546 19.0213L112.267 18.855L112.711 19.3541L112.545 19.9641C111.288 21.406 109.347 23.2546 106.722 25.5099C103.875 27.95 101.897 29.7431 100.788 30.8893C96.5729 35.3998 90.1953 44.3655 81.6548 57.7862C74.2235 69.4693 67.5131 77.7324 61.5237 82.5757C52.5026 89.8222 41.5035 93.4454 28.5265 93.4454C23.6462 93.4454 19.5608 92.7984 16.2703 91.5044C11.5379 89.6558 9.17175 86.6796 9.17175 82.5757ZM79.5474 15.0284C70.5633 15.0284 62.1153 16.7476 54.2033 20.1859C43.9991 24.5856 38.897 30.6859 38.897 38.487C38.897 41.5556 40.4498 43.8479 43.5555 45.3637C45.9586 46.5838 48.8424 47.1938 52.2068 47.1938C57.272 47.1938 63.0026 45.678 69.3987 42.6463C76.904 39.097 80.6566 35.104 80.6566 30.6674C80.6566 28.671 79.8617 27.1181 78.2719 26.009C76.867 25.0108 75.1293 24.5116 73.0589 24.5116C64.4445 24.5116 56.0149 28.2088 47.7702 35.6032C46.6241 36.8972 44.794 38.7088 42.2799 41.038L41.7808 41.1489L41.3926 40.7053L41.559 40.0952C43.4445 36.2502 48.0475 32.4236 55.3679 28.6155C62.3926 24.9923 68.1786 23.1807 72.7261 23.1807C75.0923 23.1807 77.1443 23.7167 78.8819 24.7889C80.9524 26.0829 81.9876 27.8576 81.9876 30.1129C81.9876 35.2889 78.1795 39.7995 70.5633 43.6445C64.0933 46.972 57.9744 48.6357 52.2068 48.6357C48.3988 48.6357 45.1452 47.8593 42.4463 46.3065C39.1928 44.4209 37.566 41.685 37.566 38.0988C37.566 34.9562 38.3794 32.2202 40.0062 29.891C45.8107 21.6463 55.4234 16.3779 68.8441 14.0856C74.8705 13.0504 86.3133 12.5328 103.172 12.5328C107.387 12.5328 113.691 12.5698 122.083 12.6437C130.513 12.6807 136.835 12.6992 141.05 12.6992C144.414 12.6992 146.965 12.3479 148.703 11.6455C149.923 11.1279 152.049 9.74144 155.081 7.48616L155.58 7.26433L156.245 8.04074L156.023 8.59531C149.923 15.1393 139.83 18.4113 125.744 18.4113C120.531 18.4113 112.804 17.8567 102.562 16.7476C92.3212 15.6015 84.6495 15.0284 79.5474 15.0284Z" fill="#1D1B18"/>
</svg>
