<svg width="412" height="40" viewBox="0 0 412 40" fill="none" xmlns="http://www.w3.org/2000/svg">
<path d="M404.767 13.0684L406.408 15.0657C406.408 15.0657 406.06 18.221 399.516 19.1404C399.516 19.1404 404.849 17.6224 404.767 13.0684Z" fill="#464238"/>
<path d="M404.767 26.1346L406.408 24.1372C406.408 24.1372 406.06 20.9811 399.516 20.0625C399.516 20.0625 404.849 21.5813 404.767 26.1346Z" fill="#464238"/>
<path d="M412.003 19.601L409.243 18.2822L402.68 19.601L409.243 20.9214L412.003 19.601Z" fill="#464238"/>
<path d="M196.44 38.4396L193.365 38.1383C193.365 38.1383 190.993 35.1765 195.747 28.8701C195.747 28.8701 192.523 34.6605 196.44 38.4396Z" fill="#464238"/>
<path d="M185.398 27.3975L185.7 30.4727C185.7 30.4727 188.661 32.8448 194.968 28.0907C194.968 28.0907 189.178 31.3154 185.398 27.3975Z" fill="#464238"/>
<path d="M184.805 39.0304L188.253 37.812L192.685 31.1504L186.023 35.5812L184.805 39.0304Z" fill="#464238"/>
<path d="M191.327 33.1045L190.75 32.5272C199.349 23.9287 210.78 19.1934 222.939 19.1934H406.703V20.0099H222.94C210.999 20.0108 199.772 24.6611 191.327 33.1045Z" fill="#464238"/>
<path d="M7.23507 25.9607L5.59375 23.9634C5.59375 23.9634 5.94243 20.8073 12.4865 19.8887C12.4865 19.8887 7.15341 21.4075 7.23507 25.9607Z" fill="#464238"/>
<path d="M7.23507 12.8955L5.59375 14.8929C5.59375 14.8929 5.94243 18.0481 12.4865 18.9676C12.4865 18.9676 7.15341 17.4487 7.23507 12.8955Z" fill="#464238"/>
<path d="M0 19.428L2.76085 20.7476L9.32367 19.428L2.76085 18.1084L0 19.428Z" fill="#464238"/>
<path d="M215.562 0.589844L218.638 0.891151C218.638 0.891151 221.01 3.85288 216.256 10.1593C216.256 10.1593 219.48 4.36896 215.562 0.589844Z" fill="#464238"/>
<path d="M226.609 11.6329L226.307 8.55763C226.307 8.55763 223.345 6.18549 217.039 10.9396C217.039 10.9396 222.829 7.71494 226.609 11.6329Z" fill="#464238"/>
<path d="M227.2 0L223.752 1.21834L219.32 7.87996L225.982 3.44922L227.2 0Z" fill="#464238"/>
<path d="M189.06 19.8362H5.29688V19.0196H189.06C201.002 19.0196 212.229 14.3692 220.672 5.92578L221.25 6.5031C212.652 15.1008 201.22 19.8362 189.06 19.8362Z" fill="#464238"/>
</svg>
