<svg width="80" height="44" viewBox="0 0 80 44" fill="none" xmlns="http://www.w3.org/2000/svg">
<path d="M62.1697 41.2959C61.6338 41.6004 61.0917 41.8684 60.5436 42.0937C58.6375 42.8854 56.7192 43.2874 54.7887 43.2874C53.1748 43.2874 51.5853 43.0316 50.0263 42.5139C48.4672 41.9963 46.9691 41.2655 45.538 40.3094C44.1068 39.3593 42.7732 38.2205 41.5308 36.8929C40.2885 35.5714 39.1618 34.1037 38.157 32.4838L24.8991 11.1689C24.7408 10.9558 24.5703 10.7366 24.3815 10.5113C24.1988 10.2859 24.0222 10.0423 23.8639 9.77436L23.3097 8.98267C22.4388 7.81949 21.5375 6.72939 20.6119 5.70628C19.6862 4.68926 18.73 3.80013 17.7556 3.04497C16.7752 2.28982 15.7704 1.6869 14.7412 1.23624C13.712 0.785584 12.6522 0.560265 11.5682 0.560265C10.1371 0.560265 8.65729 1.00483 7.12262 1.88787C5.58795 2.777 4.02889 4.27514 2.43941 6.39445L0.015625 5.00592C1.81216 3.2581 3.6696 1.99143 5.57575 1.19364C7.4819 0.39586 9.38807 0 11.2942 0C12.9081 0 14.4975 0.25579 16.0565 0.773435C17.6156 1.29108 19.1076 2.02187 20.5205 2.97799C21.9334 3.92803 23.2731 5.07291 24.5277 6.4127C25.7822 7.74639 26.915 9.22626 27.9198 10.8401L39.9901 30.0965L40.666 31.2049C41.6465 32.6847 42.6697 34.122 43.7415 35.5105C44.8133 36.899 45.9339 38.1292 47.097 39.201C48.2602 40.2728 49.466 41.1315 50.7083 41.7831C51.9507 42.4287 53.2357 42.7575 54.5572 42.7575C55.9884 42.7575 57.456 42.3069 58.9664 41.4055C59.5632 41.0523 60.1661 40.6017 60.7811 40.0597L62.1819 41.2837L62.1697 41.2959Z" fill="#464238"/>
<path d="M17.7617 2.05232C18.322 1.72956 18.8945 1.44941 19.4669 1.20581C21.3731 0.41412 23.2793 0.012207 25.1854 0.012207C26.7992 0.012207 28.3887 0.26796 29.9477 0.785605C31.5067 1.30325 32.9987 2.03404 34.4116 2.99016C35.8245 3.9402 37.1643 5.08511 38.4188 6.4249C39.6734 7.7586 40.8061 9.23847 41.8109 10.8523L53.8812 30.1087L54.5572 31.2171C55.5377 32.697 56.5608 34.1342 57.6326 35.5227C58.7044 36.9112 59.825 38.1414 60.9882 39.2132C62.1513 40.285 63.3572 41.1437 64.5995 41.7953C65.8419 42.4409 67.1268 42.7697 68.4483 42.7697C69.8795 42.7697 71.3472 42.3191 72.8575 41.4178C74.3678 40.5164 75.9268 39.0244 77.5407 36.9295L80.001 38.2814C78.1983 40.0292 76.347 41.2959 74.4408 42.0937C72.5347 42.8854 70.6164 43.2874 68.6859 43.2874C67.072 43.2874 65.4826 43.0316 63.9236 42.5139C62.3645 41.9963 60.8664 41.2655 59.4353 40.3094C58.0041 39.3593 56.6704 38.2205 55.428 36.8929C54.1857 35.5714 53.0591 34.1037 52.0542 32.4838L38.7964 11.169C38.6381 10.9558 38.4676 10.7366 38.2788 10.5113C38.0961 10.2859 37.9194 10.0423 37.7611 9.77437L37.207 8.98269C36.3361 7.81951 35.4347 6.7294 34.5091 5.70629C33.5834 4.68927 32.6273 3.80014 31.6529 3.04499C30.6724 2.28984 29.6676 1.68691 28.6384 1.23626C27.6092 0.785599 26.5495 0.56028 25.4655 0.56028C24.0344 0.56028 22.5545 1.00484 21.0198 1.88788C20.4047 2.2411 19.7897 2.69178 19.1685 3.23987L17.7678 2.03404L17.7617 2.05232Z" fill="#464238"/>
<path d="M17.8393 41.2961C18.3753 41.6006 18.9173 41.8686 19.4654 42.0939C21.3715 42.8856 23.2898 43.2875 25.2204 43.2875C26.8342 43.2875 28.4236 43.0318 29.9827 42.5141C31.5417 41.9965 33.0399 41.2657 34.471 40.3095C35.9022 39.3595 37.2358 38.2207 38.4782 36.8931C39.7205 35.5716 40.8472 34.1039 41.852 32.4839L55.1098 11.1691C55.2681 10.956 55.4387 10.7368 55.6275 10.5114C55.8102 10.2861 55.9868 10.0425 56.1451 9.77454L56.6993 8.98286C57.5702 7.81968 58.4715 6.72957 59.3971 5.70646C60.3228 4.68944 61.279 3.80031 62.2534 3.04516C63.2338 2.29 64.2387 1.68708 65.2679 1.23642C66.2971 0.785767 67.3567 0.560448 68.4407 0.560448C69.8718 0.560448 71.3517 1.00501 72.8864 1.88805C74.4211 2.77718 75.98 4.27533 77.5695 6.39463L79.9934 5.0061C78.1968 3.25829 76.3394 1.99161 74.4333 1.19383C72.5271 0.396043 70.6209 0.000183105 68.7148 0.000183105C67.101 0.000183105 65.5114 0.255973 63.9524 0.773618C62.3934 1.29126 60.9014 2.02205 59.4885 2.97818C58.0756 3.92821 56.7359 5.07309 55.4813 6.41288C54.2268 7.74658 53.094 9.22645 52.0892 10.8403L40.019 30.0967L39.343 31.2051C38.3625 32.6849 37.3394 34.1222 36.2675 35.5107C35.1957 36.8992 34.0751 38.1293 32.912 39.2012C31.7488 40.273 30.5429 41.1317 29.3006 41.7833C28.0582 42.4288 26.7733 42.7577 25.4518 42.7577C24.0206 42.7577 22.553 42.307 21.0427 41.4057C20.4458 41.0525 19.843 40.6018 19.2279 40.0598L17.8271 41.2839L17.8393 41.2961Z" fill="#464238"/>
<path d="M62.2393 2.05251C61.679 1.72974 61.1066 1.44959 60.5341 1.206C58.6279 0.414303 56.7218 0.0123901 54.8156 0.0123901C53.2018 0.0123901 51.6123 0.268143 50.0533 0.785788C48.4943 1.30343 47.0022 2.03422 45.5893 2.99035C44.1765 3.94038 42.8367 5.0853 41.5822 6.42509C40.3277 7.75878 39.195 9.23865 38.1901 10.8525L26.1198 30.1089L25.4438 31.2173C24.4633 32.6971 23.4402 34.1344 22.3684 35.5229C21.2965 36.9114 20.1761 38.1416 19.0129 39.2134C17.8497 40.2852 16.6439 41.1439 15.4015 41.7955C14.1592 42.441 12.8742 42.7699 11.5527 42.7699C10.1215 42.7699 8.6538 42.3193 7.1435 41.4179C5.63319 40.5166 4.0742 39.0246 2.46036 36.9296L0 38.2816C1.80262 40.0294 3.65397 41.2961 5.56013 42.0939C7.46628 42.8856 9.38466 43.2876 11.3152 43.2876C12.929 43.2876 14.5185 43.0318 16.0775 42.5141C17.6365 41.9965 19.1346 41.2657 20.5658 40.3096C21.9969 39.3595 23.3307 38.2207 24.573 36.8931C25.8153 35.5716 26.9419 34.1039 27.9468 32.484L41.2046 11.1691C41.3629 10.956 41.5335 10.7368 41.7222 10.5115C41.9049 10.2861 42.0815 10.0425 42.2399 9.77456L42.7941 8.98287C43.6649 7.81969 44.5663 6.72959 45.492 5.70648C46.4176 4.68946 47.3737 3.80033 48.3481 3.04517C49.3286 2.29002 50.3335 1.68709 51.3627 1.23644C52.3919 0.785782 53.4515 0.560463 54.5355 0.560463C55.9667 0.560463 57.4465 1.00502 58.9812 1.88807C59.5963 2.24128 60.2113 2.69196 60.8325 3.24006L62.2332 2.03422L62.2393 2.05251Z" fill="#464238"/>
</svg>
