<svg width="894" height="252" viewBox="0 0 894 252" fill="none" xmlns="http://www.w3.org/2000/svg">
<path d="M355.464 60.9739C352.483 62.1779 349.53 62.7799 346.606 62.7799C343.682 62.7799 340.729 62.1779 337.748 60.9739C334.824 59.7699 332.158 57.9066 329.75 55.3839C327.342 52.8613 325.364 49.6506 323.816 45.7519C322.325 41.8533 321.58 37.2093 321.58 31.8199C321.58 26.4306 322.325 21.8153 323.816 17.9739C325.364 14.0753 327.342 10.8646 329.75 8.34192C332.158 5.81925 334.853 3.95592 337.834 2.75192C340.815 1.54792 343.739 0.945917 346.606 0.945917C349.53 0.945917 352.483 1.54792 355.464 2.75192C358.445 3.95592 361.14 5.81925 363.548 8.34192C365.956 10.8646 367.905 14.0753 369.396 17.9739C370.944 21.8153 371.718 26.4306 371.718 31.8199C371.718 37.2093 370.944 41.8533 369.396 45.7519C367.905 49.6506 365.956 52.8613 363.548 55.3839C361.14 57.9066 358.445 59.7699 355.464 60.9739ZM339.898 58.9099C342.019 60.5153 344.255 61.3179 346.606 61.3179C348.957 61.3179 351.193 60.5439 353.314 58.9959C355.493 57.3906 357.413 55.2406 359.076 52.5459C360.739 49.7939 362.057 46.6406 363.032 43.0859C364.007 39.5313 364.494 35.7759 364.494 31.8199C364.494 27.5199 364.007 23.5639 363.032 19.9519C362.057 16.3399 360.739 13.2439 359.076 10.6639C357.413 8.08392 355.493 6.07725 353.314 4.64392C351.193 3.15325 348.957 2.40792 346.606 2.40792C344.255 2.40792 342.019 3.15325 339.898 4.64392C337.777 6.07725 335.885 8.08392 334.222 10.6639C332.559 13.2439 331.241 16.3399 330.266 19.9519C329.291 23.5639 328.804 27.5199 328.804 31.8199C328.804 35.7759 329.291 39.5313 330.266 43.0859C331.241 46.6406 332.559 49.7939 334.222 52.5459C335.885 55.2406 337.777 57.3619 339.898 58.9099ZM411.586 61.9199C410.783 62.4359 409.866 62.6939 408.834 62.6939C407.056 62.6939 405.68 62.0346 404.706 60.7159C403.731 59.3399 403.186 57.4193 403.072 54.9539C402.67 55.9286 402.126 56.9033 401.438 57.8779C400.807 58.7953 400.062 59.6266 399.202 60.3719C398.342 61.0599 397.367 61.6046 396.278 62.0059C395.188 62.4646 394.013 62.6939 392.752 62.6939C390 62.6939 387.563 62.1493 385.442 61.0599C383.378 59.9133 381.629 58.3939 380.196 56.5019C378.82 54.5526 377.759 52.3166 377.014 49.7939C376.326 47.2713 375.982 44.5766 375.982 41.7099C375.982 38.3273 376.498 35.2599 377.53 32.5079C378.562 29.6986 379.909 27.2906 381.572 25.2839C383.292 23.2773 385.212 21.7293 387.334 20.6399C389.455 19.5506 391.634 19.0059 393.87 19.0059C395.59 19.0059 397.338 19.4073 399.116 20.2099C400.893 20.9553 402.212 22.1593 403.072 23.8219V10.6639C403.072 7.10925 402.068 5.07392 400.062 4.55792V3.95592L409.866 -8.05855e-05H410.21V33.2819C410.21 39.1299 410.181 43.1146 410.124 45.2359C410.124 47.3573 410.124 48.7906 410.124 49.5359C410.124 51.8293 410.152 53.7499 410.21 55.2979C410.324 56.7886 410.496 57.7919 410.726 58.3079C411.012 58.7666 411.414 58.9959 411.93 58.9959C412.388 58.9959 412.818 58.7953 413.22 58.3939C413.678 57.9926 414.08 57.5339 414.424 57.0179C414.825 56.4446 415.198 55.7853 415.542 55.0399L416.316 55.2979C416.029 55.9859 415.656 56.7599 415.198 57.6199C414.796 58.4799 414.28 59.2826 413.65 60.0279C413.076 60.7733 412.388 61.4039 411.586 61.9199ZM388.022 58.6519C389.283 59.8559 390.917 60.4579 392.924 60.4579C394.529 60.4579 395.962 60.1139 397.224 59.4259C398.485 58.7379 399.546 57.8779 400.406 56.8459C401.266 55.8139 401.925 54.6673 402.384 53.4059C402.842 52.1446 403.072 50.9119 403.072 49.7079V29.1539C403.072 28.0646 402.871 26.9753 402.47 25.8859C402.126 24.7966 401.552 23.8219 400.75 22.9619C400.004 22.1019 399.03 21.4139 397.826 20.8979C396.622 20.3246 395.217 20.0379 393.612 20.0379C392.064 20.0379 390.63 20.6113 389.312 21.7579C388.05 22.8473 386.961 24.3666 386.044 26.3159C385.126 28.2653 384.41 30.5586 383.894 33.1959C383.378 35.8333 383.12 38.6713 383.12 41.7099C383.12 43.7739 383.234 45.9239 383.464 48.1599C383.75 50.3386 384.266 52.3453 385.012 54.1799C385.757 56.0146 386.76 57.5053 388.022 58.6519ZM443.9 61.3179C442.065 62.2353 439.858 62.6939 437.278 62.6939C435.156 62.6939 433.064 62.2353 431 61.3179C428.936 60.4006 427.072 59.0246 425.41 57.1899C423.804 55.3553 422.486 53.0906 421.454 50.3959C420.422 47.6439 419.906 44.4619 419.906 40.8499C419.906 37.9833 420.307 35.2313 421.11 32.5939C421.912 29.9566 423.088 27.6346 424.636 25.6279C426.184 23.6213 428.076 22.0159 430.312 20.8119C432.605 19.6079 435.185 19.0059 438.052 19.0059C440.861 19.0059 443.24 19.6366 445.19 20.8979C447.139 22.1593 448.716 23.8219 449.92 25.8859C451.124 27.9499 451.984 30.2719 452.5 32.8519C453.073 35.3746 453.36 37.9259 453.36 40.5059H427.044C427.044 42.7993 427.216 45.0353 427.56 47.2139C427.961 49.3926 428.592 51.3419 429.452 53.0619C430.312 54.7819 431.458 56.1579 432.892 57.1899C434.382 58.2219 436.246 58.7379 438.482 58.7379C440.431 58.7379 442.151 58.5086 443.642 58.0499C445.19 57.5339 446.537 56.9033 447.684 56.1579C448.83 55.4126 449.805 54.6099 450.608 53.7499C451.41 52.8326 452.041 51.9726 452.5 51.1699C452.557 51.1699 452.614 51.1986 452.672 51.2559C452.729 51.3133 452.815 51.3706 452.93 51.4279L453.274 51.5999C452.872 52.2879 452.299 53.2626 451.554 54.5239C450.808 55.7279 449.805 56.9606 448.544 58.2219C447.282 59.4259 445.734 60.4579 443.9 61.3179ZM427.56 33.1099C427.216 35.4033 427.044 37.5819 427.044 39.6459H446.136C446.136 37.5819 446.078 35.4033 445.964 33.1099C445.849 30.7593 445.505 28.6093 444.932 26.6599C444.416 24.7106 443.556 23.1053 442.352 21.8439C441.148 20.5253 439.456 19.8659 437.278 19.8659C435.271 19.8659 433.608 20.5253 432.29 21.8439C430.971 23.1053 429.91 24.7393 429.108 26.7459C428.362 28.6953 427.846 30.8166 427.56 33.1099ZM468.725 59.3399C469.298 60.3146 470.129 60.9453 471.219 61.2319V61.8339H457.115V61.2319C458.204 60.9453 459.035 60.3146 459.609 59.3399C460.239 58.3653 460.555 56.9606 460.555 55.1259V29.6699C460.555 26.0579 459.551 24.0226 457.545 23.5639V22.9619L467.349 19.0059H467.779V25.5419C468.581 23.5353 469.728 21.9586 471.219 20.8119C472.767 19.6079 474.601 19.0059 476.723 19.0059C478.557 19.0059 480.163 19.3499 481.539 20.0379C482.972 20.7259 484.147 21.6146 485.065 22.7039C486.039 23.7933 486.756 24.9686 487.215 26.2299C487.731 27.4913 487.989 28.6953 487.989 29.8419C487.817 29.9566 487.53 30.1859 487.129 30.5299C486.727 30.8739 486.297 31.2179 485.839 31.5619C485.323 31.9633 484.778 32.4219 484.205 32.9379C484.205 32.2499 484.147 31.1893 484.033 29.7559C483.918 28.2653 483.603 26.8033 483.087 25.3699C482.628 23.8793 481.911 22.5893 480.937 21.4999C480.019 20.3533 478.701 19.7799 476.981 19.7799C474.171 19.7799 471.935 20.8979 470.273 23.1339C468.61 25.3699 467.779 28.2366 467.779 31.7339V55.1259C467.779 56.9606 468.094 58.3653 468.725 59.3399ZM501.898 59.3399C502.472 60.3146 503.303 60.9453 504.392 61.2319V61.8339H490.288V61.2319C491.378 60.9453 492.209 60.3146 492.782 59.3399C493.413 58.3653 493.728 56.9606 493.728 55.1259V29.4119C493.728 27.5773 493.499 26.2299 493.04 25.3699C492.582 24.4526 491.808 23.8506 490.718 23.5639V22.9619L500.522 19.0059H500.952V26.7459C501.296 25.7713 501.841 24.8253 502.586 23.9079C503.332 22.9333 504.192 22.1019 505.166 21.4139C506.141 20.6686 507.173 20.0953 508.262 19.6939C509.409 19.2353 510.527 19.0059 511.616 19.0059C514.77 19.0059 517.264 19.4933 519.098 20.4679C520.933 21.3853 522.309 22.5606 523.226 23.9939C524.144 25.4273 524.717 27.0039 524.946 28.7239C525.176 30.4439 525.29 32.0493 525.29 33.5399V55.1259C525.29 56.9606 525.606 58.3653 526.236 59.3399C526.867 60.3146 527.698 60.9453 528.73 61.2319V61.8339H514.712V61.2319C515.744 60.9453 516.576 60.3146 517.206 59.3399C517.837 58.3653 518.152 56.9606 518.152 55.1259V31.4759C518.152 30.0426 517.952 28.5806 517.55 27.0899C517.149 25.5419 516.432 24.1946 515.4 23.0479C514.426 21.8439 512.935 21.2419 510.928 21.2419C507.718 21.2419 505.367 22.1593 503.876 23.9939C502.443 25.8286 501.526 28.0933 501.124 30.7879C500.78 33.4253 500.608 36.1199 500.608 38.8719C500.608 39.9613 500.666 41.8246 500.78 44.4619C500.895 47.0993 500.952 50.6539 500.952 55.1259C500.952 56.9606 501.268 58.3653 501.898 59.3399Z" fill="white"/>
<path d="M243.485 218.328C252.465 218.328 263.739 213.44 277.307 203.662C292.971 192.388 302.199 186.303 304.993 185.405L306.19 186.751C305.492 191.341 296.014 198.524 277.756 208.301C260.097 217.78 248.374 222.519 242.588 222.519C238.397 222.519 234.506 220.922 230.915 217.73C227.323 214.437 225.527 210.696 225.527 206.506C225.527 190.044 248.773 156.023 295.265 104.442C335.971 59.3469 367.498 28.4186 389.846 11.6574C365.902 17.9429 340.56 35.7017 313.822 64.9339L221.187 166.399C205.224 183.758 195.297 194.334 191.406 198.125C178.736 210.496 167.262 219.077 156.986 223.865C154.292 221.97 152.945 219.126 152.945 215.335C152.945 196.279 176.191 160.413 222.684 107.735C262.99 62.0406 295.415 30.0149 319.958 11.6574C296.213 17.9429 266.831 39.6924 231.813 76.9061C202.381 109.331 172.949 141.756 143.517 174.181C109.995 207.503 81.511 224.165 58.0654 224.165C49.8843 224.165 42.3019 221.97 35.3181 217.58C27.4364 212.492 23.4955 206.007 23.4955 198.125C23.4955 188.248 28.1348 183.309 37.4133 183.309C39.8077 183.309 41.853 184.357 43.549 186.452C45.3449 188.547 46.2428 190.792 46.2428 193.187C46.2428 200.27 42.3019 203.812 34.4202 203.812C33.1232 203.812 31.7264 203.413 30.2299 202.615C30.5292 208.301 33.8715 212.791 40.2567 216.083C45.4446 218.777 51.2312 220.124 57.6164 220.124C78.8671 220.124 105.206 205.259 136.633 175.527C142.52 169.841 170.405 139.711 220.289 85.1371C253.812 48.4222 280.599 25.0264 300.653 14.9498C312.426 8.96368 321.155 6.0205 326.842 6.12027H328.189L329.386 7.76645L328.788 9.41264C303.746 34.6541 274.563 68.326 241.241 110.428C211.31 148.241 184.672 184.307 161.326 218.628C176.391 206.655 194.599 189.096 215.949 165.95L308.884 64.9339C335.722 35.9012 361.811 17.1447 387.152 8.66437C392.34 6.9683 395.533 6.12027 396.73 6.12027C398.326 6.12027 399.125 6.71888 399.125 7.91611C399.125 7.91611 398.975 8.41495 398.676 9.41264C383.311 25.0763 353.63 59.9954 309.632 114.17C261.244 173.732 237.05 207.054 237.05 214.138C237.05 216.931 239.195 218.328 243.485 218.328Z" fill="white"/>
<path d="M356.496 143.716C353.859 145.092 350.562 145.78 346.606 145.78C343.682 145.78 340.729 145.178 337.748 143.974C334.824 142.77 332.158 140.907 329.75 138.384C327.342 135.861 325.364 132.651 323.816 128.752C322.325 124.853 321.58 120.209 321.58 114.82C321.58 109.431 322.325 104.815 323.816 100.974C325.364 97.0753 327.342 93.8646 329.75 91.3419C332.158 88.8193 334.853 86.9559 337.834 85.7519C340.815 84.5479 343.739 83.9459 346.606 83.9459C348.154 83.9459 349.501 84.0606 350.648 84.2899C351.795 84.5193 352.855 84.8346 353.83 85.2359C354.805 85.6373 355.722 86.1246 356.582 86.6979C357.499 87.2139 358.474 87.8159 359.506 88.5039C360.595 89.2493 361.513 89.6219 362.258 89.6219C362.659 89.6219 363.061 89.4786 363.462 89.1919C363.863 88.8479 364.207 88.4753 364.494 88.0739C364.838 87.6153 365.096 87.1279 365.268 86.6119C365.497 86.0959 365.612 85.6659 365.612 85.3219H366.472V108.112H365.182C365.182 104.328 364.637 101.031 363.548 98.2219C362.516 95.3553 361.14 92.9759 359.42 91.0839C357.7 89.1919 355.722 87.7873 353.486 86.8699C351.25 85.8953 348.957 85.4079 346.606 85.4079C344.37 85.4079 342.191 86.1533 340.07 87.6439C338.006 89.0773 336.143 91.0839 334.48 93.6639C332.817 96.2439 331.47 99.3399 330.438 102.952C329.463 106.564 328.976 110.52 328.976 114.82C328.976 118.776 329.377 122.531 330.18 126.086C331.04 129.641 332.244 132.794 333.792 135.546C335.34 138.241 337.203 140.391 339.382 141.996C341.561 143.544 343.969 144.318 346.606 144.318C350.333 144.318 353.429 143.659 355.894 142.34C358.359 141.021 360.337 139.473 361.828 137.696C363.376 135.919 364.494 134.141 365.182 132.364C365.927 130.587 366.415 129.239 366.644 128.322C366.816 128.437 367.017 128.551 367.246 128.666C367.475 128.723 367.647 128.809 367.762 128.924C367.533 130.013 367.045 131.504 366.3 133.396C365.555 135.288 364.379 137.151 362.774 138.986C361.169 140.821 359.076 142.397 356.496 143.716ZM394.681 144.318C392.559 145.235 390.409 145.694 388.231 145.694C386.052 145.694 383.931 145.235 381.867 144.318C379.803 143.401 377.939 142.025 376.277 140.19C374.671 138.355 373.353 136.091 372.321 133.396C371.346 130.644 370.859 127.462 370.859 123.85C370.859 120.238 371.346 117.085 372.321 114.39C373.353 111.638 374.671 109.345 376.277 107.51C377.939 105.675 379.803 104.299 381.867 103.382C383.931 102.465 386.052 102.006 388.231 102.006C390.409 102.006 392.531 102.465 394.595 103.382C396.716 104.299 398.579 105.675 400.185 107.51C401.847 109.345 403.166 111.638 404.141 114.39C405.115 117.085 405.603 120.238 405.603 123.85C405.603 127.462 405.115 130.644 404.141 133.396C403.166 136.091 401.847 138.355 400.185 140.19C398.579 142.025 396.745 143.401 394.681 144.318ZM383.931 143.114C385.192 144.146 386.625 144.662 388.231 144.662C389.836 144.662 391.269 144.146 392.531 143.114C393.792 142.082 394.853 140.649 395.713 138.814C396.63 136.979 397.318 134.801 397.777 132.278C398.235 129.698 398.465 126.889 398.465 123.85C398.465 120.754 398.235 117.945 397.777 115.422C397.318 112.842 396.63 110.635 395.713 108.8C394.853 106.908 393.792 105.446 392.531 104.414C391.269 103.382 389.836 102.866 388.231 102.866C386.625 102.866 385.192 103.382 383.931 104.414C382.669 105.446 381.58 106.908 380.663 108.8C379.803 110.635 379.143 112.842 378.685 115.422C378.226 117.945 377.997 120.754 377.997 123.85C377.997 126.889 378.226 129.698 378.685 132.278C379.143 134.801 379.803 136.979 380.663 138.814C381.58 140.649 382.669 142.082 383.931 143.114ZM420.854 142.34C421.427 143.315 422.258 143.945 423.348 144.232V144.834H409.244V144.232C410.333 143.945 411.164 143.315 411.738 142.34C412.368 141.365 412.684 139.961 412.684 138.126V112.412C412.684 110.577 412.454 109.23 411.996 108.37C411.537 107.453 410.763 106.851 409.674 106.564V105.962L419.478 102.006H419.908V109.746C420.252 108.771 420.796 107.825 421.542 106.908C422.287 105.933 423.147 105.102 424.122 104.414C425.096 103.669 426.128 103.095 427.218 102.694C428.364 102.235 429.482 102.006 430.572 102.006C433.725 102.006 436.219 102.493 438.054 103.468C439.888 104.385 441.264 105.561 442.182 106.994C443.099 108.427 443.672 110.004 443.902 111.724C444.131 113.444 444.246 115.049 444.246 116.54V138.126C444.246 139.961 444.561 141.365 445.192 142.34C445.822 143.315 446.654 143.945 447.686 144.232V144.834H433.668V144.232C434.7 143.945 435.531 143.315 436.162 142.34C436.792 141.365 437.108 139.961 437.108 138.126V114.476C437.108 113.043 436.907 111.581 436.506 110.09C436.104 108.542 435.388 107.195 434.356 106.048C433.381 104.844 431.89 104.242 429.884 104.242C426.673 104.242 424.322 105.159 422.832 106.994C421.398 108.829 420.481 111.093 420.08 113.788C419.736 116.425 419.564 119.12 419.564 121.872C419.564 122.961 419.621 124.825 419.736 127.462C419.85 130.099 419.908 133.654 419.908 138.126C419.908 139.961 420.223 141.365 420.854 142.34ZM471.52 140.19C471.004 141.509 470.316 143.343 469.456 145.694L456.04 108.886C454.721 105.733 452.8 103.898 450.278 103.382V102.78H465.5V103.382C464.525 103.669 463.923 104.099 463.694 104.672C463.464 105.245 463.35 105.761 463.35 106.22C463.35 106.965 463.493 107.825 463.78 108.8L472.638 133.138L477.024 121.786C477.54 120.41 478.056 118.719 478.572 116.712C479.088 114.705 479.374 113.157 479.432 112.068C479.489 110.979 479.518 110.291 479.518 110.004C479.518 108.513 479.288 107.109 478.83 105.79C478.428 104.471 477.54 103.669 476.164 103.382L476.25 102.78H489.494V103.382C488.118 103.611 486.77 104.729 485.452 106.736C484.133 108.685 482.614 111.638 480.894 115.594C479.346 119.665 478.084 122.933 477.11 125.398C476.192 127.806 475.447 129.727 474.874 131.16C474.358 132.593 473.928 133.711 473.584 134.514C473.297 135.317 472.982 136.148 472.638 137.008C472.351 137.868 471.978 138.929 471.52 140.19ZM514.027 144.318C512.192 145.235 509.985 145.694 507.405 145.694C505.283 145.694 503.191 145.235 501.127 144.318C499.063 143.401 497.199 142.025 495.537 140.19C493.931 138.355 492.613 136.091 491.581 133.396C490.549 130.644 490.033 127.462 490.033 123.85C490.033 120.983 490.434 118.231 491.237 115.594C492.039 112.957 493.215 110.635 494.763 108.628C496.311 106.621 498.203 105.016 500.439 103.812C502.732 102.608 505.312 102.006 508.179 102.006C510.988 102.006 513.367 102.637 515.317 103.898C517.266 105.159 518.843 106.822 520.047 108.886C521.251 110.95 522.111 113.272 522.627 115.852C523.2 118.375 523.487 120.926 523.487 123.506H497.171C497.171 125.799 497.343 128.035 497.687 130.214C498.088 132.393 498.719 134.342 499.579 136.062C500.439 137.782 501.585 139.158 503.019 140.19C504.509 141.222 506.373 141.738 508.609 141.738C510.558 141.738 512.278 141.509 513.769 141.05C515.317 140.534 516.664 139.903 517.811 139.158C518.957 138.413 519.932 137.61 520.735 136.75C521.537 135.833 522.168 134.973 522.627 134.17C522.684 134.17 522.741 134.199 522.799 134.256C522.856 134.313 522.942 134.371 523.057 134.428L523.401 134.6C522.999 135.288 522.426 136.263 521.681 137.524C520.935 138.728 519.932 139.961 518.671 141.222C517.409 142.426 515.861 143.458 514.027 144.318ZM497.687 116.11C497.343 118.403 497.171 120.582 497.171 122.646H516.263C516.263 120.582 516.205 118.403 516.091 116.11C515.976 113.759 515.632 111.609 515.059 109.66C514.543 107.711 513.683 106.105 512.479 104.844C511.275 103.525 509.583 102.866 507.405 102.866C505.398 102.866 503.735 103.525 502.417 104.844C501.098 106.105 500.037 107.739 499.235 109.746C498.489 111.695 497.973 113.817 497.687 116.11ZM538.852 142.34C539.425 143.315 540.256 143.945 541.346 144.232V144.834H527.242V144.232C528.331 143.945 529.162 143.315 529.736 142.34C530.366 141.365 530.682 139.961 530.682 138.126V112.412C530.682 110.577 530.452 109.23 529.994 108.37C529.535 107.453 528.761 106.851 527.672 106.564V105.962L537.476 102.006H537.906V109.746C538.25 108.771 538.794 107.825 539.54 106.908C540.285 105.933 541.145 105.102 542.12 104.414C543.094 103.669 544.126 103.095 545.216 102.694C546.362 102.235 547.48 102.006 548.57 102.006C551.723 102.006 554.217 102.493 556.052 103.468C557.886 104.385 559.262 105.561 560.18 106.994C561.097 108.427 561.67 110.004 561.9 111.724C562.129 113.444 562.244 115.049 562.244 116.54V138.126C562.244 139.961 562.559 141.365 563.19 142.34C563.82 143.315 564.652 143.945 565.684 144.232V144.834H551.666V144.232C552.698 143.945 553.529 143.315 554.16 142.34C554.79 141.365 555.106 139.961 555.106 138.126V114.476C555.106 113.043 554.905 111.581 554.504 110.09C554.102 108.542 553.386 107.195 552.354 106.048C551.379 104.844 549.888 104.242 547.882 104.242C544.671 104.242 542.32 105.159 540.83 106.994C539.396 108.829 538.479 111.093 538.078 113.788C537.734 116.425 537.562 119.12 537.562 121.872C537.562 122.961 537.619 124.825 537.734 127.462C537.848 130.099 537.906 133.654 537.906 138.126C537.906 139.961 538.221 141.365 538.852 142.34ZM579.198 91.5139C578.338 92.3739 577.306 92.8039 576.102 92.8039C574.84 92.8039 573.78 92.3739 572.92 91.5139C572.06 90.6539 571.63 89.5933 571.63 88.3319C571.63 87.0706 572.06 86.0099 572.92 85.1499C573.78 84.2899 574.84 83.8599 576.102 83.8599C577.306 83.8599 578.338 84.2899 579.198 85.1499C580.058 86.0099 580.488 87.0706 580.488 88.3319C580.488 89.5933 580.058 90.6539 579.198 91.5139ZM580.918 144.92C580.115 145.436 579.198 145.694 578.166 145.694C576.331 145.694 574.898 144.977 573.866 143.544C572.891 142.053 572.404 139.989 572.404 137.352V112.67C572.404 109.058 571.4 107.023 569.394 106.564V105.962L579.198 102.006H579.628V134.686C579.628 137.495 579.714 139.416 579.886 140.448C580.058 141.48 580.545 141.996 581.348 141.996C581.806 141.996 582.236 141.795 582.638 141.394C583.039 140.993 583.412 140.534 583.756 140.018C584.157 139.445 584.53 138.785 584.874 138.04L585.648 138.298C585.361 138.986 584.988 139.76 584.53 140.62C584.128 141.48 583.612 142.283 582.982 143.028C582.408 143.773 581.72 144.404 580.918 144.92ZM613.212 144.318C611.377 145.235 609.17 145.694 606.59 145.694C604.469 145.694 602.376 145.235 600.312 144.318C598.248 143.401 596.385 142.025 594.722 140.19C593.117 138.355 591.798 136.091 590.766 133.396C589.734 130.644 589.218 127.462 589.218 123.85C589.218 120.983 589.619 118.231 590.422 115.594C591.225 112.957 592.4 110.635 593.948 108.628C595.496 106.621 597.388 105.016 599.624 103.812C601.917 102.608 604.497 102.006 607.364 102.006C610.173 102.006 612.553 102.637 614.502 103.898C616.451 105.159 618.028 106.822 619.232 108.886C620.436 110.95 621.296 113.272 621.812 115.852C622.385 118.375 622.672 120.926 622.672 123.506H596.356C596.356 125.799 596.528 128.035 596.872 130.214C597.273 132.393 597.904 134.342 598.764 136.062C599.624 137.782 600.771 139.158 602.204 140.19C603.695 141.222 605.558 141.738 607.794 141.738C609.743 141.738 611.463 141.509 612.954 141.05C614.502 140.534 615.849 139.903 616.996 139.158C618.143 138.413 619.117 137.61 619.92 136.75C620.723 135.833 621.353 134.973 621.812 134.17C621.869 134.17 621.927 134.199 621.984 134.256C622.041 134.313 622.127 134.371 622.242 134.428L622.586 134.6C622.185 135.288 621.611 136.263 620.866 137.524C620.121 138.728 619.117 139.961 617.856 141.222C616.595 142.426 615.047 143.458 613.212 144.318ZM596.872 116.11C596.528 118.403 596.356 120.582 596.356 122.646H615.448C615.448 120.582 615.391 118.403 615.276 116.11C615.161 113.759 614.817 111.609 614.244 109.66C613.728 107.711 612.868 106.105 611.664 104.844C610.46 103.525 608.769 102.866 606.59 102.866C604.583 102.866 602.921 103.525 601.602 104.844C600.283 106.105 599.223 107.739 598.42 109.746C597.675 111.695 597.159 113.817 596.872 116.11ZM638.037 142.34C638.61 143.315 639.442 143.945 640.531 144.232V144.834H626.427V144.232C627.516 143.945 628.348 143.315 628.921 142.34C629.552 141.365 629.867 139.961 629.867 138.126V112.412C629.867 110.577 629.638 109.23 629.179 108.37C628.72 107.453 627.946 106.851 626.857 106.564V105.962L636.661 102.006H637.091V109.746C637.435 108.771 637.98 107.825 638.725 106.908C639.47 105.933 640.33 105.102 641.305 104.414C642.28 103.669 643.312 103.095 644.401 102.694C645.548 102.235 646.666 102.006 647.755 102.006C650.908 102.006 653.402 102.493 655.237 103.468C657.072 104.385 658.448 105.561 659.365 106.994C660.282 108.427 660.856 110.004 661.085 111.724C661.314 113.444 661.429 115.049 661.429 116.54V138.126C661.429 139.961 661.744 141.365 662.375 142.34C663.006 143.315 663.837 143.945 664.869 144.232V144.834H650.851V144.232C651.883 143.945 652.714 143.315 653.345 142.34C653.976 141.365 654.291 139.961 654.291 138.126V114.476C654.291 113.043 654.09 111.581 653.689 110.09C653.288 108.542 652.571 107.195 651.539 106.048C650.564 104.844 649.074 104.242 647.067 104.242C643.856 104.242 641.506 105.159 640.015 106.994C638.582 108.829 637.664 111.093 637.263 113.788C636.919 116.425 636.747 119.12 636.747 121.872C636.747 122.961 636.804 124.825 636.919 127.462C637.034 130.099 637.091 133.654 637.091 138.126C637.091 139.961 637.406 141.365 638.037 142.34ZM692.917 144.06C690.968 145.149 688.703 145.694 686.123 145.694C684.002 145.694 681.909 145.235 679.845 144.318C677.781 143.401 675.918 142.025 674.255 140.19C672.65 138.355 671.331 136.091 670.299 133.396C669.267 130.644 668.751 127.462 668.751 123.85C668.751 120.066 669.267 116.798 670.299 114.046C671.389 111.294 672.793 109.029 674.513 107.252C676.233 105.475 678.125 104.156 680.189 103.296C682.311 102.436 684.403 102.006 686.467 102.006C688.13 102.006 689.707 102.35 691.197 103.038C692.745 103.669 694.093 104.5 695.239 105.532C696.443 106.564 697.389 107.711 698.077 108.972C698.823 110.176 699.195 111.323 699.195 112.412C698.909 112.699 698.536 113.014 698.077 113.358C697.619 113.702 697.16 114.046 696.701 114.39C696.185 114.791 695.669 115.221 695.153 115.68C695.153 114.591 695.039 113.301 694.809 111.81C694.637 110.319 694.236 108.915 693.605 107.596C692.975 106.277 692.086 105.159 690.939 104.242C689.85 103.325 688.359 102.866 686.467 102.866C684.403 102.866 682.683 103.554 681.307 104.93C679.931 106.306 678.842 108.055 678.039 110.176C677.237 112.24 676.663 114.505 676.319 116.97C676.033 119.435 675.889 121.729 675.889 123.85C675.889 127.003 676.205 129.727 676.835 132.02C677.466 134.313 678.297 136.205 679.329 137.696C680.419 139.129 681.651 140.219 683.027 140.964C684.461 141.652 685.951 141.996 687.499 141.996C689.277 141.996 690.882 141.738 692.315 141.222C693.806 140.706 695.096 140.075 696.185 139.33C697.332 138.527 698.307 137.667 699.109 136.75C699.912 135.833 700.543 134.973 701.001 134.17C701.059 134.17 701.116 134.199 701.173 134.256C701.231 134.313 701.317 134.371 701.431 134.428L701.775 134.6C701.661 134.887 701.259 135.632 700.571 136.836C699.883 137.983 698.909 139.215 697.647 140.534C696.386 141.853 694.809 143.028 692.917 144.06ZM729.362 144.318C727.528 145.235 725.32 145.694 722.74 145.694C720.619 145.694 718.526 145.235 716.462 144.318C714.398 143.401 712.535 142.025 710.872 140.19C709.267 138.355 707.948 136.091 706.916 133.396C705.884 130.644 705.368 127.462 705.368 123.85C705.368 120.983 705.77 118.231 706.572 115.594C707.375 112.957 708.55 110.635 710.098 108.628C711.646 106.621 713.538 105.016 715.774 103.812C718.068 102.608 720.648 102.006 723.514 102.006C726.324 102.006 728.703 102.637 730.652 103.898C732.602 105.159 734.178 106.822 735.382 108.886C736.586 110.95 737.446 113.272 737.962 115.852C738.536 118.375 738.822 120.926 738.822 123.506H712.506C712.506 125.799 712.678 128.035 713.022 130.214C713.424 132.393 714.054 134.342 714.914 136.062C715.774 137.782 716.921 139.158 718.354 140.19C719.845 141.222 721.708 141.738 723.944 141.738C725.894 141.738 727.614 141.509 729.104 141.05C730.652 140.534 732 139.903 733.146 139.158C734.293 138.413 735.268 137.61 736.07 136.75C736.873 135.833 737.504 134.973 737.962 134.17C738.02 134.17 738.077 134.199 738.134 134.256C738.192 134.313 738.278 134.371 738.392 134.428L738.736 134.6C738.335 135.288 737.762 136.263 737.016 137.524C736.271 138.728 735.268 139.961 734.006 141.222C732.745 142.426 731.197 143.458 729.362 144.318ZM713.022 116.11C712.678 118.403 712.506 120.582 712.506 122.646H731.598C731.598 120.582 731.541 118.403 731.426 116.11C731.312 113.759 730.968 111.609 730.394 109.66C729.878 107.711 729.018 106.105 727.814 104.844C726.61 103.525 724.919 102.866 722.74 102.866C720.734 102.866 719.071 103.525 717.752 104.844C716.434 106.105 715.373 107.739 714.57 109.746C713.825 111.695 713.309 113.817 713.022 116.11ZM776.355 142.426C776.929 143.401 777.76 144.031 778.849 144.318V144.92H764.745V144.318C765.835 144.031 766.666 143.401 767.239 142.426C767.87 141.451 768.185 140.047 768.185 138.212V91.5139C768.185 89.6219 767.87 88.1886 767.239 87.2139C766.666 86.2393 765.835 85.6086 764.745 85.3219V84.7199H778.849V85.3219C777.76 85.6086 776.9 86.2393 776.269 87.2139C775.696 88.1886 775.409 89.6219 775.409 91.5139V138.212C775.409 140.047 775.725 141.451 776.355 142.426ZM795.088 142.34C795.661 143.315 796.493 143.945 797.582 144.232V144.834H783.478V144.232C784.567 143.945 785.399 143.315 785.972 142.34C786.603 141.365 786.918 139.961 786.918 138.126V112.412C786.918 110.577 786.689 109.23 786.23 108.37C785.771 107.453 784.997 106.851 783.908 106.564V105.962L793.712 102.006H794.142V109.746C794.486 108.771 795.031 107.825 795.776 106.908C796.521 105.933 797.381 105.102 798.356 104.414C799.331 103.669 800.363 103.095 801.452 102.694C802.599 102.235 803.717 102.006 804.806 102.006C807.959 102.006 810.453 102.493 812.288 103.468C814.123 104.385 815.499 105.561 816.416 106.994C817.333 108.427 817.907 110.004 818.136 111.724C818.365 113.444 818.48 115.049 818.48 116.54V138.126C818.48 139.961 818.795 141.365 819.426 142.34C820.057 143.315 820.888 143.945 821.92 144.232V144.834H807.902V144.232C808.934 143.945 809.765 143.315 810.396 142.34C811.027 141.365 811.342 139.961 811.342 138.126V114.476C811.342 113.043 811.141 111.581 810.74 110.09C810.339 108.542 809.622 107.195 808.59 106.048C807.615 104.844 806.125 104.242 804.118 104.242C800.907 104.242 798.557 105.159 797.066 106.994C795.633 108.829 794.715 111.093 794.314 113.788C793.97 116.425 793.798 119.12 793.798 121.872C793.798 122.961 793.855 124.825 793.97 127.462C794.085 130.099 794.142 133.654 794.142 138.126C794.142 139.961 794.457 141.365 795.088 142.34Z" fill="white"/>
<path d="M327.514 228.006C326.425 228.006 325.278 228.006 324.074 228.006C322.87 228.006 321.781 227.977 320.806 227.92C319.889 227.805 319.43 227.605 319.43 227.318C320.462 227.031 321.494 226.515 322.526 225.77C323.615 225.025 324.533 223.563 325.278 221.384L340.414 175.546L339.726 173.568C340.127 173.339 340.615 172.966 341.188 172.45C341.819 171.934 342.421 171.361 342.994 170.73C343.567 170.042 344.083 169.383 344.542 168.752C345.058 168.064 345.402 167.462 345.574 166.946L362.172 221.298C362.459 222.33 362.803 223.19 363.204 223.878C363.663 224.566 364.121 225.168 364.58 225.684C365.096 226.143 365.583 226.544 366.042 226.888C366.558 227.232 367.017 227.576 367.418 227.92H351.25V227.318C352.11 227.089 352.855 226.687 353.486 226.114C354.174 225.541 354.518 224.652 354.518 223.448C354.518 222.588 354.375 221.585 354.088 220.438C353.801 219.234 353.429 217.915 352.97 216.482C352.511 215.049 351.995 213.558 351.422 212.01C350.906 210.405 350.419 208.828 349.96 207.28H331.556L326.74 221.9C326.453 222.875 326.31 223.563 326.31 223.964C326.31 224.652 326.425 225.168 326.654 225.512C326.883 225.856 327.17 226.171 327.514 226.458C327.858 226.687 328.202 226.917 328.546 227.146C328.947 227.318 329.291 227.576 329.578 227.92C329.291 227.92 328.603 227.949 327.514 228.006ZM332.072 205.904H349.53C348.842 203.611 348.097 201.203 347.294 198.68C346.549 196.157 345.803 193.663 345.058 191.198C344.313 188.675 343.596 186.267 342.908 183.974C342.22 181.623 341.589 179.502 341.016 177.61L332.072 205.904ZM404.581 225.426C405.154 226.401 405.985 227.031 407.075 227.318V227.92H392.971V227.318C394.06 227.031 394.891 226.401 395.465 225.426C396.095 224.451 396.411 223.047 396.411 221.212V174.428C396.411 172.593 396.095 171.189 395.465 170.214C394.891 169.239 394.06 168.609 392.971 168.322V167.72H407.075V168.322C405.985 168.609 405.125 169.239 404.495 170.214C403.921 171.189 403.635 172.593 403.635 174.428V198.25H428.231V174.428C428.231 172.593 427.915 171.189 427.285 170.214C426.654 169.239 425.823 168.609 424.791 168.322V167.72H438.895V168.322C437.805 168.609 436.945 169.239 436.315 170.214C435.741 171.189 435.455 172.593 435.455 174.428V221.212C435.455 223.047 435.741 224.451 436.315 225.426C436.945 226.401 437.805 227.031 438.895 227.318V227.92H424.791V227.318C425.823 227.031 426.654 226.401 427.285 225.426C427.915 224.451 428.231 223.047 428.231 221.212V199.626H403.635V221.212C403.635 223.047 403.95 224.451 404.581 225.426ZM452.969 174.514C452.109 175.374 451.077 175.804 449.873 175.804C448.612 175.804 447.551 175.374 446.691 174.514C445.831 173.654 445.401 172.593 445.401 171.332C445.401 170.071 445.831 169.01 446.691 168.15C447.551 167.29 448.612 166.86 449.873 166.86C451.077 166.86 452.109 167.29 452.969 168.15C453.829 169.01 454.259 170.071 454.259 171.332C454.259 172.593 453.829 173.654 452.969 174.514ZM454.689 227.92C453.887 228.436 452.969 228.694 451.937 228.694C450.103 228.694 448.669 227.977 447.637 226.544C446.663 225.053 446.175 222.989 446.175 220.352V195.67C446.175 192.058 445.172 190.023 443.165 189.564V188.962L452.969 185.006H453.399V217.686C453.399 220.495 453.485 222.416 453.657 223.448C453.829 224.48 454.317 224.996 455.119 224.996C455.578 224.996 456.008 224.795 456.409 224.394C456.811 223.993 457.183 223.534 457.527 223.018C457.929 222.445 458.301 221.785 458.645 221.04L459.419 221.298C459.133 221.986 458.76 222.76 458.301 223.62C457.9 224.48 457.384 225.283 456.753 226.028C456.18 226.773 455.492 227.404 454.689 227.92ZM481.48 227.748C479.874 228.321 478.126 228.608 476.234 228.608C474.227 228.608 472.392 228.321 470.73 227.748C469.124 227.175 467.748 226.458 466.602 225.598C465.455 224.738 464.566 223.792 463.936 222.76C463.305 221.728 462.99 220.753 462.99 219.836L466.43 217.17C466.43 218.087 466.602 219.177 466.946 220.438C467.29 221.642 467.863 222.817 468.666 223.964C469.468 225.053 470.472 225.971 471.676 226.716C472.937 227.404 474.399 227.748 476.062 227.748C476.234 227.748 476.377 227.748 476.492 227.748C477.581 227.691 478.613 227.461 479.588 227.06C480.562 226.601 481.394 226.028 482.082 225.34C482.827 224.652 483.4 223.878 483.802 223.018C484.26 222.158 484.49 221.298 484.49 220.438C484.49 218.489 483.974 216.855 482.942 215.536C481.967 214.16 480.734 212.927 479.244 211.838C477.753 210.691 476.119 209.631 474.342 208.656C472.622 207.681 471.016 206.592 469.526 205.388C468.035 204.184 466.774 202.808 465.742 201.26C464.767 199.712 464.28 197.82 464.28 195.584C464.28 193.692 464.595 192.087 465.226 190.768C465.856 189.449 466.688 188.36 467.72 187.5C468.809 186.64 470.042 186.009 471.418 185.608C472.794 185.207 474.227 185.006 475.718 185.006C477.208 185.006 478.613 185.293 479.932 185.866C481.25 186.439 482.368 187.156 483.286 188.016C484.26 188.876 485.006 189.822 485.522 190.854C486.095 191.886 486.382 192.861 486.382 193.778L482.684 196.616C482.684 195.699 482.569 194.638 482.34 193.434C482.11 192.173 481.709 190.997 481.136 189.908C480.562 188.761 479.788 187.815 478.814 187.07C477.896 186.267 476.75 185.866 475.374 185.866C473.31 185.866 471.647 186.468 470.386 187.672C469.182 188.819 468.58 190.195 468.58 191.8C468.58 193.807 469.096 195.498 470.128 196.874C471.16 198.25 472.45 199.483 473.998 200.572C475.546 201.661 477.208 202.693 478.986 203.668C480.763 204.643 482.426 205.732 483.974 206.936C485.522 208.14 486.812 209.545 487.844 211.15C488.876 212.755 489.392 214.705 489.392 216.998C489.392 218.718 489.048 220.295 488.36 221.728C487.729 223.104 486.812 224.308 485.608 225.34C484.461 226.372 483.085 227.175 481.48 227.748ZM504.414 227.92C503.611 228.436 502.694 228.694 501.662 228.694C499.827 228.694 498.423 227.977 497.448 226.544C496.473 225.053 495.986 223.018 495.986 220.438V186.726H492.804V185.78H495.986V176.922L502.78 173.998H503.124V185.78H510.434V186.726H503.124V217.772C503.124 220.524 503.21 222.416 503.382 223.448C503.554 224.48 504.013 224.996 504.758 224.996C505.217 224.996 505.647 224.795 506.048 224.394C506.449 223.993 506.822 223.563 507.166 223.104C507.567 222.531 507.94 221.871 508.284 221.126L509.058 221.384C508.829 222.072 508.485 222.846 508.026 223.706C507.625 224.509 507.109 225.283 506.478 226.028C505.905 226.773 505.217 227.404 504.414 227.92ZM537.706 227.318C535.585 228.235 533.435 228.694 531.256 228.694C529.077 228.694 526.956 228.235 524.892 227.318C522.828 226.401 520.965 225.025 519.302 223.19C517.697 221.355 516.378 219.091 515.346 216.396C514.371 213.644 513.884 210.462 513.884 206.85C513.884 203.238 514.371 200.085 515.346 197.39C516.378 194.638 517.697 192.345 519.302 190.51C520.965 188.675 522.828 187.299 524.892 186.382C526.956 185.465 529.077 185.006 531.256 185.006C533.435 185.006 535.556 185.465 537.62 186.382C539.741 187.299 541.605 188.675 543.21 190.51C544.873 192.345 546.191 194.638 547.166 197.39C548.141 200.085 548.628 203.238 548.628 206.85C548.628 210.462 548.141 213.644 547.166 216.396C546.191 219.091 544.873 221.355 543.21 223.19C541.605 225.025 539.77 226.401 537.706 227.318ZM526.956 226.114C528.217 227.146 529.651 227.662 531.256 227.662C532.861 227.662 534.295 227.146 535.556 226.114C536.817 225.082 537.878 223.649 538.738 221.814C539.655 219.979 540.343 217.801 540.802 215.278C541.261 212.698 541.49 209.889 541.49 206.85C541.49 203.754 541.261 200.945 540.802 198.422C540.343 195.842 539.655 193.635 538.738 191.8C537.878 189.908 536.817 188.446 535.556 187.414C534.295 186.382 532.861 185.866 531.256 185.866C529.651 185.866 528.217 186.382 526.956 187.414C525.695 188.446 524.605 189.908 523.688 191.8C522.828 193.635 522.169 195.842 521.71 198.422C521.251 200.945 521.022 203.754 521.022 206.85C521.022 209.889 521.251 212.698 521.71 215.278C522.169 217.801 522.828 219.979 523.688 221.814C524.605 223.649 525.695 225.082 526.956 226.114ZM563.879 225.34C564.452 226.315 565.284 226.945 566.373 227.232V227.834H552.269V227.232C553.358 226.945 554.19 226.315 554.763 225.34C555.394 224.365 555.709 222.961 555.709 221.126V195.67C555.709 192.058 554.706 190.023 552.699 189.564V188.962L562.503 185.006H562.933V191.542C563.736 189.535 564.882 187.959 566.373 186.812C567.921 185.608 569.756 185.006 571.877 185.006C573.712 185.006 575.317 185.35 576.693 186.038C578.126 186.726 579.302 187.615 580.219 188.704C581.194 189.793 581.91 190.969 582.369 192.23C582.885 193.491 583.143 194.695 583.143 195.842C582.971 195.957 582.684 196.186 582.283 196.53C581.882 196.874 581.452 197.218 580.993 197.562C580.477 197.963 579.932 198.422 579.359 198.938C579.359 198.25 579.302 197.189 579.187 195.756C579.072 194.265 578.757 192.803 578.241 191.37C577.782 189.879 577.066 188.589 576.091 187.5C575.174 186.353 573.855 185.78 572.135 185.78C569.326 185.78 567.09 186.898 565.427 189.134C563.764 191.37 562.933 194.237 562.933 197.734V221.126C562.933 222.961 563.248 224.365 563.879 225.34ZM594.903 174.514C594.043 175.374 593.011 175.804 591.807 175.804C590.545 175.804 589.485 175.374 588.625 174.514C587.765 173.654 587.335 172.593 587.335 171.332C587.335 170.071 587.765 169.01 588.625 168.15C589.485 167.29 590.545 166.86 591.807 166.86C593.011 166.86 594.043 167.29 594.903 168.15C595.763 169.01 596.193 170.071 596.193 171.332C596.193 172.593 595.763 173.654 594.903 174.514ZM596.623 227.92C595.82 228.436 594.903 228.694 593.871 228.694C592.036 228.694 590.603 227.977 589.571 226.544C588.596 225.053 588.109 222.989 588.109 220.352V195.67C588.109 192.058 587.105 190.023 585.099 189.564V188.962L594.903 185.006H595.333V217.686C595.333 220.495 595.419 222.416 595.591 223.448C595.763 224.48 596.25 224.996 597.053 224.996C597.511 224.996 597.941 224.795 598.343 224.394C598.744 223.993 599.117 223.534 599.461 223.018C599.862 222.445 600.235 221.785 600.579 221.04L601.353 221.298C601.066 221.986 600.693 222.76 600.235 223.62C599.833 224.48 599.317 225.283 598.687 226.028C598.113 226.773 597.425 227.404 596.623 227.92ZM629.089 227.06C627.14 228.149 624.875 228.694 622.295 228.694C620.174 228.694 618.081 228.235 616.017 227.318C613.953 226.401 612.09 225.025 610.427 223.19C608.822 221.355 607.503 219.091 606.471 216.396C605.439 213.644 604.923 210.462 604.923 206.85C604.923 203.066 605.439 199.798 606.471 197.046C607.56 194.294 608.965 192.029 610.685 190.252C612.405 188.475 614.297 187.156 616.361 186.296C618.482 185.436 620.575 185.006 622.639 185.006C624.302 185.006 625.878 185.35 627.369 186.038C628.917 186.669 630.264 187.5 631.411 188.532C632.615 189.564 633.561 190.711 634.249 191.972C634.994 193.176 635.367 194.323 635.367 195.412C635.08 195.699 634.708 196.014 634.249 196.358C633.79 196.702 633.332 197.046 632.873 197.39C632.357 197.791 631.841 198.221 631.325 198.68C631.325 197.591 631.21 196.301 630.981 194.81C630.809 193.319 630.408 191.915 629.777 190.596C629.146 189.277 628.258 188.159 627.111 187.242C626.022 186.325 624.531 185.866 622.639 185.866C620.575 185.866 618.855 186.554 617.479 187.93C616.103 189.306 615.014 191.055 614.211 193.176C613.408 195.24 612.835 197.505 612.491 199.97C612.204 202.435 612.061 204.729 612.061 206.85C612.061 210.003 612.376 212.727 613.007 215.02C613.638 217.313 614.469 219.205 615.501 220.696C616.59 222.129 617.823 223.219 619.199 223.964C620.632 224.652 622.123 224.996 623.671 224.996C625.448 224.996 627.054 224.738 628.487 224.222C629.978 223.706 631.268 223.075 632.357 222.33C633.504 221.527 634.478 220.667 635.281 219.75C636.084 218.833 636.714 217.973 637.173 217.17C637.23 217.17 637.288 217.199 637.345 217.256C637.402 217.313 637.488 217.371 637.603 217.428L637.947 217.6C637.832 217.887 637.431 218.632 636.743 219.836C636.055 220.983 635.08 222.215 633.819 223.534C632.558 224.853 630.981 226.028 629.089 227.06ZM699.656 226.716C697.019 228.092 693.722 228.78 689.766 228.78C686.842 228.78 683.889 228.178 680.908 226.974C677.984 225.77 675.318 223.907 672.91 221.384C670.502 218.861 668.524 215.651 666.976 211.752C665.485 207.853 664.74 203.209 664.74 197.82C664.74 192.431 665.485 187.815 666.976 183.974C668.524 180.075 670.502 176.865 672.91 174.342C675.318 171.819 678.013 169.956 680.994 168.752C683.975 167.548 686.899 166.946 689.766 166.946C691.314 166.946 692.661 167.061 693.808 167.29C694.955 167.519 696.015 167.835 696.99 168.236C697.965 168.637 698.882 169.125 699.742 169.698C700.659 170.214 701.634 170.816 702.666 171.504C703.755 172.249 704.673 172.622 705.418 172.622C705.819 172.622 706.221 172.479 706.622 172.192C707.023 171.848 707.367 171.475 707.654 171.074C707.998 170.615 708.256 170.128 708.428 169.612C708.657 169.096 708.772 168.666 708.772 168.322H709.632V191.112H708.342C708.342 187.328 707.797 184.031 706.708 181.222C705.676 178.355 704.3 175.976 702.58 174.084C700.86 172.192 698.882 170.787 696.646 169.87C694.41 168.895 692.117 168.408 689.766 168.408C687.53 168.408 685.351 169.153 683.23 170.644C681.166 172.077 679.303 174.084 677.64 176.664C675.977 179.244 674.63 182.34 673.598 185.952C672.623 189.564 672.136 193.52 672.136 197.82C672.136 201.776 672.537 205.531 673.34 209.086C674.2 212.641 675.404 215.794 676.952 218.546C678.5 221.241 680.363 223.391 682.542 224.996C684.721 226.544 687.129 227.318 689.766 227.318C693.493 227.318 696.589 226.659 699.054 225.34C701.519 224.021 703.497 222.473 704.988 220.696C706.536 218.919 707.654 217.141 708.342 215.364C709.087 213.587 709.575 212.239 709.804 211.322C709.976 211.437 710.177 211.551 710.406 211.666C710.635 211.723 710.807 211.809 710.922 211.924C710.693 213.013 710.205 214.504 709.46 216.396C708.715 218.288 707.539 220.151 705.934 221.986C704.329 223.821 702.236 225.397 699.656 226.716ZM737.841 227.318C735.719 228.235 733.569 228.694 731.391 228.694C729.212 228.694 727.091 228.235 725.027 227.318C722.963 226.401 721.099 225.025 719.437 223.19C717.831 221.355 716.513 219.091 715.481 216.396C714.506 213.644 714.019 210.462 714.019 206.85C714.019 203.238 714.506 200.085 715.481 197.39C716.513 194.638 717.831 192.345 719.437 190.51C721.099 188.675 722.963 187.299 725.027 186.382C727.091 185.465 729.212 185.006 731.391 185.006C733.569 185.006 735.691 185.465 737.755 186.382C739.876 187.299 741.739 188.675 743.345 190.51C745.007 192.345 746.326 194.638 747.301 197.39C748.275 200.085 748.763 203.238 748.763 206.85C748.763 210.462 748.275 213.644 747.301 216.396C746.326 219.091 745.007 221.355 743.345 223.19C741.739 225.025 739.905 226.401 737.841 227.318ZM727.091 226.114C728.352 227.146 729.785 227.662 731.391 227.662C732.996 227.662 734.429 227.146 735.691 226.114C736.952 225.082 738.013 223.649 738.873 221.814C739.79 219.979 740.478 217.801 740.937 215.278C741.395 212.698 741.625 209.889 741.625 206.85C741.625 203.754 741.395 200.945 740.937 198.422C740.478 195.842 739.79 193.635 738.873 191.8C738.013 189.908 736.952 188.446 735.691 187.414C734.429 186.382 732.996 185.866 731.391 185.866C729.785 185.866 728.352 186.382 727.091 187.414C725.829 188.446 724.74 189.908 723.823 191.8C722.963 193.635 722.303 195.842 721.845 198.422C721.386 200.945 721.157 203.754 721.157 206.85C721.157 209.889 721.386 212.698 721.845 215.278C722.303 217.801 722.963 219.979 723.823 221.814C724.74 223.649 725.829 225.082 727.091 226.114ZM764.014 225.34C764.587 226.315 765.418 226.945 766.508 227.232V227.834H752.404V227.232C753.493 226.945 754.324 226.315 754.898 225.34C755.528 224.365 755.844 222.961 755.844 221.126V195.67C755.844 192.058 754.84 190.023 752.834 189.564V188.962L762.638 185.006H763.068V191.542C763.87 189.535 765.017 187.959 766.508 186.812C768.056 185.608 769.89 185.006 772.012 185.006C773.846 185.006 775.452 185.35 776.828 186.038C778.261 186.726 779.436 187.615 780.354 188.704C781.328 189.793 782.045 190.969 782.504 192.23C783.02 193.491 783.278 194.695 783.278 195.842C783.106 195.957 782.819 196.186 782.418 196.53C782.016 196.874 781.586 197.218 781.128 197.562C780.612 197.963 780.067 198.422 779.494 198.938C779.494 198.25 779.436 197.189 779.322 195.756C779.207 194.265 778.892 192.803 778.376 191.37C777.917 189.879 777.2 188.589 776.226 187.5C775.308 186.353 773.99 185.78 772.27 185.78C769.46 185.78 767.224 186.898 765.562 189.134C763.899 191.37 763.068 194.237 763.068 197.734V221.126C763.068 222.961 763.383 224.365 764.014 225.34ZM809.4 227.318C807.565 228.235 805.358 228.694 802.778 228.694C800.656 228.694 798.564 228.235 796.5 227.318C794.436 226.401 792.572 225.025 790.91 223.19C789.304 221.355 787.986 219.091 786.954 216.396C785.922 213.644 785.406 210.462 785.406 206.85C785.406 203.983 785.807 201.231 786.61 198.594C787.412 195.957 788.588 193.635 790.136 191.628C791.684 189.621 793.576 188.016 795.812 186.812C798.105 185.608 800.685 185.006 803.552 185.006C806.361 185.006 808.74 185.637 810.69 186.898C812.639 188.159 814.216 189.822 815.42 191.886C816.624 193.95 817.484 196.272 818 198.852C818.573 201.375 818.86 203.926 818.86 206.506H792.544C792.544 208.799 792.716 211.035 793.06 213.214C793.461 215.393 794.092 217.342 794.952 219.062C795.812 220.782 796.958 222.158 798.392 223.19C799.882 224.222 801.746 224.738 803.982 224.738C805.931 224.738 807.651 224.509 809.142 224.05C810.69 223.534 812.037 222.903 813.184 222.158C814.33 221.413 815.305 220.61 816.108 219.75C816.91 218.833 817.541 217.973 818 217.17C818.057 217.17 818.114 217.199 818.172 217.256C818.229 217.313 818.315 217.371 818.43 217.428L818.774 217.6C818.372 218.288 817.799 219.263 817.054 220.524C816.308 221.728 815.305 222.961 814.044 224.222C812.782 225.426 811.234 226.458 809.4 227.318ZM793.06 199.11C792.716 201.403 792.544 203.582 792.544 205.646H811.636C811.636 203.582 811.578 201.403 811.464 199.11C811.349 196.759 811.005 194.609 810.432 192.66C809.916 190.711 809.056 189.105 807.852 187.844C806.648 186.525 804.956 185.866 802.778 185.866C800.771 185.866 799.108 186.525 797.79 187.844C796.471 189.105 795.41 190.739 794.608 192.746C793.862 194.695 793.346 196.817 793.06 199.11Z" fill="white"/>
</svg>
