<svg xmlns="http://www.w3.org/2000/svg" width="1936" height="2684" fill="none" xmlns:v="https://vecta.io/nano"><style><![CDATA[.B{fill:#dbc9a7}.C{opacity:.3}.D{opacity:.6}]]></style><g class="B C"><use href="#B"/><use href="#C"/><use href="#D"/><use href="#E"/><use href="#B" x="-180.35"/><use href="#C" x="-180.35"/><use href="#D" x="-180.35"/><use href="#E" x="-180.35"/><use href="#B" x="-360.71"/><use href="#C" x="-360.71"/><use href="#D" x="-360.71"/><use href="#E" x="-360.71"/><use href="#B" x="-541.06"/><use href="#C" x="-541.06"/><use href="#D" x="-541.07"/><use href="#E" x="-541.06"/><use href="#F"/><path d="M1005.06 54.289a26.01 26.01 0 0 0-2.8-1.39c-3.128-1.3-6.258-1.96-9.388-1.96-2.65 0-5.26.42-7.82 1.27a29.77 29.77 0 0 0-7.33 3.62c-2.32 1.56-4.52 3.44-6.58 5.64-2.06 2.19-3.919 4.62-5.569 7.27l-19.82 31.62-1.111 1.82-5.05 7.07c-1.76 2.28-3.6 4.3-5.51 6.06s-3.89 3.17-5.93 4.24c-2.04 1.06-4.15 1.6-6.32 1.6-2.35 0-4.76-.74-7.24-2.22s-5.04-3.93-7.69-7.37l-4.04 2.22c2.96 2.87 6 4.95 9.13 6.26 3.13 1.3 6.281 1.96 9.451 1.96 2.65 0 5.259-.42 7.819-1.27s5.021-2.05 7.371-3.62c2.35-1.56 4.539-3.43 6.579-5.61 2.04-2.17 3.891-4.58 5.541-7.24l21.769-34.999a23.38 23.38 0 0 1 .85-1.08 10 10 0 0 0 .85-1.21l.911-1.3c1.43-1.91 2.91-3.7 4.429-5.38 1.52-1.67 3.091-3.13 4.691-4.37 1.61-1.24 3.259-2.23 4.949-2.97s3.43-1.11 5.21-1.11c2.35 0 4.78.73 7.3 2.18 1.008.58 2.018 1.32 3.038 2.22l2.3-1.98.01.03z"/><use href="#G"/><path d="M932.019 54.289a26.01 26.01 0 0 1 2.8-1.39c3.13-1.3 6.26-1.96 9.39-1.96 2.65 0 5.26.42 7.82 1.27a29.77 29.77 0 0 1 7.33 3.62c2.32 1.56 4.52 3.44 6.58 5.64 2.06 2.19 3.92 4.62 5.57 7.27l19.82 31.62 1.11 1.82 5.05 7.07c1.76 2.28 3.601 4.3 5.511 6.06s3.89 3.17 5.93 4.24c2.04 1.06 4.15 1.6 6.32 1.6 2.35 0 4.76-.74 7.24-2.22s5.04-3.93 7.69-7.37l4.04 2.22c-2.96 2.87-6 4.95-9.13 6.26-3.13 1.3-6.28 1.96-9.45 1.96-2.65 0-5.26-.42-7.82-1.27s-5.02-2.05-7.37-3.62c-2.351-1.56-4.541-3.43-6.581-5.61-2.04-2.17-3.89-4.58-5.54-7.24l-21.77-34.999a23.38 23.38 0 0 0-.85-1.08 10 10 0 0 1-.85-1.21l-.91-1.3a75.09 75.09 0 0 0-4.43-5.38c-1.52-1.67-3.09-3.13-4.69-4.37-1.61-1.24-3.26-2.23-4.95-2.97s-3.43-1.11-5.21-1.11c-2.35 0-4.78.73-7.3 2.18-1.01.58-2.02 1.32-3.04 2.22l-2.3-1.98-.01.03z"/><use href="#H"/><use href="#C" x="-901.777"/><use href="#D" x="-901.784"/><use href="#E" x="-901.781"/><use href="#B" x="-1082.13"/><use href="#C" x="-1082.128"/><use href="#D" x="-1082.136"/><use href="#E" x="-1082.132"/><use href="#B" x="-1262.489"/><use href="#C" x="-1262.488"/><use href="#D" x="-1262.495"/><use href="#E" x="-1262.492"/><use href="#B" x="-1442.841"/><use href="#C" x="-1442.839"/><use href="#D" x="-1442.847"/><use href="#E" x="-1442.843"/></g><g class="D B"><g class="C"><use href="#B" x="89.67" y="51.08"/><use href="#I"/><use href="#D" x="89.68" y="51.08"/><use href="#J"/></g><use href="#B" x="-90.71" y="51.08"/><use href="#I" x="-180.37"/><use href="#D" x="-90.7" y="51.08"/><use href="#J" x="-180.37"/><use href="#B" x="-271.07" y="51.08"/><use href="#I" x="-360.73"/><use href="#D" x="-271.06" y="51.08"/><use href="#J" x="-360.73"/><use href="#B" x="-451.43" y="51.08"/><use href="#I" x="-541.1"/><use href="#D" x="-451.42" y="51.08"/><use href="#J" x="-541.1"/><use href="#B" x="-631.79" y="51.08"/><use href="#K"/><use href="#L"/><use href="#J" x="-721.46"/><use href="#B" x="-812.161" y="51.08"/><use href="#I" x="-901.822"/><use href="#D" x="-812.151" y="51.08"/><use href="#J" x="-901.828"/><use href="#M"/><use href="#I" x="-1082.189"/><use href="#N"/><use href="#J" x="-1082.195"/><use href="#B" x="-1172.888" y="51.08"/><use href="#I" x="-1262.548"/><use href="#D" x="-1172.878" y="51.08"/><use href="#J" x="-1262.554"/><use href="#B" x="-1353.255" y="51.08"/><use href="#I" x="-1442.916"/><use href="#D" x="-1353.245" y="51.08"/><use href="#O"/><g class="C"><use href="#B" x="-1533.614" y="51.08"/><use href="#I" x="-1623.275"/><use href="#D" x="-1533.604" y="51.08"/><use href="#J" x="-1623.281"/></g></g><g class="B D"><use href="#B" y="102"/><use href="#P"/><use href="#D" y="102"/><use href="#Q"/></g><g class="B"><use href="#B" x="-180.35" y="102"/><use href="#P" x="-180.35"/><use href="#D" x="-180.35" y="102"/><use href="#Q" x="-180.35"/><use href="#B" x="-360.71" y="102"/><use href="#P" x="-360.71"/><use href="#D" x="-360.71" y="102"/><use href="#Q" x="-360.71"/><use href="#B" x="-541.06" y="102"/><use href="#P" x="-541.06"/><use href="#D" x="-541.07" y="102"/><use href="#Q" x="-541.06"/><use href="#F" y="102"/><use href="#R"/><use href="#G" y="102"/><use href="#S"/><use href="#H" y="102"/><use href="#P" x="-901.777"/><use href="#D" x="-901.784" y="102"/><use href="#Q" x="-901.781"/><use href="#B" x="-1082.13" y="102"/><use href="#P" x="-1082.128"/><use href="#D" x="-1082.136" y="102"/><use href="#Q" x="-1082.132"/><use href="#B" x="-1262.489" y="102"/><use href="#P" x="-1262.488"/><use href="#D" x="-1262.495" y="102"/><use href="#Q" x="-1262.492"/><g class="D"><use href="#B" x="-1442.841" y="102"/><use href="#P" x="-1442.839"/><use href="#D" x="-1442.847" y="102"/><use href="#Q" x="-1442.843"/></g><g class="C"><use href="#B" x="89.67" y="154.08"/><use href="#I" y="103"/><use href="#D" x="89.68" y="154.08"/><use href="#J" y="103"/></g><use href="#B" x="-90.71" y="154.08"/><use href="#I" x="-180.37" y="103"/><use href="#D" x="-90.7" y="154.08"/><use href="#J" x="-180.37" y="103"/><use href="#B" x="-271.07" y="154.08"/><use href="#I" x="-360.73" y="103"/><use href="#D" x="-271.06" y="154.08"/><use href="#J" x="-360.73" y="103"/><use href="#B" x="-451.43" y="154.08"/><use href="#I" x="-541.1" y="103"/><use href="#D" x="-451.42" y="154.08"/><use href="#J" x="-541.1" y="103"/><use href="#B" x="-631.79" y="154.08"/><use href="#K" y="103"/><use href="#L" y="103"/><use href="#J" x="-721.46" y="103"/><use href="#B" x="-812.161" y="154.08"/><use href="#I" x="-901.822" y="103"/><use href="#D" x="-812.151" y="154.08"/><use href="#J" x="-901.828" y="103"/><use href="#M" y="103"/><use href="#I" x="-1082.189" y="103"/><use href="#N" y="103"/><use href="#J" x="-1082.195" y="103"/><use href="#B" x="-1172.888" y="154.08"/><use href="#I" x="-1262.548" y="103"/><use href="#D" x="-1172.878" y="154.08"/><use href="#J" x="-1262.554" y="103"/><use href="#B" x="-1353.255" y="154.08"/><use href="#I" x="-1442.916" y="103"/><use href="#D" x="-1353.245" y="154.08"/><use href="#O" y="103"/><g class="C"><use href="#B" x="-1533.614" y="154.08"/><use href="#I" x="-1623.275" y="103"/><use href="#D" x="-1533.604" y="154.08"/><use href="#J" x="-1623.281" y="103"/></g><g class="D"><use href="#B" y="205"/><use href="#P" y="103"/><use href="#D" y="205"/><use href="#Q" y="103"/></g><use href="#B" x="-180.35" y="205"/><use href="#P" x="-180.35" y="103"/><use href="#D" x="-180.35" y="205"/><use href="#Q" x="-180.35" y="103"/><use href="#B" x="-360.71" y="205"/><use href="#P" x="-360.71" y="103"/><use href="#D" x="-360.71" y="205"/><use href="#Q" x="-360.71" y="103"/><use href="#B" x="-541.06" y="205"/><use href="#P" x="-541.06" y="103"/><use href="#D" x="-541.07" y="205"/><use href="#Q" x="-541.06" y="103"/><use href="#F" y="205"/><use href="#R" y="103"/><use href="#G" y="205"/><use href="#S" y="103"/><use href="#H" y="205"/><use href="#P" x="-901.777" y="103"/><use href="#D" x="-901.784" y="205"/><use href="#Q" x="-901.781" y="103"/><use href="#B" x="-1082.13" y="205"/><use href="#P" x="-1082.128" y="103"/><use href="#D" x="-1082.136" y="205"/><use href="#Q" x="-1082.132" y="103"/><use href="#B" x="-1262.489" y="205"/><use href="#P" x="-1262.488" y="103"/><use href="#D" x="-1262.495" y="205"/><use href="#Q" x="-1262.492" y="103"/><g class="D"><use href="#B" x="-1442.841" y="205"/><use href="#P" x="-1442.839" y="103"/><use href="#D" x="-1442.847" y="205"/><use href="#Q" x="-1442.843" y="103"/></g><g class="C"><use href="#B" x="89.67" y="256.08"/><use href="#I" y="205"/><use href="#D" x="89.68" y="256.08"/><use href="#J" y="205"/></g><use href="#B" x="-90.71" y="256.08"/><use href="#I" x="-180.37" y="205"/><use href="#D" x="-90.7" y="256.08"/><use href="#J" x="-180.37" y="205"/><use href="#B" x="-271.07" y="256.08"/><use href="#I" x="-360.73" y="205"/><use href="#D" x="-271.06" y="256.08"/><use href="#J" x="-360.73" y="205"/><use href="#B" x="-451.43" y="256.08"/><use href="#I" x="-541.1" y="205"/><use href="#D" x="-451.42" y="256.08"/><use href="#J" x="-541.1" y="205"/><use href="#B" x="-631.79" y="256.08"/><use href="#K" y="205"/><use href="#L" y="205"/><use href="#J" x="-721.46" y="205"/><use href="#B" x="-812.161" y="256.08"/><use href="#I" x="-901.822" y="205"/><use href="#D" x="-812.151" y="256.08"/><use href="#J" x="-901.828" y="205"/><use href="#M" y="205"/><use href="#I" x="-1082.189" y="205"/><use href="#N" y="205"/><use href="#J" x="-1082.195" y="205"/><use href="#B" x="-1172.888" y="256.08"/><use href="#I" x="-1262.548" y="205"/><use href="#D" x="-1172.878" y="256.08"/><use href="#J" x="-1262.554" y="205"/><use href="#B" x="-1353.255" y="256.08"/><use href="#I" x="-1442.916" y="205"/><use href="#D" x="-1353.245" y="256.08"/><use href="#O" y="205"/><g class="C"><use href="#B" x="-1533.614" y="256.08"/><use href="#I" x="-1623.275" y="205"/><use href="#D" x="-1533.604" y="256.08"/><use href="#J" x="-1623.281" y="205"/></g><g class="D"><use href="#B" y="307"/><use href="#P" y="205"/><use href="#D" y="307"/><use href="#Q" y="205"/></g><use href="#B" x="-180.35" y="307"/><use href="#P" x="-180.35" y="205"/><use href="#D" x="-180.35" y="307"/><use href="#Q" x="-180.35" y="205"/><use href="#B" x="-360.71" y="307"/><use href="#P" x="-360.71" y="205"/><use href="#D" x="-360.71" y="307"/><use href="#Q" x="-360.71" y="205"/><use href="#B" x="-541.06" y="307"/><use href="#P" x="-541.06" y="205"/><use href="#D" x="-541.07" y="307"/><use href="#Q" x="-541.06" y="205"/><use href="#F" y="307"/><use href="#R" y="205"/><use href="#G" y="307"/><use href="#S" y="205"/><use href="#H" y="307"/><use href="#P" x="-901.777" y="205"/><use href="#D" x="-901.784" y="307"/><use href="#Q" x="-901.781" y="205"/><use href="#B" x="-1082.13" y="307"/><use href="#P" x="-1082.128" y="205"/><use href="#D" x="-1082.136" y="307"/><use href="#Q" x="-1082.132" y="205"/><use href="#B" x="-1262.489" y="307"/><use href="#P" x="-1262.488" y="205"/><use href="#D" x="-1262.495" y="307"/><use href="#Q" x="-1262.492" y="205"/><g class="D"><use href="#B" x="-1442.841" y="307"/><use href="#P" x="-1442.839" y="205"/><use href="#D" x="-1442.847" y="307"/><use href="#Q" x="-1442.843" y="205"/></g><g class="C"><use href="#B" x="89.67" y="359.08"/><use href="#I" y="308"/><use href="#D" x="89.68" y="359.08"/><use href="#J" y="308"/></g><use href="#B" x="-90.71" y="359.08"/><use href="#I" x="-180.37" y="308"/><use href="#D" x="-90.7" y="359.08"/><use href="#J" x="-180.37" y="308"/><use href="#B" x="-271.07" y="359.08"/><use href="#I" x="-360.73" y="308"/><use href="#D" x="-271.06" y="359.08"/><use href="#J" x="-360.73" y="308"/><use href="#B" x="-451.43" y="359.08"/><use href="#I" x="-541.1" y="308"/><use href="#D" x="-451.42" y="359.08"/><use href="#J" x="-541.1" y="308"/><use href="#B" x="-631.79" y="359.08"/><use href="#K" y="308"/><use href="#L" y="308"/><use href="#J" x="-721.46" y="308"/><use href="#B" x="-812.161" y="359.08"/><use href="#I" x="-901.822" y="308"/><use href="#D" x="-812.151" y="359.08"/><use href="#J" x="-901.828" y="308"/><use href="#M" y="308"/><use href="#I" x="-1082.189" y="308"/><use href="#N" y="308"/><use href="#J" x="-1082.195" y="308"/><use href="#B" x="-1172.888" y="359.08"/><use href="#I" x="-1262.548" y="308"/><use href="#D" x="-1172.878" y="359.08"/><use href="#J" x="-1262.554" y="308"/><use href="#B" x="-1353.255" y="359.08"/><use href="#I" x="-1442.916" y="308"/><use href="#D" x="-1353.245" y="359.08"/><use href="#O" y="308"/><g class="C"><use href="#B" x="-1533.614" y="359.08"/><use href="#I" x="-1623.275" y="308"/><use href="#D" x="-1533.604" y="359.08"/><use href="#J" x="-1623.281" y="308"/></g><g class="D"><use href="#B" y="410"/><use href="#P" y="308"/><use href="#D" y="410"/><use href="#Q" y="308"/></g><use href="#B" x="-180.35" y="410"/><use href="#P" x="-180.35" y="308"/><use href="#D" x="-180.35" y="410"/><use href="#Q" x="-180.35" y="308"/><use href="#B" x="-360.71" y="410"/><use href="#P" x="-360.71" y="308"/><use href="#D" x="-360.71" y="410"/><use href="#Q" x="-360.71" y="308"/><use href="#B" x="-541.06" y="410"/><use href="#P" x="-541.06" y="308"/><use href="#D" x="-541.07" y="410"/><use href="#Q" x="-541.06" y="308"/><use href="#F" y="410"/><use href="#R" y="308"/><use href="#G" y="410"/><use href="#S" y="308"/><use href="#H" y="410"/><use href="#P" x="-901.777" y="308"/><use href="#D" x="-901.784" y="410"/><use href="#Q" x="-901.781" y="308"/><use href="#B" x="-1082.13" y="410"/><use href="#P" x="-1082.128" y="308"/><use href="#D" x="-1082.136" y="410"/><use href="#Q" x="-1082.132" y="308"/><use href="#B" x="-1262.489" y="410"/><use href="#P" x="-1262.488" y="308"/><use href="#D" x="-1262.495" y="410"/><use href="#Q" x="-1262.492" y="308"/><g class="D"><use href="#B" x="-1442.841" y="410"/><use href="#P" x="-1442.839" y="308"/><use href="#D" x="-1442.847" y="410"/><use href="#Q" x="-1442.843" y="308"/></g><g class="C"><use href="#B" x="89.67" y="461.08"/><use href="#I" y="410"/><use href="#D" x="89.68" y="461.08"/><use href="#J" y="410"/></g><use href="#B" x="-90.71" y="461.08"/><use href="#I" x="-180.37" y="410"/><use href="#D" x="-90.7" y="461.08"/><use href="#J" x="-180.37" y="410"/><use href="#B" x="-271.07" y="461.08"/><use href="#I" x="-360.73" y="410"/><use href="#D" x="-271.06" y="461.08"/><use href="#J" x="-360.73" y="410"/><use href="#B" x="-451.43" y="461.08"/><use href="#I" x="-541.1" y="410"/><use href="#D" x="-451.42" y="461.08"/><use href="#J" x="-541.1" y="410"/><use href="#B" x="-631.79" y="461.08"/><use href="#K" y="410"/><use href="#L" y="410"/><use href="#J" x="-721.46" y="410"/><use href="#B" x="-812.161" y="461.08"/><use href="#I" x="-901.822" y="410"/><use href="#D" x="-812.151" y="461.08"/><use href="#J" x="-901.828" y="410"/><use href="#M" y="410"/><use href="#I" x="-1082.189" y="410"/><use href="#N" y="410"/><use href="#J" x="-1082.195" y="410"/><use href="#B" x="-1172.888" y="461.08"/><use href="#I" x="-1262.548" y="410"/><use href="#D" x="-1172.878" y="461.08"/><use href="#J" x="-1262.554" y="410"/><use href="#B" x="-1353.255" y="461.08"/><use href="#I" x="-1442.916" y="410"/><use href="#D" x="-1353.245" y="461.08"/><use href="#O" y="410"/><g class="C"><use href="#B" x="-1533.614" y="461.08"/><use href="#I" x="-1623.275" y="410"/><use href="#D" x="-1533.604" y="461.08"/><use href="#J" x="-1623.281" y="410"/></g><g class="D"><use href="#B" y="512"/><use href="#P" y="410"/><use href="#D" y="512"/><use href="#Q" y="410"/></g><use href="#B" x="-180.35" y="512"/><use href="#P" x="-180.35" y="410"/><use href="#D" x="-180.35" y="512"/><use href="#Q" x="-180.35" y="410"/><use href="#B" x="-360.71" y="512"/><use href="#P" x="-360.71" y="410"/><use href="#D" x="-360.71" y="512"/><use href="#Q" x="-360.71" y="410"/><use href="#B" x="-541.06" y="512"/><use href="#P" x="-541.06" y="410"/><use href="#D" x="-541.07" y="512"/><use href="#Q" x="-541.06" y="410"/><use href="#F" y="512"/><use href="#R" y="410"/><use href="#G" y="512"/><use href="#S" y="410"/><use href="#H" y="512"/><use href="#P" x="-901.777" y="410"/><use href="#D" x="-901.784" y="512"/><use href="#Q" x="-901.781" y="410"/><use href="#B" x="-1082.13" y="512"/><use href="#P" x="-1082.128" y="410"/><use href="#D" x="-1082.136" y="512"/><use href="#Q" x="-1082.132" y="410"/><use href="#B" x="-1262.489" y="512"/><use href="#P" x="-1262.488" y="410"/><use href="#D" x="-1262.495" y="512"/><use href="#Q" x="-1262.492" y="410"/><g class="D"><use href="#B" x="-1442.841" y="512"/><use href="#P" x="-1442.839" y="410"/><use href="#D" x="-1442.847" y="512"/><use href="#Q" x="-1442.843" y="410"/></g><g class="C"><use href="#B" x="89.67" y="564.08"/><use href="#I" y="513"/><use href="#D" x="89.68" y="564.08"/><use href="#J" y="513"/></g><use href="#B" x="-90.71" y="564.08"/><use href="#I" x="-180.37" y="513"/><use href="#D" x="-90.7" y="564.08"/><use href="#J" x="-180.37" y="513"/><use href="#B" x="-271.07" y="564.08"/><use href="#I" x="-360.73" y="513"/><use href="#D" x="-271.06" y="564.08"/><use href="#J" x="-360.73" y="513"/><use href="#B" x="-451.43" y="564.08"/><use href="#I" x="-541.1" y="513"/><use href="#D" x="-451.42" y="564.08"/><use href="#J" x="-541.1" y="513"/><use href="#B" x="-631.79" y="564.08"/><use href="#K" y="513"/><use href="#L" y="513"/><use href="#J" x="-721.46" y="513"/><use href="#B" x="-812.161" y="564.08"/><use href="#I" x="-901.822" y="513"/><use href="#D" x="-812.151" y="564.08"/><use href="#J" x="-901.828" y="513"/><use href="#M" y="513"/><use href="#I" x="-1082.189" y="513"/><use href="#N" y="513"/><use href="#J" x="-1082.195" y="513"/><use href="#B" x="-1172.888" y="564.08"/><use href="#I" x="-1262.548" y="513"/><use href="#D" x="-1172.878" y="564.08"/><use href="#J" x="-1262.554" y="513"/><use href="#B" x="-1353.255" y="564.08"/><use href="#I" x="-1442.916" y="513"/><use href="#D" x="-1353.245" y="564.08"/><use href="#O" y="513"/><g class="C"><use href="#B" x="-1533.614" y="564.08"/><use href="#I" x="-1623.275" y="513"/><use href="#D" x="-1533.604" y="564.08"/><use href="#J" x="-1623.281" y="513"/></g><g class="D"><use href="#B" y="615"/><use href="#P" y="513"/><use href="#D" y="615"/><use href="#Q" y="513"/></g><use href="#B" x="-180.35" y="615"/><use href="#P" x="-180.35" y="513"/><use href="#D" x="-180.35" y="615"/><use href="#Q" x="-180.35" y="513"/><use href="#B" x="-360.71" y="615"/><use href="#P" x="-360.71" y="513"/><use href="#D" x="-360.71" y="615"/><use href="#Q" x="-360.71" y="513"/><use href="#B" x="-541.06" y="615"/><use href="#P" x="-541.06" y="513"/><use href="#D" x="-541.07" y="615"/><use href="#Q" x="-541.06" y="513"/><use href="#F" y="615"/><use href="#R" y="513"/><use href="#G" y="615"/><use href="#S" y="513"/><use href="#H" y="615"/><use href="#P" x="-901.777" y="513"/><use href="#D" x="-901.784" y="615"/><use href="#Q" x="-901.781" y="513"/><use href="#B" x="-1082.13" y="615"/><use href="#P" x="-1082.128" y="513"/><use href="#D" x="-1082.136" y="615"/><use href="#Q" x="-1082.132" y="513"/><use href="#B" x="-1262.489" y="615"/><use href="#P" x="-1262.488" y="513"/><use href="#D" x="-1262.495" y="615"/><use href="#Q" x="-1262.492" y="513"/><g class="D"><use href="#B" x="-1442.841" y="615"/><use href="#P" x="-1442.839" y="513"/><use href="#D" x="-1442.847" y="615"/><use href="#Q" x="-1442.843" y="513"/></g><g class="C"><use href="#B" x="89.67" y="666.08"/><use href="#I" y="615"/><use href="#D" x="89.68" y="666.08"/><use href="#J" y="615"/></g><use href="#B" x="-90.71" y="666.08"/><use href="#I" x="-180.37" y="615"/><use href="#D" x="-90.7" y="666.08"/><use href="#J" x="-180.37" y="615"/><use href="#B" x="-271.07" y="666.08"/><use href="#I" x="-360.73" y="615"/><use href="#D" x="-271.06" y="666.08"/><use href="#J" x="-360.73" y="615"/><use href="#B" x="-451.43" y="666.08"/><use href="#I" x="-541.1" y="615"/><use href="#D" x="-451.42" y="666.08"/><use href="#J" x="-541.1" y="615"/><use href="#B" x="-631.79" y="666.08"/><use href="#K" y="615"/><use href="#L" y="615"/><use href="#J" x="-721.46" y="615"/><use href="#B" x="-812.161" y="666.08"/><use href="#I" x="-901.822" y="615"/><use href="#D" x="-812.151" y="666.08"/><use href="#J" x="-901.828" y="615"/><use href="#M" y="615"/><use href="#I" x="-1082.189" y="615"/><use href="#N" y="615"/><use href="#J" x="-1082.195" y="615"/><use href="#B" x="-1172.888" y="666.08"/><use href="#I" x="-1262.548" y="615"/><use href="#D" x="-1172.878" y="666.08"/><use href="#J" x="-1262.554" y="615"/><use href="#B" x="-1353.255" y="666.08"/><use href="#I" x="-1442.916" y="615"/><use href="#D" x="-1353.245" y="666.08"/><use href="#O" y="615"/><g class="C"><use href="#B" x="-1533.614" y="666.08"/><use href="#I" x="-1623.275" y="615"/><use href="#D" x="-1533.604" y="666.08"/><use href="#J" x="-1623.281" y="615"/></g><g class="D"><use href="#B" y="717"/><use href="#P" y="615"/><use href="#D" y="717"/><use href="#Q" y="615"/></g><use href="#B" x="-180.35" y="717"/><use href="#P" x="-180.35" y="615"/><use href="#D" x="-180.35" y="717"/><use href="#Q" x="-180.35" y="615"/><use href="#B" x="-360.71" y="717"/><use href="#P" x="-360.71" y="615"/><use href="#D" x="-360.71" y="717"/><use href="#Q" x="-360.71" y="615"/><use href="#B" x="-541.06" y="717"/><use href="#P" x="-541.06" y="615"/><use href="#D" x="-541.07" y="717"/><use href="#Q" x="-541.06" y="615"/><use href="#F" y="717"/><use href="#R" y="615"/><use href="#G" y="717"/><use href="#S" y="615"/><use href="#H" y="717"/><use href="#P" x="-901.777" y="615"/><use href="#D" x="-901.784" y="717"/><use href="#Q" x="-901.781" y="615"/><use href="#B" x="-1082.13" y="717"/><use href="#P" x="-1082.128" y="615"/><use href="#D" x="-1082.136" y="717"/><use href="#Q" x="-1082.132" y="615"/><use href="#B" x="-1262.489" y="717"/><use href="#P" x="-1262.488" y="615"/><use href="#D" x="-1262.495" y="717"/><use href="#Q" x="-1262.492" y="615"/><g class="D"><use href="#B" x="-1442.841" y="717"/><use href="#P" x="-1442.839" y="615"/><use href="#D" x="-1442.847" y="717"/><use href="#Q" x="-1442.843" y="615"/></g><g class="C"><use href="#B" x="89.67" y="769.08"/><use href="#I" y="718"/><use href="#D" x="89.68" y="769.08"/><use href="#J" y="718"/></g><use href="#B" x="-90.71" y="769.08"/><use href="#I" x="-180.37" y="718"/><use href="#D" x="-90.7" y="769.08"/><use href="#J" x="-180.37" y="718"/><use href="#B" x="-271.07" y="769.08"/><use href="#I" x="-360.73" y="718"/><use href="#D" x="-271.06" y="769.08"/><use href="#J" x="-360.73" y="718"/><use href="#B" x="-451.43" y="769.08"/><use href="#I" x="-541.1" y="718"/><use href="#D" x="-451.42" y="769.08"/><use href="#J" x="-541.1" y="718"/><use href="#B" x="-631.79" y="769.08"/><use href="#K" y="718"/><use href="#L" y="718"/><use href="#J" x="-721.46" y="718"/><use href="#B" x="-812.161" y="769.08"/><use href="#I" x="-901.822" y="718"/><use href="#D" x="-812.151" y="769.08"/><use href="#J" x="-901.828" y="718"/><use href="#M" y="718"/><use href="#I" x="-1082.189" y="718"/><use href="#N" y="718"/><use href="#J" x="-1082.195" y="718"/><use href="#B" x="-1172.888" y="769.08"/><use href="#I" x="-1262.548" y="718"/><use href="#D" x="-1172.878" y="769.08"/><use href="#J" x="-1262.554" y="718"/><use href="#B" x="-1353.255" y="769.08"/><use href="#I" x="-1442.916" y="718"/><use href="#D" x="-1353.245" y="769.08"/><use href="#O" y="718"/><g class="C"><use href="#B" x="-1533.614" y="769.08"/><use href="#I" x="-1623.275" y="718"/><use href="#D" x="-1533.604" y="769.08"/><use href="#J" x="-1623.281" y="718"/></g><g class="D"><use href="#B" y="820"/><use href="#P" y="718"/><use href="#D" y="820"/><use href="#Q" y="718"/></g><use href="#B" x="-180.35" y="820"/><use href="#P" x="-180.35" y="718"/><use href="#D" x="-180.35" y="820"/><use href="#Q" x="-180.35" y="718"/><use href="#B" x="-360.71" y="820"/><use href="#P" x="-360.71" y="718"/><use href="#D" x="-360.71" y="820"/><use href="#Q" x="-360.71" y="718"/><use href="#B" x="-541.06" y="820"/><use href="#P" x="-541.06" y="718"/><use href="#D" x="-541.07" y="820"/><use href="#Q" x="-541.06" y="718"/><use href="#F" y="820"/><use href="#R" y="718"/><use href="#G" y="820"/><use href="#S" y="718"/><use href="#H" y="820"/><use href="#P" x="-901.777" y="718"/><use href="#D" x="-901.784" y="820"/><use href="#Q" x="-901.781" y="718"/><use href="#B" x="-1082.13" y="820"/><use href="#P" x="-1082.128" y="718"/><use href="#D" x="-1082.136" y="820"/><use href="#Q" x="-1082.132" y="718"/><use href="#B" x="-1262.489" y="820"/><use href="#P" x="-1262.488" y="718"/><use href="#D" x="-1262.495" y="820"/><use href="#Q" x="-1262.492" y="718"/><g class="D"><use href="#B" x="-1442.841" y="820"/><use href="#P" x="-1442.839" y="718"/><use href="#D" x="-1442.847" y="820"/><use href="#Q" x="-1442.843" y="718"/></g><g class="C"><use href="#B" x="89.67" y="871.08"/><use href="#I" y="820"/><use href="#D" x="89.68" y="871.08"/><use href="#J" y="820"/></g><use href="#B" x="-90.71" y="871.08"/><use href="#I" x="-180.37" y="820"/><use href="#D" x="-90.7" y="871.08"/><use href="#J" x="-180.37" y="820"/><use href="#B" x="-271.07" y="871.08"/><use href="#I" x="-360.73" y="820"/><use href="#D" x="-271.06" y="871.08"/><use href="#J" x="-360.73" y="820"/><use href="#B" x="-451.43" y="871.08"/><use href="#I" x="-541.1" y="820"/><use href="#D" x="-451.42" y="871.08"/><use href="#J" x="-541.1" y="820"/><use href="#B" x="-631.79" y="871.08"/><use href="#K" y="820"/><use href="#L" y="820"/><use href="#J" x="-721.46" y="820"/><use href="#B" x="-812.161" y="871.08"/><use href="#I" x="-901.822" y="820"/><use href="#D" x="-812.151" y="871.08"/><use href="#J" x="-901.828" y="820"/><use href="#M" y="820"/><use href="#I" x="-1082.189" y="820"/><use href="#N" y="820"/><use href="#J" x="-1082.195" y="820"/><use href="#B" x="-1172.888" y="871.08"/><use href="#I" x="-1262.548" y="820"/><use href="#D" x="-1172.878" y="871.08"/><use href="#J" x="-1262.554" y="820"/><use href="#B" x="-1353.255" y="871.08"/><use href="#I" x="-1442.916" y="820"/><use href="#D" x="-1353.245" y="871.08"/><use href="#O" y="820"/><g class="C"><use href="#B" x="-1533.614" y="871.08"/><use href="#I" x="-1623.275" y="820"/><use href="#D" x="-1533.604" y="871.08"/><use href="#J" x="-1623.281" y="820"/></g><g class="D"><use href="#B" y="922"/><use href="#T"/><use href="#D" y="922"/><use href="#U"/></g><use href="#B" x="-180.35" y="922"/><use href="#T" x="-180.35"/><use href="#D" x="-180.35" y="922"/><use href="#U" x="-180.35"/><use href="#B" x="-360.71" y="922"/><use href="#T" x="-360.71"/><use href="#D" x="-360.71" y="922"/><use href="#U" x="-360.71"/><use href="#B" x="-541.06" y="922"/><use href="#T" x="-541.06"/><use href="#D" x="-541.07" y="922"/><use href="#U" x="-541.06"/><use href="#F" y="922"/><path d="M1005.06 976.289a26.01 26.01 0 0 0-2.8-1.39c-3.128-1.3-6.258-1.96-9.388-1.96-2.65 0-5.26.42-7.82 1.27a29.77 29.77 0 0 0-7.33 3.62c-2.32 1.56-4.52 3.44-6.58 5.64-2.06 2.19-3.919 4.62-5.569 7.27l-19.82 31.621-1.111 1.82-5.05 7.07c-1.76 2.28-3.6 4.3-5.51 6.06s-3.89 3.17-5.93 4.24c-2.04 1.06-4.15 1.6-6.32 1.6-2.35 0-4.76-.74-7.24-2.22s-5.04-3.93-7.69-7.37l-4.04 2.22c2.96 2.87 6 4.95 9.13 6.26 3.13 1.3 6.281 1.96 9.451 1.96 2.65 0 5.259-.42 7.819-1.27s5.021-2.05 7.371-3.62c2.35-1.56 4.539-3.43 6.579-5.61 2.04-2.17 3.891-4.58 5.541-7.24l21.769-35.001a23.38 23.38 0 0 1 .85-1.08 10 10 0 0 0 .85-1.21l.911-1.3c1.43-1.91 2.91-3.7 4.429-5.38 1.52-1.67 3.091-3.13 4.691-4.37 1.61-1.24 3.259-2.23 4.949-2.97s3.43-1.11 5.21-1.11c2.35 0 4.78.73 7.3 2.18 1.008.58 2.018 1.32 3.038 2.22l2.3-1.98.01.03z"/><use href="#G" y="922"/><path d="M932.019 976.289a26.01 26.01 0 0 1 2.8-1.39c3.13-1.3 6.26-1.96 9.39-1.96 2.65 0 5.26.42 7.82 1.27a29.77 29.77 0 0 1 7.33 3.62c2.32 1.56 4.52 3.44 6.58 5.64 2.06 2.19 3.92 4.62 5.57 7.27l19.82 31.621 1.11 1.82 5.05 7.07c1.76 2.28 3.601 4.3 5.511 6.06s3.89 3.17 5.93 4.24c2.04 1.06 4.15 1.6 6.32 1.6 2.35 0 4.76-.74 7.24-2.22s5.04-3.93 7.69-7.37l4.04 2.22c-2.96 2.87-6 4.95-9.13 6.26-3.13 1.3-6.28 1.96-9.45 1.96-2.65 0-5.26-.42-7.82-1.27s-5.02-2.05-7.37-3.62c-2.351-1.56-4.541-3.43-6.581-5.61-2.04-2.17-3.89-4.58-5.54-7.24l-21.77-35.001a23.38 23.38 0 0 0-.85-1.08 10 10 0 0 1-.85-1.21l-.91-1.3a75.09 75.09 0 0 0-4.43-5.38c-1.52-1.67-3.09-3.13-4.69-4.37-1.61-1.24-3.26-2.23-4.95-2.97s-3.43-1.11-5.21-1.11c-2.35 0-4.78.73-7.3 2.18-1.01.58-2.02 1.32-3.04 2.22l-2.3-1.98-.01.03z"/><use href="#H" y="922"/><use href="#T" x="-901.777"/><use href="#D" x="-901.784" y="922"/><use href="#U" x="-901.781"/><use href="#B" x="-1082.13" y="922"/><use href="#T" x="-1082.128"/><use href="#D" x="-1082.136" y="922"/><use href="#U" x="-1082.132"/><use href="#B" x="-1262.489" y="922"/><use href="#T" x="-1262.488"/><use href="#D" x="-1262.495" y="922"/><use href="#U" x="-1262.492"/><g class="D"><use href="#B" x="-1442.841" y="922"/><use href="#T" x="-1442.839"/><use href="#D" x="-1442.847" y="922"/><use href="#U" x="-1442.843"/></g><g class="C"><use href="#B" x="89.67" y="974.08"/><use href="#P" x="89.67" y="872.081"/><use href="#D" x="89.68" y="974.08"/><use href="#Q" x="89.68" y="872.081"/></g><use href="#B" x="-90.71" y="974.08"/><use href="#P" x="-90.7" y="872.081"/><use href="#D" x="-90.7" y="974.08"/><use href="#Q" x="-90.69" y="872.081"/><use href="#B" x="-271.07" y="974.08"/><use href="#P" x="-271.06" y="872.081"/><use href="#D" x="-271.06" y="974.08"/><use href="#Q" x="-271.05" y="872.081"/><use href="#B" x="-451.43" y="974.08"/><use href="#P" x="-451.43" y="872.081"/><use href="#D" x="-451.42" y="974.08"/><use href="#Q" x="-451.42" y="872.081"/><use href="#B" x="-631.79" y="974.08"/><use href="#V"/><use href="#L" y="923"/><use href="#Q" x="-631.78" y="872.081"/><use href="#B" x="-812.161" y="974.08"/><use href="#P" x="-812.152" y="872.081"/><use href="#D" x="-812.151" y="974.08"/><use href="#Q" x="-812.148" y="872.081"/><use href="#M" y="923"/><use href="#P" x="-992.519" y="872.081"/><use href="#N" y="923"/><use href="#Q" x="-992.515" y="872.081"/><use href="#B" x="-1172.888" y="974.08"/><use href="#P" x="-1172.878" y="872.081"/><use href="#D" x="-1172.878" y="974.08"/><use href="#Q" x="-1172.874" y="872.081"/><use href="#B" x="-1353.255" y="974.08"/><use href="#P" x="-1353.246" y="872.081"/><use href="#D" x="-1353.245" y="974.08"/><use href="#W"/><g class="C"><use href="#B" x="-1533.614" y="974.08"/><use href="#P" x="-1533.605" y="872.081"/><use href="#D" x="-1533.604" y="974.08"/><use href="#Q" x="-1533.601" y="872.081"/></g><g class="D"><use href="#B" y="1025"/><use href="#P" y="923.001"/><use href="#D" y="1025"/><use href="#Q" y="923.001"/></g><use href="#B" x="-180.35" y="1025"/><use href="#P" x="-180.35" y="923.001"/><use href="#D" x="-180.35" y="1025"/><use href="#Q" x="-180.35" y="923.001"/><use href="#B" x="-360.71" y="1025"/><use href="#P" x="-360.71" y="923.001"/><use href="#D" x="-360.71" y="1025"/><use href="#Q" x="-360.71" y="923.001"/><use href="#B" x="-541.06" y="1025"/><use href="#P" x="-541.06" y="923.001"/><use href="#D" x="-541.07" y="1025"/><use href="#Q" x="-541.06" y="923.001"/><use href="#F" y="1025"/><use href="#R" y="923.001"/><use href="#G" y="1025"/><use href="#S" y="923.001"/><use href="#H" y="1025"/><use href="#P" x="-901.777" y="923.001"/><use href="#D" x="-901.784" y="1025"/><use href="#Q" x="-901.781" y="923.001"/><use href="#B" x="-1082.13" y="1025"/><use href="#P" x="-1082.128" y="923.001"/><use href="#D" x="-1082.136" y="1025"/><use href="#Q" x="-1082.132" y="923.001"/><use href="#B" x="-1262.489" y="1025"/><use href="#P" x="-1262.488" y="923.001"/><use href="#D" x="-1262.495" y="1025"/><use href="#Q" x="-1262.492" y="923.001"/><g class="D"><use href="#B" x="-1442.841" y="1025"/><use href="#P" x="-1442.839" y="923.001"/><use href="#D" x="-1442.847" y="1025"/><use href="#Q" x="-1442.843" y="923.001"/></g><g class="C"><use href="#B" x="89.67" y="1076.08"/><use href="#P" x="89.67" y="974.081"/><use href="#D" x="89.68" y="1076.08"/><use href="#Q" x="89.68" y="974.081"/></g><use href="#B" x="-90.71" y="1076.08"/><use href="#P" x="-90.7" y="974.081"/><use href="#D" x="-90.7" y="1076.08"/><use href="#Q" x="-90.69" y="974.081"/><use href="#B" x="-271.07" y="1076.08"/><use href="#P" x="-271.06" y="974.081"/><use href="#D" x="-271.06" y="1076.08"/><use href="#Q" x="-271.05" y="974.081"/><use href="#B" x="-451.43" y="1076.08"/><use href="#P" x="-451.43" y="974.081"/><use href="#D" x="-451.42" y="1076.08"/><use href="#Q" x="-451.42" y="974.081"/><use href="#B" x="-631.79" y="1076.08"/><use href="#V" y="102"/><use href="#L" y="1025"/><use href="#Q" x="-631.78" y="974.081"/><use href="#B" x="-812.161" y="1076.08"/><use href="#P" x="-812.152" y="974.081"/><use href="#D" x="-812.151" y="1076.08"/><use href="#Q" x="-812.148" y="974.081"/><use href="#M" y="1025"/><use href="#P" x="-992.519" y="974.081"/><use href="#N" y="1025"/><use href="#Q" x="-992.515" y="974.081"/><use href="#B" x="-1172.888" y="1076.08"/><use href="#P" x="-1172.878" y="974.081"/><use href="#D" x="-1172.878" y="1076.08"/><use href="#Q" x="-1172.874" y="974.081"/><use href="#B" x="-1353.255" y="1076.08"/><use href="#P" x="-1353.246" y="974.081"/><use href="#D" x="-1353.245" y="1076.08"/><use href="#W" y="102"/><g class="C"><use href="#B" x="-1533.614" y="1076.08"/><use href="#P" x="-1533.605" y="974.081"/><use href="#D" x="-1533.604" y="1076.08"/><use href="#Q" x="-1533.601" y="974.081"/></g><g class="D"><use href="#B" y="1127"/><use href="#P" y="1025.001"/><use href="#D" y="1127"/><use href="#Q" y="1025.001"/></g><use href="#B" x="-180.35" y="1127"/><use href="#P" x="-180.35" y="1025.001"/><use href="#D" x="-180.35" y="1127"/><use href="#Q" x="-180.35" y="1025.001"/><use href="#B" x="-360.71" y="1127"/><use href="#P" x="-360.71" y="1025.001"/><use href="#D" x="-360.71" y="1127"/><use href="#Q" x="-360.71" y="1025.001"/><use href="#B" x="-541.06" y="1127"/><use href="#P" x="-541.06" y="1025.001"/><use href="#D" x="-541.07" y="1127"/><use href="#Q" x="-541.06" y="1025.001"/><use href="#F" y="1127"/><use href="#R" y="1025.001"/><use href="#G" y="1127"/><use href="#S" y="1025.001"/><use href="#H" y="1127"/><use href="#P" x="-901.777" y="1025.001"/><use href="#D" x="-901.784" y="1127"/><use href="#Q" x="-901.781" y="1025.001"/><use href="#B" x="-1082.13" y="1127"/><use href="#P" x="-1082.128" y="1025.001"/><use href="#D" x="-1082.136" y="1127"/><use href="#Q" x="-1082.132" y="1025.001"/><use href="#B" x="-1262.489" y="1127"/><use href="#P" x="-1262.488" y="1025.001"/><use href="#D" x="-1262.495" y="1127"/><use href="#Q" x="-1262.492" y="1025.001"/><g class="D"><use href="#B" x="-1442.841" y="1127"/><use href="#P" x="-1442.839" y="1025.001"/><use href="#D" x="-1442.847" y="1127"/><use href="#Q" x="-1442.843" y="1025.001"/></g><g class="C"><use href="#B" x="89.67" y="1179.08"/><use href="#P" x="89.67" y="1077.081"/><use href="#D" x="89.68" y="1179.08"/><use href="#Q" x="89.68" y="1077.081"/></g><use href="#B" x="-90.71" y="1179.08"/><use href="#P" x="-90.7" y="1077.081"/><use href="#D" x="-90.7" y="1179.08"/><use href="#Q" x="-90.69" y="1077.081"/><use href="#B" x="-271.07" y="1179.08"/><use href="#P" x="-271.06" y="1077.081"/><use href="#D" x="-271.06" y="1179.08"/><use href="#Q" x="-271.05" y="1077.081"/><use href="#B" x="-451.43" y="1179.08"/><use href="#P" x="-451.43" y="1077.081"/><use href="#D" x="-451.42" y="1179.08"/><use href="#Q" x="-451.42" y="1077.081"/><use href="#B" x="-631.79" y="1179.08"/><use href="#V" y="205"/><use href="#L" y="1128"/><use href="#Q" x="-631.78" y="1077.081"/><use href="#B" x="-812.161" y="1179.08"/><use href="#P" x="-812.152" y="1077.081"/><use href="#D" x="-812.151" y="1179.08"/><use href="#Q" x="-812.148" y="1077.081"/><use href="#M" y="1128"/><use href="#P" x="-992.519" y="1077.081"/><use href="#N" y="1128"/><use href="#Q" x="-992.515" y="1077.081"/><use href="#B" x="-1172.888" y="1179.08"/><use href="#P" x="-1172.878" y="1077.081"/><use href="#D" x="-1172.878" y="1179.08"/><use href="#Q" x="-1172.874" y="1077.081"/><use href="#B" x="-1353.255" y="1179.08"/><use href="#P" x="-1353.246" y="1077.081"/><use href="#D" x="-1353.245" y="1179.08"/><use href="#W" y="205"/><g class="C"><use href="#B" x="-1533.614" y="1179.08"/><use href="#P" x="-1533.605" y="1077.081"/><use href="#D" x="-1533.604" y="1179.08"/><use href="#Q" x="-1533.601" y="1077.081"/></g><g class="D"><use href="#B" y="1230"/><use href="#P" y="1128.001"/><use href="#D" y="1230"/><use href="#Q" y="1128.001"/></g><use href="#B" x="-180.35" y="1230"/><use href="#P" x="-180.35" y="1128.001"/><use href="#D" x="-180.35" y="1230"/><use href="#Q" x="-180.35" y="1128.001"/><use href="#B" x="-360.71" y="1230"/><use href="#P" x="-360.71" y="1128.001"/><use href="#D" x="-360.71" y="1230"/><use href="#Q" x="-360.71" y="1128.001"/><use href="#B" x="-541.06" y="1230"/><use href="#P" x="-541.06" y="1128.001"/><use href="#D" x="-541.07" y="1230"/><use href="#Q" x="-541.06" y="1128.001"/><use href="#F" y="1230"/><use href="#R" y="1128.001"/><use href="#G" y="1230"/><use href="#S" y="1128.001"/><use href="#H" y="1230"/><use href="#P" x="-901.777" y="1128.001"/><use href="#D" x="-901.784" y="1230"/><use href="#Q" x="-901.781" y="1128.001"/><use href="#B" x="-1082.13" y="1230"/><use href="#P" x="-1082.128" y="1128.001"/><use href="#D" x="-1082.136" y="1230"/><use href="#Q" x="-1082.132" y="1128.001"/><use href="#B" x="-1262.489" y="1230"/><use href="#P" x="-1262.488" y="1128.001"/><use href="#D" x="-1262.495" y="1230"/><use href="#Q" x="-1262.492" y="1128.001"/><g class="D"><use href="#B" x="-1442.841" y="1230"/><use href="#P" x="-1442.839" y="1128.001"/><use href="#D" x="-1442.847" y="1230"/><use href="#Q" x="-1442.843" y="1128.001"/></g><g class="C"><use href="#B" x="89.67" y="1281.08"/><use href="#P" x="89.67" y="1179.081"/><use href="#D" x="89.68" y="1281.08"/><use href="#Q" x="89.68" y="1179.081"/></g><use href="#B" x="-90.71" y="1281.08"/><use href="#P" x="-90.7" y="1179.081"/><use href="#D" x="-90.7" y="1281.08"/><use href="#Q" x="-90.69" y="1179.081"/><use href="#B" x="-271.07" y="1281.08"/><use href="#P" x="-271.06" y="1179.081"/><use href="#D" x="-271.06" y="1281.08"/><use href="#Q" x="-271.05" y="1179.081"/><use href="#B" x="-451.43" y="1281.08"/><use href="#P" x="-451.43" y="1179.081"/><use href="#D" x="-451.42" y="1281.08"/><use href="#Q" x="-451.42" y="1179.081"/><use href="#B" x="-631.79" y="1281.08"/><use href="#V" y="307"/><use href="#L" y="1230"/><use href="#Q" x="-631.78" y="1179.081"/><use href="#B" x="-812.161" y="1281.08"/><use href="#P" x="-812.152" y="1179.081"/><use href="#D" x="-812.151" y="1281.08"/><use href="#Q" x="-812.148" y="1179.081"/><use href="#M" y="1230"/><use href="#P" x="-992.519" y="1179.081"/><use href="#N" y="1230"/><use href="#Q" x="-992.515" y="1179.081"/><use href="#B" x="-1172.888" y="1281.08"/><use href="#P" x="-1172.878" y="1179.081"/><use href="#D" x="-1172.878" y="1281.08"/><use href="#Q" x="-1172.874" y="1179.081"/><use href="#B" x="-1353.255" y="1281.08"/><use href="#P" x="-1353.246" y="1179.081"/><use href="#D" x="-1353.245" y="1281.08"/><use href="#W" y="307"/><g class="C"><use href="#B" x="-1533.614" y="1281.08"/><use href="#P" x="-1533.605" y="1179.081"/><use href="#D" x="-1533.604" y="1281.08"/><use href="#Q" x="-1533.601" y="1179.081"/></g><g class="D"><use href="#B" y="1332"/><use href="#P" y="1230.001"/><use href="#D" y="1332"/><use href="#Q" y="1230.001"/></g><use href="#B" x="-180.35" y="1332"/><use href="#P" x="-180.35" y="1230.001"/><use href="#D" x="-180.35" y="1332"/><use href="#Q" x="-180.35" y="1230.001"/><use href="#B" x="-360.71" y="1332"/><use href="#P" x="-360.71" y="1230.001"/><use href="#D" x="-360.71" y="1332"/><use href="#Q" x="-360.71" y="1230.001"/><use href="#B" x="-541.06" y="1332"/><use href="#P" x="-541.06" y="1230.001"/><use href="#D" x="-541.07" y="1332"/><use href="#Q" x="-541.06" y="1230.001"/><use href="#F" y="1332"/><use href="#R" y="1230.001"/><use href="#G" y="1332"/><use href="#S" y="1230.001"/><use href="#H" y="1332"/><use href="#P" x="-901.777" y="1230.001"/><use href="#D" x="-901.784" y="1332"/><use href="#Q" x="-901.781" y="1230.001"/><use href="#B" x="-1082.13" y="1332"/><use href="#P" x="-1082.128" y="1230.001"/><use href="#D" x="-1082.136" y="1332"/><use href="#Q" x="-1082.132" y="1230.001"/><use href="#B" x="-1262.489" y="1332"/><use href="#P" x="-1262.488" y="1230.001"/><use href="#D" x="-1262.495" y="1332"/><use href="#Q" x="-1262.492" y="1230.001"/><g class="D"><use href="#B" x="-1442.841" y="1332"/><use href="#P" x="-1442.839" y="1230.001"/><use href="#D" x="-1442.847" y="1332"/><use href="#Q" x="-1442.843" y="1230.001"/></g><g class="C"><use href="#B" x="89.67" y="1384.08"/><use href="#P" x="89.67" y="1282.081"/><use href="#D" x="89.68" y="1384.08"/><use href="#Q" x="89.68" y="1282.081"/></g><use href="#B" x="-90.71" y="1384.08"/><use href="#P" x="-90.7" y="1282.081"/><use href="#D" x="-90.7" y="1384.08"/><use href="#Q" x="-90.69" y="1282.081"/><use href="#B" x="-271.07" y="1384.08"/><use href="#P" x="-271.06" y="1282.081"/><use href="#D" x="-271.06" y="1384.08"/><use href="#Q" x="-271.05" y="1282.081"/><use href="#B" x="-451.43" y="1384.08"/><use href="#P" x="-451.43" y="1282.081"/><use href="#D" x="-451.42" y="1384.08"/><use href="#Q" x="-451.42" y="1282.081"/><use href="#B" x="-631.79" y="1384.08"/><use href="#V" y="410"/><use href="#L" y="1333"/><use href="#Q" x="-631.78" y="1282.081"/><use href="#B" x="-812.161" y="1384.08"/><use href="#P" x="-812.152" y="1282.081"/><use href="#D" x="-812.151" y="1384.08"/><use href="#Q" x="-812.148" y="1282.081"/><use href="#M" y="1333"/><use href="#P" x="-992.519" y="1282.081"/><use href="#N" y="1333"/><use href="#Q" x="-992.515" y="1282.081"/><use href="#B" x="-1172.888" y="1384.08"/><use href="#P" x="-1172.878" y="1282.081"/><use href="#D" x="-1172.878" y="1384.08"/><use href="#Q" x="-1172.874" y="1282.081"/><use href="#B" x="-1353.255" y="1384.08"/><use href="#P" x="-1353.246" y="1282.081"/><use href="#D" x="-1353.245" y="1384.08"/><use href="#W" y="410"/><g class="C"><use href="#B" x="-1533.614" y="1384.08"/><use href="#P" x="-1533.605" y="1282.081"/><use href="#D" x="-1533.604" y="1384.08"/><use href="#Q" x="-1533.601" y="1282.081"/></g><g class="D"><use href="#B" y="1435"/><use href="#P" y="1333.001"/><use href="#D" y="1435"/><use href="#Q" y="1333.001"/></g><use href="#B" x="-180.35" y="1435"/><use href="#P" x="-180.35" y="1333.001"/><use href="#D" x="-180.35" y="1435"/><use href="#Q" x="-180.35" y="1333.001"/><use href="#B" x="-360.71" y="1435"/><use href="#P" x="-360.71" y="1333.001"/><use href="#D" x="-360.71" y="1435"/><use href="#Q" x="-360.71" y="1333.001"/><use href="#B" x="-541.06" y="1435"/><use href="#P" x="-541.06" y="1333.001"/><use href="#D" x="-541.07" y="1435"/><use href="#Q" x="-541.06" y="1333.001"/><use href="#F" y="1435"/><use href="#R" y="1333.001"/><use href="#G" y="1435"/><use href="#S" y="1333.001"/><use href="#H" y="1435"/><use href="#P" x="-901.777" y="1333.001"/><use href="#D" x="-901.784" y="1435"/><use href="#Q" x="-901.781" y="1333.001"/><use href="#B" x="-1082.13" y="1435"/><use href="#P" x="-1082.128" y="1333.001"/><use href="#D" x="-1082.136" y="1435"/><use href="#Q" x="-1082.132" y="1333.001"/><use href="#B" x="-1262.489" y="1435"/><use href="#P" x="-1262.488" y="1333.001"/><use href="#D" x="-1262.495" y="1435"/><use href="#Q" x="-1262.492" y="1333.001"/><g class="D"><use href="#B" x="-1442.841" y="1435"/><use href="#P" x="-1442.839" y="1333.001"/><use href="#D" x="-1442.847" y="1435"/><use href="#Q" x="-1442.843" y="1333.001"/></g><g class="C"><use href="#B" x="89.67" y="1486.08"/><use href="#P" x="89.67" y="1384.081"/><use href="#D" x="89.68" y="1486.08"/><use href="#Q" x="89.68" y="1384.081"/></g><use href="#B" x="-90.71" y="1486.08"/><use href="#P" x="-90.7" y="1384.081"/><use href="#D" x="-90.7" y="1486.08"/><use href="#Q" x="-90.69" y="1384.081"/><use href="#B" x="-271.07" y="1486.08"/><use href="#P" x="-271.06" y="1384.081"/><use href="#D" x="-271.06" y="1486.08"/><use href="#Q" x="-271.05" y="1384.081"/><use href="#B" x="-451.43" y="1486.08"/><use href="#P" x="-451.43" y="1384.081"/><use href="#D" x="-451.42" y="1486.08"/><use href="#Q" x="-451.42" y="1384.081"/><use href="#B" x="-631.79" y="1486.08"/><use href="#V" y="512"/><use href="#L" y="1435"/><use href="#Q" x="-631.78" y="1384.081"/><use href="#B" x="-812.161" y="1486.08"/><use href="#P" x="-812.152" y="1384.081"/><use href="#D" x="-812.151" y="1486.08"/><use href="#Q" x="-812.148" y="1384.081"/><use href="#M" y="1435"/><use href="#P" x="-992.519" y="1384.081"/><use href="#N" y="1435"/><use href="#Q" x="-992.515" y="1384.081"/><use href="#B" x="-1172.888" y="1486.08"/><use href="#P" x="-1172.878" y="1384.081"/><use href="#D" x="-1172.878" y="1486.08"/><use href="#Q" x="-1172.874" y="1384.081"/><use href="#B" x="-1353.255" y="1486.08"/><use href="#P" x="-1353.246" y="1384.081"/><use href="#D" x="-1353.245" y="1486.08"/><use href="#W" y="512"/><g class="C"><use href="#B" x="-1533.614" y="1486.08"/><use href="#P" x="-1533.605" y="1384.081"/><use href="#D" x="-1533.604" y="1486.08"/><use href="#Q" x="-1533.601" y="1384.081"/></g><g class="D"><use href="#B" y="1537"/><use href="#P" y="1435.001"/><use href="#D" y="1537"/><use href="#Q" y="1435.001"/></g><use href="#B" x="-180.35" y="1537"/><use href="#P" x="-180.35" y="1435.001"/><use href="#D" x="-180.35" y="1537"/><use href="#Q" x="-180.35" y="1435.001"/><use href="#B" x="-360.71" y="1537"/><use href="#P" x="-360.71" y="1435.001"/><use href="#D" x="-360.71" y="1537"/><use href="#Q" x="-360.71" y="1435.001"/><use href="#B" x="-541.06" y="1537"/><use href="#P" x="-541.06" y="1435.001"/><use href="#D" x="-541.07" y="1537"/><use href="#Q" x="-541.06" y="1435.001"/><use href="#F" y="1537"/><use href="#R" y="1435.001"/><use href="#G" y="1537"/><use href="#S" y="1435.001"/><use href="#H" y="1537"/><use href="#P" x="-901.777" y="1435.001"/><use href="#D" x="-901.784" y="1537"/><use href="#Q" x="-901.781" y="1435.001"/><use href="#B" x="-1082.13" y="1537"/><use href="#P" x="-1082.128" y="1435.001"/><use href="#D" x="-1082.136" y="1537"/><use href="#Q" x="-1082.132" y="1435.001"/><use href="#B" x="-1262.489" y="1537"/><use href="#P" x="-1262.488" y="1435.001"/><use href="#D" x="-1262.495" y="1537"/><use href="#Q" x="-1262.492" y="1435.001"/><g class="D"><use href="#B" x="-1442.841" y="1537"/><use href="#P" x="-1442.839" y="1435.001"/><use href="#D" x="-1442.847" y="1537"/><use href="#Q" x="-1442.843" y="1435.001"/></g><g class="C"><use href="#B" x="89.67" y="1589.08"/><use href="#P" x="89.67" y="1487.081"/><use href="#D" x="89.68" y="1589.08"/><use href="#Q" x="89.68" y="1487.081"/></g><use href="#B" x="-90.71" y="1589.08"/><use href="#P" x="-90.7" y="1487.081"/><use href="#D" x="-90.7" y="1589.08"/><use href="#Q" x="-90.69" y="1487.081"/><use href="#B" x="-271.07" y="1589.08"/><use href="#P" x="-271.06" y="1487.081"/><use href="#D" x="-271.06" y="1589.08"/><use href="#Q" x="-271.05" y="1487.081"/><use href="#B" x="-451.43" y="1589.08"/><use href="#P" x="-451.43" y="1487.081"/><use href="#D" x="-451.42" y="1589.08"/><use href="#Q" x="-451.42" y="1487.081"/><use href="#B" x="-631.79" y="1589.08"/><use href="#V" y="615"/><use href="#L" y="1538"/><use href="#Q" x="-631.78" y="1487.081"/><use href="#B" x="-812.161" y="1589.08"/><use href="#P" x="-812.152" y="1487.081"/><use href="#D" x="-812.151" y="1589.08"/><use href="#Q" x="-812.148" y="1487.081"/><use href="#M" y="1538"/><use href="#P" x="-992.519" y="1487.081"/><use href="#N" y="1538"/><use href="#Q" x="-992.515" y="1487.081"/><use href="#B" x="-1172.888" y="1589.08"/><use href="#P" x="-1172.878" y="1487.081"/><use href="#D" x="-1172.878" y="1589.08"/><use href="#Q" x="-1172.874" y="1487.081"/><use href="#B" x="-1353.255" y="1589.08"/><use href="#P" x="-1353.246" y="1487.081"/><use href="#D" x="-1353.245" y="1589.08"/><use href="#W" y="615"/><g class="C"><use href="#B" x="-1533.614" y="1589.08"/><use href="#P" x="-1533.605" y="1487.081"/><use href="#D" x="-1533.604" y="1589.08"/><use href="#Q" x="-1533.601" y="1487.081"/></g><g class="D"><use href="#B" y="1640"/><use href="#P" y="1538.001"/><use href="#D" y="1640"/><use href="#Q" y="1538.001"/></g><use href="#B" x="-180.35" y="1640"/><use href="#P" x="-180.35" y="1538.001"/><use href="#D" x="-180.35" y="1640"/><use href="#Q" x="-180.35" y="1538.001"/><use href="#B" x="-360.71" y="1640"/><use href="#P" x="-360.71" y="1538.001"/><use href="#D" x="-360.71" y="1640"/><use href="#Q" x="-360.71" y="1538.001"/><use href="#B" x="-541.06" y="1640"/><use href="#P" x="-541.06" y="1538.001"/><use href="#D" x="-541.07" y="1640"/><use href="#Q" x="-541.06" y="1538.001"/><use href="#F" y="1640"/><use href="#R" y="1538.001"/><use href="#G" y="1640"/><use href="#S" y="1538.001"/><use href="#H" y="1640"/><use href="#P" x="-901.777" y="1538.001"/><use href="#D" x="-901.784" y="1640"/><use href="#Q" x="-901.781" y="1538.001"/><use href="#B" x="-1082.13" y="1640"/><use href="#P" x="-1082.128" y="1538.001"/><use href="#D" x="-1082.136" y="1640"/><use href="#Q" x="-1082.132" y="1538.001"/><use href="#B" x="-1262.489" y="1640"/><use href="#P" x="-1262.488" y="1538.001"/><use href="#D" x="-1262.495" y="1640"/><use href="#Q" x="-1262.492" y="1538.001"/><g class="D"><use href="#B" x="-1442.841" y="1640"/><use href="#P" x="-1442.839" y="1538.001"/><use href="#D" x="-1442.847" y="1640"/><use href="#Q" x="-1442.843" y="1538.001"/></g><g class="C"><use href="#B" x="89.67" y="1691.08"/><use href="#P" x="89.67" y="1589.081"/><use href="#D" x="89.68" y="1691.08"/><use href="#Q" x="89.68" y="1589.081"/></g><use href="#B" x="-90.71" y="1691.08"/><use href="#P" x="-90.7" y="1589.081"/><use href="#D" x="-90.7" y="1691.08"/><use href="#Q" x="-90.69" y="1589.081"/><use href="#B" x="-271.07" y="1691.08"/><use href="#P" x="-271.06" y="1589.081"/><use href="#D" x="-271.06" y="1691.08"/><use href="#Q" x="-271.05" y="1589.081"/><use href="#B" x="-451.43" y="1691.08"/><use href="#P" x="-451.43" y="1589.081"/><use href="#D" x="-451.42" y="1691.08"/><use href="#Q" x="-451.42" y="1589.081"/><use href="#B" x="-631.79" y="1691.08"/><use href="#V" y="717"/><use href="#L" y="1640"/><use href="#Q" x="-631.78" y="1589.081"/><use href="#B" x="-812.161" y="1691.08"/><use href="#P" x="-812.152" y="1589.081"/><use href="#D" x="-812.151" y="1691.08"/><use href="#Q" x="-812.148" y="1589.081"/><use href="#M" y="1640"/><use href="#P" x="-992.519" y="1589.081"/><use href="#N" y="1640"/><use href="#Q" x="-992.515" y="1589.081"/><use href="#B" x="-1172.888" y="1691.08"/><use href="#P" x="-1172.878" y="1589.081"/><use href="#D" x="-1172.878" y="1691.08"/><use href="#Q" x="-1172.874" y="1589.081"/><use href="#B" x="-1353.255" y="1691.08"/><use href="#P" x="-1353.246" y="1589.081"/><use href="#D" x="-1353.245" y="1691.08"/><use href="#W" y="717"/><g class="C"><use href="#B" x="-1533.614" y="1691.08"/><use href="#P" x="-1533.605" y="1589.081"/><use href="#D" x="-1533.604" y="1691.08"/><use href="#Q" x="-1533.601" y="1589.081"/></g><g class="D"><use href="#B" y="1742"/><use href="#P" y="1640.001"/><use href="#D" y="1742"/><use href="#Q" y="1640.001"/></g><use href="#B" x="-180.35" y="1742"/><use href="#P" x="-180.35" y="1640.001"/><use href="#D" x="-180.35" y="1742"/><use href="#Q" x="-180.35" y="1640.001"/><use href="#B" x="-360.71" y="1742"/><use href="#P" x="-360.71" y="1640.001"/><use href="#D" x="-360.71" y="1742"/><use href="#Q" x="-360.71" y="1640.001"/><use href="#B" x="-541.06" y="1742"/><use href="#P" x="-541.06" y="1640.001"/><use href="#D" x="-541.07" y="1742"/><use href="#Q" x="-541.06" y="1640.001"/><use href="#F" y="1742"/><use href="#R" y="1640.001"/><use href="#G" y="1742"/><use href="#S" y="1640.001"/><use href="#H" y="1742"/><use href="#P" x="-901.777" y="1640.001"/><use href="#D" x="-901.784" y="1742"/><use href="#Q" x="-901.781" y="1640.001"/><use href="#B" x="-1082.13" y="1742"/><use href="#P" x="-1082.128" y="1640.001"/><use href="#D" x="-1082.136" y="1742"/><use href="#Q" x="-1082.132" y="1640.001"/><use href="#B" x="-1262.489" y="1742"/><use href="#P" x="-1262.488" y="1640.001"/><use href="#D" x="-1262.495" y="1742"/><use href="#Q" x="-1262.492" y="1640.001"/><g class="D"><use href="#B" x="-1442.841" y="1742"/><use href="#P" x="-1442.839" y="1640.001"/><use href="#D" x="-1442.847" y="1742"/><use href="#Q" x="-1442.843" y="1640.001"/></g><g class="C"><use href="#B" x="89.67" y="1794.08"/><use href="#P" x="89.67" y="1692.081"/><use href="#D" x="89.68" y="1794.08"/><use href="#Q" x="89.68" y="1692.081"/></g><use href="#B" x="-90.71" y="1794.08"/><use href="#P" x="-90.7" y="1692.081"/><use href="#D" x="-90.7" y="1794.08"/><use href="#Q" x="-90.69" y="1692.081"/><use href="#B" x="-271.07" y="1794.08"/><use href="#P" x="-271.06" y="1692.081"/><use href="#D" x="-271.06" y="1794.08"/><use href="#Q" x="-271.05" y="1692.081"/><use href="#B" x="-451.43" y="1794.08"/><use href="#P" x="-451.43" y="1692.081"/><use href="#D" x="-451.42" y="1794.08"/><use href="#Q" x="-451.42" y="1692.081"/><use href="#B" x="-631.79" y="1794.08"/><use href="#V" y="820"/><use href="#L" y="1743"/><use href="#Q" x="-631.78" y="1692.081"/><use href="#B" x="-812.161" y="1794.08"/><use href="#P" x="-812.152" y="1692.081"/><use href="#D" x="-812.151" y="1794.08"/><use href="#Q" x="-812.148" y="1692.081"/><use href="#M" y="1743"/><use href="#P" x="-992.519" y="1692.081"/><use href="#N" y="1743"/><use href="#Q" x="-992.515" y="1692.081"/><use href="#B" x="-1172.888" y="1794.08"/><use href="#P" x="-1172.878" y="1692.081"/><use href="#D" x="-1172.878" y="1794.08"/><use href="#Q" x="-1172.874" y="1692.081"/><use href="#B" x="-1353.255" y="1794.08"/><use href="#P" x="-1353.246" y="1692.081"/><use href="#D" x="-1353.245" y="1794.08"/><use href="#W" y="820"/><g class="C"><use href="#B" x="-1533.614" y="1794.08"/><use href="#P" x="-1533.605" y="1692.081"/><use href="#D" x="-1533.604" y="1794.08"/><use href="#Q" x="-1533.601" y="1692.081"/></g><g class="D"><use href="#B" y="1845"/><use href="#P" y="1743.001"/><use href="#D" y="1845"/><use href="#Q" y="1743.001"/></g><use href="#B" x="-180.35" y="1845"/><use href="#P" x="-180.35" y="1743.001"/><use href="#D" x="-180.35" y="1845"/><use href="#Q" x="-180.35" y="1743.001"/><use href="#B" x="-360.71" y="1845"/><use href="#P" x="-360.71" y="1743.001"/><use href="#D" x="-360.71" y="1845"/><use href="#Q" x="-360.71" y="1743.001"/><use href="#B" x="-541.06" y="1845"/><use href="#P" x="-541.06" y="1743.001"/><use href="#D" x="-541.07" y="1845"/><use href="#Q" x="-541.06" y="1743.001"/><use href="#F" y="1845"/><use href="#R" y="1743.001"/><use href="#G" y="1845"/><use href="#S" y="1743.001"/><use href="#H" y="1845"/><use href="#P" x="-901.777" y="1743.001"/><use href="#D" x="-901.784" y="1845"/><use href="#Q" x="-901.781" y="1743.001"/><use href="#B" x="-1082.13" y="1845"/><use href="#P" x="-1082.128" y="1743.001"/><use href="#D" x="-1082.136" y="1845"/><use href="#Q" x="-1082.132" y="1743.001"/><use href="#B" x="-1262.489" y="1845"/><use href="#P" x="-1262.488" y="1743.001"/><use href="#D" x="-1262.495" y="1845"/><use href="#Q" x="-1262.492" y="1743.001"/><g class="D"><use href="#B" x="-1442.841" y="1845"/><use href="#P" x="-1442.839" y="1743.001"/><use href="#D" x="-1442.847" y="1845"/><use href="#Q" x="-1442.843" y="1743.001"/></g><g class="C"><use href="#B" x="89.67" y="1896.08"/><use href="#P" x="89.67" y="1794.081"/><use href="#D" x="89.68" y="1896.08"/><use href="#Q" x="89.68" y="1794.081"/></g><use href="#B" x="-90.71" y="1896.08"/><use href="#P" x="-90.7" y="1794.081"/><use href="#D" x="-90.7" y="1896.08"/><use href="#Q" x="-90.69" y="1794.081"/><use href="#B" x="-271.07" y="1896.08"/><use href="#P" x="-271.06" y="1794.081"/><use href="#D" x="-271.06" y="1896.08"/><use href="#Q" x="-271.05" y="1794.081"/><use href="#B" x="-451.43" y="1896.08"/><use href="#P" x="-451.43" y="1794.081"/><use href="#D" x="-451.42" y="1896.08"/><use href="#Q" x="-451.42" y="1794.081"/><use href="#B" x="-631.79" y="1896.08"/><use href="#V" y="922"/><use href="#L" y="1845"/><use href="#Q" x="-631.78" y="1794.081"/><use href="#B" x="-812.161" y="1896.08"/><use href="#P" x="-812.152" y="1794.081"/><use href="#D" x="-812.151" y="1896.08"/><use href="#Q" x="-812.148" y="1794.081"/><use href="#M" y="1845"/><use href="#P" x="-992.519" y="1794.081"/><use href="#N" y="1845"/><use href="#Q" x="-992.515" y="1794.081"/><use href="#B" x="-1172.888" y="1896.08"/><use href="#P" x="-1172.878" y="1794.081"/><use href="#D" x="-1172.878" y="1896.08"/><use href="#Q" x="-1172.874" y="1794.081"/><use href="#B" x="-1353.255" y="1896.08"/><use href="#P" x="-1353.246" y="1794.081"/><use href="#D" x="-1353.245" y="1896.08"/><use href="#W" y="922"/><g class="C"><use href="#B" x="-1533.614" y="1896.08"/><use href="#P" x="-1533.605" y="1794.081"/><use href="#D" x="-1533.604" y="1896.08"/><use href="#Q" x="-1533.601" y="1794.081"/></g><g class="D"><use href="#B" y="1947"/><use href="#P" y="1845.001"/><use href="#D" y="1947"/><use href="#Q" y="1845.001"/></g><use href="#B" x="-180.35" y="1947"/><use href="#P" x="-180.35" y="1845.001"/><use href="#D" x="-180.35" y="1947"/><use href="#Q" x="-180.35" y="1845.001"/><use href="#B" x="-360.71" y="1947"/><use href="#P" x="-360.71" y="1845.001"/><use href="#D" x="-360.71" y="1947"/><use href="#Q" x="-360.71" y="1845.001"/><use href="#B" x="-541.06" y="1947"/><use href="#P" x="-541.06" y="1845.001"/><use href="#D" x="-541.07" y="1947"/><use href="#Q" x="-541.06" y="1845.001"/><use href="#F" y="1947"/><use href="#R" y="1845.001"/><use href="#G" y="1947"/><use href="#S" y="1845.001"/><use href="#H" y="1947"/><use href="#P" x="-901.777" y="1845.001"/><use href="#D" x="-901.784" y="1947"/><use href="#Q" x="-901.781" y="1845.001"/><use href="#B" x="-1082.13" y="1947"/><use href="#P" x="-1082.128" y="1845.001"/><use href="#D" x="-1082.136" y="1947"/><use href="#Q" x="-1082.132" y="1845.001"/><use href="#B" x="-1262.489" y="1947"/><use href="#P" x="-1262.488" y="1845.001"/><use href="#D" x="-1262.495" y="1947"/><use href="#Q" x="-1262.492" y="1845.001"/><g class="D"><use href="#B" x="-1442.841" y="1947"/><use href="#P" x="-1442.839" y="1845.001"/><use href="#D" x="-1442.847" y="1947"/><use href="#Q" x="-1442.843" y="1845.001"/></g><g class="C"><use href="#B" x="89.67" y="1999.08"/><use href="#P" x="89.67" y="1897.081"/><use href="#D" x="89.68" y="1999.08"/><use href="#Q" x="89.68" y="1897.081"/></g><use href="#B" x="-90.71" y="1999.08"/><use href="#P" x="-90.7" y="1897.081"/><use href="#D" x="-90.7" y="1999.08"/><use href="#Q" x="-90.69" y="1897.081"/><use href="#B" x="-271.07" y="1999.08"/><use href="#P" x="-271.06" y="1897.081"/><use href="#D" x="-271.06" y="1999.08"/><use href="#Q" x="-271.05" y="1897.081"/><use href="#B" x="-451.43" y="1999.08"/><use href="#P" x="-451.43" y="1897.081"/><use href="#D" x="-451.42" y="1999.08"/><use href="#Q" x="-451.42" y="1897.081"/><use href="#B" x="-631.79" y="1999.08"/><use href="#V" y="1025"/><use href="#L" y="1948"/><use href="#Q" x="-631.78" y="1897.081"/><use href="#B" x="-812.161" y="1999.08"/><use href="#P" x="-812.152" y="1897.081"/><use href="#D" x="-812.151" y="1999.08"/><use href="#Q" x="-812.148" y="1897.081"/><use href="#M" y="1948"/><use href="#P" x="-992.519" y="1897.081"/><use href="#N" y="1948"/><use href="#Q" x="-992.515" y="1897.081"/><use href="#B" x="-1172.888" y="1999.08"/><use href="#P" x="-1172.878" y="1897.081"/><use href="#D" x="-1172.878" y="1999.08"/><use href="#Q" x="-1172.874" y="1897.081"/><use href="#B" x="-1353.255" y="1999.08"/><use href="#P" x="-1353.246" y="1897.081"/><use href="#D" x="-1353.245" y="1999.08"/><use href="#W" y="1025"/><g class="C"><use href="#B" x="-1533.614" y="1999.08"/><use href="#P" x="-1533.605" y="1897.081"/><use href="#D" x="-1533.604" y="1999.08"/><use href="#Q" x="-1533.601" y="1897.081"/></g><g class="D"><use href="#B" y="2050"/><use href="#P" y="1948.001"/><use href="#D" y="2050"/><use href="#Q" y="1948.001"/></g><use href="#B" x="-180.35" y="2050"/><use href="#P" x="-180.35" y="1948.001"/><use href="#D" x="-180.35" y="2050"/><use href="#Q" x="-180.35" y="1948.001"/><use href="#B" x="-360.71" y="2050"/><use href="#P" x="-360.71" y="1948.001"/><use href="#D" x="-360.71" y="2050"/><use href="#Q" x="-360.71" y="1948.001"/><use href="#B" x="-541.06" y="2050"/><use href="#P" x="-541.06" y="1948.001"/><use href="#D" x="-541.07" y="2050"/><use href="#Q" x="-541.06" y="1948.001"/><use href="#F" y="2050"/><use href="#R" y="1948.001"/><use href="#G" y="2050"/><use href="#S" y="1948.001"/><use href="#H" y="2050"/><use href="#P" x="-901.777" y="1948.001"/><use href="#D" x="-901.784" y="2050"/><use href="#Q" x="-901.781" y="1948.001"/><use href="#B" x="-1082.13" y="2050"/><use href="#P" x="-1082.128" y="1948.001"/><use href="#D" x="-1082.136" y="2050"/><use href="#Q" x="-1082.132" y="1948.001"/><use href="#B" x="-1262.489" y="2050"/><use href="#P" x="-1262.488" y="1948.001"/><use href="#D" x="-1262.495" y="2050"/><use href="#Q" x="-1262.492" y="1948.001"/><g class="D"><use href="#B" x="-1442.841" y="2050"/><use href="#P" x="-1442.839" y="1948.001"/><use href="#D" x="-1442.847" y="2050"/><use href="#Q" x="-1442.843" y="1948.001"/></g><g class="C"><use href="#B" x="89.67" y="2101.08"/><use href="#P" x="89.67" y="1999.081"/><use href="#D" x="89.68" y="2101.08"/><use href="#Q" x="89.68" y="1999.081"/></g><use href="#B" x="-90.71" y="2101.08"/><use href="#P" x="-90.7" y="1999.081"/><use href="#D" x="-90.7" y="2101.08"/><use href="#Q" x="-90.69" y="1999.081"/><use href="#B" x="-271.07" y="2101.08"/><use href="#P" x="-271.06" y="1999.081"/><use href="#D" x="-271.06" y="2101.08"/><use href="#Q" x="-271.05" y="1999.081"/><use href="#B" x="-451.43" y="2101.08"/><use href="#P" x="-451.43" y="1999.081"/><use href="#D" x="-451.42" y="2101.08"/><use href="#Q" x="-451.42" y="1999.081"/><use href="#B" x="-631.79" y="2101.08"/><use href="#V" y="1127"/><use href="#L" y="2050"/><use href="#Q" x="-631.78" y="1999.081"/><use href="#B" x="-812.161" y="2101.08"/><use href="#P" x="-812.152" y="1999.081"/><use href="#D" x="-812.151" y="2101.08"/><use href="#Q" x="-812.148" y="1999.081"/><use href="#M" y="2050"/><use href="#P" x="-992.519" y="1999.081"/><use href="#N" y="2050"/><use href="#Q" x="-992.515" y="1999.081"/><use href="#B" x="-1172.888" y="2101.08"/><use href="#P" x="-1172.878" y="1999.081"/><use href="#D" x="-1172.878" y="2101.08"/><use href="#Q" x="-1172.874" y="1999.081"/><use href="#B" x="-1353.255" y="2101.08"/><use href="#P" x="-1353.246" y="1999.081"/><use href="#D" x="-1353.245" y="2101.08"/><use href="#W" y="1127"/><g class="C"><use href="#B" x="-1533.614" y="2101.08"/><use href="#P" x="-1533.605" y="1999.081"/><use href="#D" x="-1533.604" y="2101.08"/><use href="#Q" x="-1533.601" y="1999.081"/></g><g class="D"><use href="#B" y="2152"/><use href="#P" y="2050.001"/><use href="#D" y="2152"/><use href="#Q" y="2050.001"/></g><use href="#B" x="-180.35" y="2152"/><use href="#P" x="-180.35" y="2050.001"/><use href="#D" x="-180.35" y="2152"/><use href="#Q" x="-180.35" y="2050.001"/><use href="#B" x="-360.71" y="2152"/><use href="#P" x="-360.71" y="2050.001"/><use href="#D" x="-360.71" y="2152"/><use href="#Q" x="-360.71" y="2050.001"/><use href="#B" x="-541.06" y="2152"/><use href="#P" x="-541.06" y="2050.001"/><use href="#D" x="-541.07" y="2152"/><use href="#Q" x="-541.06" y="2050.001"/><use href="#F" y="2152"/><use href="#R" y="2050.001"/><use href="#G" y="2152"/><use href="#S" y="2050.001"/><use href="#H" y="2152"/><use href="#P" x="-901.777" y="2050.001"/><use href="#D" x="-901.784" y="2152"/><use href="#Q" x="-901.781" y="2050.001"/><use href="#B" x="-1082.13" y="2152"/><use href="#P" x="-1082.128" y="2050.001"/><use href="#D" x="-1082.136" y="2152"/><use href="#Q" x="-1082.132" y="2050.001"/><use href="#B" x="-1262.489" y="2152"/><use href="#P" x="-1262.488" y="2050.001"/><use href="#D" x="-1262.495" y="2152"/><use href="#Q" x="-1262.492" y="2050.001"/><g class="D"><use href="#B" x="-1442.841" y="2152"/><use href="#P" x="-1442.839" y="2050.001"/><use href="#D" x="-1442.847" y="2152"/><use href="#Q" x="-1442.843" y="2050.001"/></g><g class="C"><use href="#B" x="89.67" y="2204.08"/><use href="#P" x="89.67" y="2102.081"/><use href="#D" x="89.68" y="2204.08"/><use href="#Q" x="89.68" y="2102.081"/></g><use href="#B" x="-90.71" y="2204.08"/><use href="#P" x="-90.7" y="2102.081"/><use href="#D" x="-90.7" y="2204.08"/><use href="#Q" x="-90.69" y="2102.081"/><use href="#B" x="-271.07" y="2204.08"/><use href="#P" x="-271.06" y="2102.081"/><use href="#D" x="-271.06" y="2204.08"/><use href="#Q" x="-271.05" y="2102.081"/><use href="#B" x="-451.43" y="2204.08"/><use href="#P" x="-451.43" y="2102.081"/><use href="#D" x="-451.42" y="2204.08"/><use href="#Q" x="-451.42" y="2102.081"/><use href="#B" x="-631.79" y="2204.08"/><use href="#V" y="1230"/><use href="#L" y="2153"/><use href="#Q" x="-631.78" y="2102.081"/><use href="#B" x="-812.161" y="2204.08"/><use href="#P" x="-812.152" y="2102.081"/><use href="#D" x="-812.151" y="2204.08"/><use href="#Q" x="-812.148" y="2102.081"/><use href="#M" y="2153"/><use href="#P" x="-992.519" y="2102.081"/><use href="#N" y="2153"/><use href="#Q" x="-992.515" y="2102.081"/><use href="#B" x="-1172.888" y="2204.08"/><use href="#P" x="-1172.878" y="2102.081"/><use href="#D" x="-1172.878" y="2204.08"/><use href="#Q" x="-1172.874" y="2102.081"/><use href="#B" x="-1353.255" y="2204.08"/><use href="#P" x="-1353.246" y="2102.081"/><use href="#D" x="-1353.245" y="2204.08"/><use href="#W" y="1230"/><g class="C"><use href="#B" x="-1533.614" y="2204.08"/><use href="#P" x="-1533.605" y="2102.081"/><use href="#D" x="-1533.604" y="2204.08"/><use href="#Q" x="-1533.601" y="2102.081"/></g><g class="D"><use href="#B" y="2255"/><use href="#P" y="2153.001"/><use href="#D" y="2255"/><use href="#Q" y="2153.001"/></g><use href="#B" x="-180.35" y="2255"/><use href="#P" x="-180.35" y="2153.001"/><use href="#D" x="-180.35" y="2255"/><use href="#Q" x="-180.35" y="2153.001"/><use href="#B" x="-360.71" y="2255"/><use href="#P" x="-360.71" y="2153.001"/><use href="#D" x="-360.71" y="2255"/><use href="#Q" x="-360.71" y="2153.001"/><use href="#B" x="-541.06" y="2255"/><use href="#P" x="-541.06" y="2153.001"/><use href="#D" x="-541.07" y="2255"/><use href="#Q" x="-541.06" y="2153.001"/><use href="#F" y="2255"/><use href="#R" y="2153.001"/><use href="#G" y="2255"/><use href="#S" y="2153.001"/><use href="#H" y="2255"/><use href="#P" x="-901.777" y="2153.001"/><use href="#D" x="-901.784" y="2255"/><use href="#Q" x="-901.781" y="2153.001"/><use href="#B" x="-1082.13" y="2255"/><use href="#P" x="-1082.128" y="2153.001"/><use href="#D" x="-1082.136" y="2255"/><use href="#Q" x="-1082.132" y="2153.001"/><use href="#B" x="-1262.489" y="2255"/><use href="#P" x="-1262.488" y="2153.001"/><use href="#D" x="-1262.495" y="2255"/><use href="#Q" x="-1262.492" y="2153.001"/><g class="D"><use href="#B" x="-1442.841" y="2255"/><use href="#P" x="-1442.839" y="2153.001"/><use href="#D" x="-1442.847" y="2255"/><use href="#Q" x="-1442.843" y="2153.001"/></g><g class="C"><use href="#B" x="89.67" y="2306.08"/><use href="#P" x="89.67" y="2204.081"/><use href="#D" x="89.68" y="2306.08"/><use href="#Q" x="89.68" y="2204.081"/></g><use href="#B" x="-90.71" y="2306.08"/><use href="#P" x="-90.7" y="2204.081"/><use href="#D" x="-90.7" y="2306.08"/><use href="#Q" x="-90.69" y="2204.081"/><use href="#B" x="-271.07" y="2306.08"/><use href="#P" x="-271.06" y="2204.081"/><use href="#D" x="-271.06" y="2306.08"/><use href="#Q" x="-271.05" y="2204.081"/><use href="#B" x="-451.43" y="2306.08"/><use href="#P" x="-451.43" y="2204.081"/><use href="#D" x="-451.42" y="2306.08"/><use href="#Q" x="-451.42" y="2204.081"/><use href="#B" x="-631.79" y="2306.08"/><use href="#V" y="1332"/><use href="#L" y="2255"/><use href="#Q" x="-631.78" y="2204.081"/><use href="#B" x="-812.161" y="2306.08"/><use href="#P" x="-812.152" y="2204.081"/><use href="#D" x="-812.151" y="2306.08"/><use href="#Q" x="-812.148" y="2204.081"/><use href="#M" y="2255"/><use href="#P" x="-992.519" y="2204.081"/><use href="#N" y="2255"/><use href="#Q" x="-992.515" y="2204.081"/><use href="#B" x="-1172.888" y="2306.08"/><use href="#P" x="-1172.878" y="2204.081"/><use href="#D" x="-1172.878" y="2306.08"/><use href="#Q" x="-1172.874" y="2204.081"/><use href="#B" x="-1353.255" y="2306.08"/><use href="#P" x="-1353.246" y="2204.081"/><use href="#D" x="-1353.245" y="2306.08"/><use href="#W" y="1332"/><g class="C"><use href="#B" x="-1533.614" y="2306.08"/><use href="#P" x="-1533.605" y="2204.081"/><use href="#D" x="-1533.604" y="2306.08"/><use href="#Q" x="-1533.601" y="2204.081"/></g><g class="D"><use href="#B" y="2357"/><use href="#P" y="2255.001"/><use href="#D" y="2357"/><use href="#Q" y="2255.001"/></g><use href="#B" x="-180.35" y="2357"/><use href="#P" x="-180.35" y="2255.001"/><use href="#D" x="-180.35" y="2357"/><use href="#Q" x="-180.35" y="2255.001"/><use href="#B" x="-360.71" y="2357"/><use href="#P" x="-360.71" y="2255.001"/><use href="#D" x="-360.71" y="2357"/><use href="#Q" x="-360.71" y="2255.001"/><use href="#B" x="-541.06" y="2357"/><use href="#P" x="-541.06" y="2255.001"/><use href="#D" x="-541.07" y="2357"/><use href="#Q" x="-541.06" y="2255.001"/><use href="#F" y="2357"/><use href="#R" y="2255.001"/><use href="#G" y="2357"/><use href="#S" y="2255.001"/><use href="#H" y="2357"/><use href="#P" x="-901.777" y="2255.001"/><use href="#D" x="-901.784" y="2357"/><use href="#Q" x="-901.781" y="2255.001"/><use href="#B" x="-1082.13" y="2357"/><use href="#P" x="-1082.128" y="2255.001"/><use href="#D" x="-1082.136" y="2357"/><use href="#Q" x="-1082.132" y="2255.001"/><use href="#B" x="-1262.489" y="2357"/><use href="#P" x="-1262.488" y="2255.001"/><use href="#D" x="-1262.495" y="2357"/><use href="#Q" x="-1262.492" y="2255.001"/><g class="D"><use href="#B" x="-1442.841" y="2357"/><use href="#P" x="-1442.839" y="2255.001"/><use href="#D" x="-1442.847" y="2357"/><use href="#Q" x="-1442.843" y="2255.001"/></g><g class="C"><use href="#B" x="89.67" y="2409.08"/><use href="#P" x="89.67" y="2307.081"/><use href="#D" x="89.68" y="2409.08"/><use href="#Q" x="89.68" y="2307.081"/></g><use href="#B" x="-90.71" y="2409.08"/><use href="#P" x="-90.7" y="2307.081"/><use href="#D" x="-90.7" y="2409.08"/><use href="#Q" x="-90.69" y="2307.081"/><use href="#B" x="-271.07" y="2409.08"/><use href="#P" x="-271.06" y="2307.081"/><use href="#D" x="-271.06" y="2409.08"/><use href="#Q" x="-271.05" y="2307.081"/><use href="#B" x="-451.43" y="2409.08"/><use href="#P" x="-451.43" y="2307.081"/><use href="#D" x="-451.42" y="2409.08"/><use href="#Q" x="-451.42" y="2307.081"/><use href="#B" x="-631.79" y="2409.08"/><use href="#V" y="1435"/><use href="#L" y="2358"/><use href="#Q" x="-631.78" y="2307.081"/><use href="#B" x="-812.161" y="2409.08"/><use href="#P" x="-812.152" y="2307.081"/><use href="#D" x="-812.151" y="2409.08"/><use href="#Q" x="-812.148" y="2307.081"/><use href="#M" y="2358"/><use href="#P" x="-992.519" y="2307.081"/><use href="#N" y="2358"/><use href="#Q" x="-992.515" y="2307.081"/><use href="#B" x="-1172.888" y="2409.08"/><use href="#P" x="-1172.878" y="2307.081"/><use href="#D" x="-1172.878" y="2409.08"/><use href="#Q" x="-1172.874" y="2307.081"/><use href="#B" x="-1353.255" y="2409.08"/><use href="#P" x="-1353.246" y="2307.081"/><use href="#D" x="-1353.245" y="2409.08"/><use href="#W" y="1435"/><g class="C"><use href="#B" x="-1533.614" y="2409.08"/><use href="#P" x="-1533.605" y="2307.081"/><use href="#D" x="-1533.604" y="2409.08"/><use href="#Q" x="-1533.601" y="2307.081"/></g><g class="D"><g class="D"><use href="#B" y="2460"/><use href="#P" y="2358.001"/><use href="#D" y="2460"/><use href="#Q" y="2358.001"/></g><use href="#B" x="-180.35" y="2460"/><use href="#P" x="-180.35" y="2358.001"/><use href="#D" x="-180.35" y="2460"/><use href="#Q" x="-180.35" y="2358.001"/><use href="#B" x="-360.71" y="2460"/><use href="#P" x="-360.71" y="2358.001"/><use href="#D" x="-360.71" y="2460"/><use href="#Q" x="-360.71" y="2358.001"/><use href="#B" x="-541.06" y="2460"/><use href="#P" x="-541.06" y="2358.001"/><use href="#D" x="-541.07" y="2460"/><use href="#Q" x="-541.06" y="2358.001"/><use href="#F" y="2460"/><use href="#R" y="2358.001"/><use href="#G" y="2460"/><use href="#S" y="2358.001"/><use href="#H" y="2460"/><use href="#P" x="-901.777" y="2358.001"/><use href="#D" x="-901.784" y="2460"/><use href="#Q" x="-901.781" y="2358.001"/><use href="#B" x="-1082.13" y="2460"/><use href="#P" x="-1082.128" y="2358.001"/><use href="#D" x="-1082.136" y="2460"/><use href="#Q" x="-1082.132" y="2358.001"/><use href="#B" x="-1262.489" y="2460"/><use href="#P" x="-1262.488" y="2358.001"/><use href="#D" x="-1262.495" y="2460"/><use href="#Q" x="-1262.492" y="2358.001"/><g class="D"><use href="#B" x="-1442.841" y="2460"/><use href="#P" x="-1442.839" y="2358.001"/><use href="#D" x="-1442.847" y="2460"/><use href="#Q" x="-1442.843" y="2358.001"/></g></g><g class="C"><g class="C"><use href="#B" x="89.67" y="2511.08"/><use href="#P" x="89.67" y="2409.081"/><use href="#D" x="89.68" y="2511.08"/><use href="#Q" x="89.68" y="2409.081"/></g><use href="#B" x="-90.71" y="2511.08"/><use href="#P" x="-90.7" y="2409.081"/><use href="#D" x="-90.7" y="2511.08"/><use href="#Q" x="-90.69" y="2409.081"/><use href="#B" x="-271.07" y="2511.08"/><use href="#P" x="-271.06" y="2409.081"/><use href="#D" x="-271.06" y="2511.08"/><use href="#Q" x="-271.05" y="2409.081"/><use href="#B" x="-451.43" y="2511.08"/><use href="#P" x="-451.43" y="2409.081"/><use href="#D" x="-451.42" y="2511.08"/><use href="#Q" x="-451.42" y="2409.081"/><use href="#B" x="-631.79" y="2511.08"/><use href="#V" y="1537"/><use href="#L" y="2460"/><use href="#Q" x="-631.78" y="2409.081"/><use href="#B" x="-812.161" y="2511.08"/><use href="#P" x="-812.152" y="2409.081"/><use href="#D" x="-812.151" y="2511.08"/><use href="#Q" x="-812.148" y="2409.081"/><use href="#M" y="2460"/><use href="#P" x="-992.519" y="2409.081"/><use href="#N" y="2460"/><use href="#Q" x="-992.515" y="2409.081"/><use href="#B" x="-1172.888" y="2511.08"/><use href="#P" x="-1172.878" y="2409.081"/><use href="#D" x="-1172.878" y="2511.08"/><use href="#Q" x="-1172.874" y="2409.081"/><use href="#B" x="-1353.255" y="2511.08"/><use href="#P" x="-1353.246" y="2409.081"/><use href="#D" x="-1353.245" y="2511.08"/><use href="#W" y="1537"/><g class="C"><use href="#B" x="-1533.614" y="2511.08"/><use href="#P" x="-1533.605" y="2409.081"/><use href="#D" x="-1533.604" y="2511.08"/><use href="#Q" x="-1533.601" y="2409.081"/></g></g></g><defs ><path id="B" d="M1653.57 118.73a23.51 23.51 0 0 0 2.67 1.31c3.13 1.3 6.28 1.96 9.45 1.96 2.65 0 5.26-.42 7.82-1.27s5.02-2.05 7.37-3.62c2.35-1.56 4.54-3.43 6.58-5.61 2.04-2.17 3.89-4.58 5.54-7.24l21.77-35 .85-1.08a10 10 0 0 0 .85-1.21l.91-1.3 4.43-5.38c1.52-1.67 3.09-3.13 4.69-4.37 1.61-1.24 3.26-2.23 4.95-2.97s3.43-1.11 5.21-1.11c2.35 0 4.78.73 7.3 2.18 2.52 1.46 5.08 3.92 7.69 7.4l3.98-2.28c-2.95-2.87-6-4.95-9.13-6.26-3.13-1.3-6.26-1.96-9.39-1.96-2.65 0-5.26.42-7.82 1.27a29.77 29.77 0 0 0-7.33 3.62c-2.32 1.56-4.52 3.44-6.58 5.64-2.06 2.19-3.92 4.62-5.57 7.27l-19.82 31.62-1.11 1.82a120.29 120.29 0 0 1-5.05 7.07c-1.76 2.28-3.6 4.3-5.51 6.06s-3.89 3.17-5.93 4.24c-2.04 1.06-4.15 1.6-6.32 1.6-2.35 0-4.76-.74-7.24-2.22-.98-.58-1.97-1.32-2.98-2.21l-2.3 2.01.02.02z"/><path id="C" d="M1726.48 54.289a26.01 26.01 0 0 0-2.8-1.39c-3.13-1.3-6.26-1.96-9.39-1.96-2.65 0-5.26.42-7.82 1.27a29.77 29.77 0 0 0-7.33 3.62c-2.32 1.56-4.52 3.44-6.58 5.64-2.06 2.19-3.92 4.62-5.57 7.27l-19.82 31.62-1.11 1.82-5.05 7.07c-1.76 2.28-3.6 4.3-5.51 6.06s-3.89 3.17-5.93 4.24c-2.04 1.06-4.15 1.6-6.32 1.6-2.35 0-4.76-.74-7.24-2.22s-5.04-3.93-7.69-7.37l-4.04 2.22c2.96 2.87 6 4.95 9.13 6.26 3.13 1.3 6.28 1.96 9.45 1.96 2.65 0 5.26-.42 7.82-1.27s5.02-2.05 7.37-3.62c2.35-1.56 4.54-3.43 6.58-5.61 2.04-2.17 3.89-4.58 5.54-7.24l21.77-34.999a23.38 23.38 0 0 1 .85-1.08 10 10 0 0 0 .85-1.21l.91-1.3a75.09 75.09 0 0 1 4.43-5.38c1.52-1.67 3.09-3.13 4.69-4.37 1.61-1.24 3.26-2.23 4.95-2.97s3.43-1.11 5.21-1.11c2.35 0 4.78.73 7.3 2.18 1.01.58 2.02 1.32 3.04 2.22l2.3-1.98.01.03z"/><path id="D" d="M1726.35 118.73a23.51 23.51 0 0 1-2.67 1.31c-3.13 1.3-6.28 1.96-9.45 1.96-2.65 0-5.26-.42-7.82-1.27s-5.02-2.05-7.37-3.62c-2.35-1.56-4.54-3.43-6.58-5.61-2.04-2.17-3.89-4.58-5.54-7.24l-21.77-35-.85-1.08a10 10 0 0 1-.85-1.21l-.91-1.3-4.43-5.38c-1.52-1.67-3.09-3.13-4.69-4.37-1.61-1.24-3.26-2.23-4.95-2.97s-3.43-1.11-5.21-1.11c-2.35 0-4.78.73-7.3 2.18-2.52 1.46-5.08 3.92-7.69 7.4l-3.98-2.28c2.95-2.87 6-4.95 9.13-6.26 3.13-1.3 6.26-1.96 9.39-1.96 2.65 0 5.26.42 7.82 1.27a29.77 29.77 0 0 1 7.33 3.62c2.32 1.56 4.52 3.44 6.58 5.64 2.06 2.19 3.92 4.62 5.57 7.27l19.82 31.62 1.11 1.82a120.29 120.29 0 0 0 5.05 7.07c1.76 2.28 3.6 4.3 5.51 6.06s3.89 3.17 5.93 4.24c2.04 1.06 4.15 1.6 6.32 1.6 2.35 0 4.76-.74 7.24-2.22.98-.58 1.97-1.32 2.98-2.21l2.3 2.01-.02.02z"/><path id="E" d="M1653.44 54.289a26.01 26.01 0 0 1 2.8-1.39c3.13-1.3 6.26-1.96 9.39-1.96 2.65 0 5.26.42 7.82 1.27a29.77 29.77 0 0 1 7.33 3.62c2.32 1.56 4.52 3.44 6.58 5.64 2.06 2.19 3.92 4.62 5.57 7.27l19.82 31.62 1.11 1.82 5.05 7.07c1.76 2.28 3.6 4.3 5.51 6.06s3.89 3.17 5.93 4.24c2.04 1.06 4.15 1.6 6.32 1.6 2.35 0 4.76-.74 7.24-2.22s5.04-3.93 7.69-7.37l4.04 2.22c-2.96 2.87-6 4.95-9.13 6.26-3.13 1.3-6.28 1.96-9.45 1.96-2.65 0-5.26-.42-7.82-1.27s-5.02-2.05-7.37-3.62c-2.35-1.56-4.54-3.43-6.58-5.61-2.04-2.17-3.89-4.58-5.54-7.24l-21.77-34.999a23.38 23.38 0 0 0-.85-1.08 10 10 0 0 1-.85-1.21l-.91-1.3a75.09 75.09 0 0 0-4.43-5.38c-1.52-1.67-3.09-3.13-4.69-4.37-1.61-1.24-3.26-2.23-4.95-2.97s-3.43-1.11-5.21-1.11c-2.35 0-4.78.73-7.3 2.18-1.01.58-2.02 1.32-3.04 2.22l-2.3-1.98-.01.03z"/><path id="F" d="M932.151 118.73a23.51 23.51 0 0 0 2.67 1.31c3.13 1.3 6.28 1.96 9.45 1.96 2.65 0 5.26-.42 7.82-1.27s5.02-2.05 7.37-3.62c2.35-1.56 4.54-3.43 6.58-5.61 2.04-2.17 3.89-4.58 5.54-7.24l21.77-35 .85-1.08a10 10 0 0 0 .85-1.21l.91-1.3 4.429-5.38c1.52-1.67 3.09-3.13 4.69-4.37 1.61-1.24 3.26-2.23 4.95-2.97s3.43-1.11 5.21-1.11c2.35 0 4.78.73 7.3 2.18 2.52 1.46 5.08 3.92 7.69 7.4l3.98-2.28c-2.95-2.87-6-4.95-9.13-6.26-3.13-1.3-6.26-1.96-9.39-1.96-2.65 0-5.26.42-7.82 1.27a29.77 29.77 0 0 0-7.33 3.62c-2.319 1.56-4.519 3.44-6.579 5.64-2.06 2.19-3.92 4.62-5.57 7.27l-19.82 31.62-1.11 1.82a120.29 120.29 0 0 1-5.05 7.07c-1.76 2.28-3.6 4.3-5.51 6.06s-3.89 3.17-5.93 4.24c-2.04 1.06-4.15 1.6-6.32 1.6-2.35 0-4.76-.74-7.24-2.22-.98-.58-1.97-1.32-2.98-2.21l-2.3 2.01.02.02z"/><path id="G" d="M1004.93 118.73a23.51 23.51 0 0 1-2.67 1.31c-3.135 1.3-6.285 1.96-9.455 1.96-2.65 0-5.26-.42-7.82-1.27s-5.02-2.05-7.37-3.62c-2.35-1.56-4.54-3.43-6.58-5.61-2.04-2.17-3.89-4.58-5.54-7.24l-21.77-35-.85-1.08a10 10 0 0 1-.85-1.21l-.91-1.3-4.43-5.38c-1.52-1.67-3.09-3.13-4.69-4.37-1.61-1.24-3.26-2.23-4.95-2.97s-3.43-1.11-5.21-1.11c-2.35 0-4.78.73-7.3 2.18-2.52 1.46-5.08 3.92-7.69 7.4l-3.98-2.28c2.95-2.87 6-4.95 9.13-6.26 3.13-1.3 6.26-1.96 9.39-1.96 2.65 0 5.26.42 7.82 1.27a29.77 29.77 0 0 1 7.33 3.62c2.32 1.56 4.52 3.44 6.58 5.64 2.06 2.19 3.92 4.62 5.57 7.27l19.82 31.62 1.11 1.82a120.29 120.29 0 0 0 5.05 7.07c1.76 2.28 3.6 4.3 5.51 6.06s3.89 3.17 5.93 4.24c2.04 1.06 4.15 1.6 6.32 1.6 2.35 0 4.76-.74 7.24-2.22.985-.58 1.975-1.32 2.985-2.21l2.3 2.01-.02.02z"/><path id="H" d="M751.792 118.73a23.51 23.51 0 0 0 2.67 1.31c3.13 1.3 6.279 1.96 9.449 1.96a24.68 24.68 0 0 0 7.821-1.27c2.56-.85 5.02-2.05 7.37-3.62 2.35-1.56 4.54-3.43 6.58-5.61 2.04-2.17 3.89-4.58 5.54-7.24l21.77-35 .85-1.08a10 10 0 0 0 .85-1.21l.91-1.3 4.43-5.38c1.52-1.67 3.09-3.13 4.69-4.37 1.61-1.24 3.26-2.23 4.95-2.97s3.43-1.11 5.21-1.11c2.35 0 4.78.73 7.3 2.18 2.52 1.46 5.08 3.92 7.69 7.4l3.98-2.28c-2.95-2.87-6-4.95-9.13-6.26-3.13-1.3-6.26-1.96-9.39-1.96-2.65 0-5.26.42-7.82 1.27a29.77 29.77 0 0 0-7.33 3.62c-2.32 1.56-4.52 3.44-6.58 5.64-2.06 2.19-3.92 4.62-5.57 7.27l-19.82 31.62-1.11 1.82a120.29 120.29 0 0 1-5.05 7.07c-1.76 2.28-3.6 4.3-5.51 6.06s-3.89 3.17-5.93 4.24c-2.04 1.06-4.15 1.6-6.32 1.6-2.35 0-4.76-.74-7.24-2.22-.98-.58-1.97-1.32-2.98-2.21l-2.3 2.01.02.02z"/><path id="I" d="M1816.15 105.37a26.01 26.01 0 0 0-2.8-1.39c-3.13-1.3-6.26-1.96-9.39-1.96-2.65 0-5.26.42-7.82 1.27a29.77 29.77 0 0 0-7.33 3.62c-2.32 1.56-4.52 3.439-6.58 5.639-2.06 2.19-3.92 4.621-5.57 7.271l-19.82 31.62-1.11 1.82-5.05 7.07c-1.76 2.28-3.6 4.3-5.51 6.06s-3.89 3.17-5.93 4.24c-2.04 1.06-4.15 1.6-6.32 1.6-2.35 0-4.76-.74-7.24-2.22s-5.04-3.93-7.69-7.37l-4.04 2.22c2.96 2.87 6 4.95 9.13 6.26 3.13 1.3 6.28 1.96 9.45 1.96 2.65 0 5.26-.42 7.82-1.27s5.02-2.05 7.37-3.62c2.35-1.56 4.54-3.43 6.58-5.61 2.04-2.17 3.89-4.58 5.54-7.24l21.77-35a23.38 23.38 0 0 1 .85-1.08c.3-.37.59-.771.85-1.211l.91-1.299a75.09 75.09 0 0 1 4.43-5.38c1.52-1.67 3.09-3.13 4.69-4.37 1.61-1.24 3.26-2.23 4.95-2.97s3.43-1.11 5.21-1.11c2.35 0 4.78.73 7.3 2.18 1.01.58 2.02 1.32 3.04 2.22l2.3-1.98.01.03z"/><path id="J" d="M1743.12 105.37a26.01 26.01 0 0 1 2.8-1.39c3.13-1.3 6.26-1.96 9.39-1.96 2.65 0 5.26.42 7.82 1.27a29.77 29.77 0 0 1 7.33 3.62c2.32 1.56 4.52 3.439 6.58 5.639 2.06 2.19 3.92 4.621 5.57 7.271l19.82 31.62 1.11 1.82 5.05 7.07c1.76 2.28 3.6 4.3 5.51 6.06s3.89 3.17 5.93 4.24c2.04 1.06 4.15 1.6 6.32 1.6 2.35 0 4.76-.74 7.24-2.22s5.04-3.93 7.69-7.37l4.04 2.22c-2.96 2.87-6 4.95-9.13 6.26-3.13 1.3-6.28 1.96-9.45 1.96-2.65 0-5.26-.42-7.82-1.27s-5.02-2.05-7.37-3.62c-2.35-1.56-4.54-3.43-6.58-5.61-2.04-2.17-3.89-4.58-5.54-7.24l-21.77-35a23.38 23.38 0 0 0-.85-1.08c-.3-.37-.59-.771-.85-1.211l-.91-1.299a75.09 75.09 0 0 0-4.43-5.38c-1.52-1.67-3.09-3.13-4.69-4.37-1.61-1.24-3.26-2.23-4.95-2.97s-3.43-1.11-5.21-1.11c-2.35 0-4.78.73-7.3 2.18-1.01.58-2.02 1.32-3.04 2.22l-2.3-1.98-.01.03z"/><path id="K" d="M1094.7 105.37a26.01 26.01 0 0 0-2.8-1.39c-3.13-1.3-6.26-1.96-9.39-1.96-2.65 0-5.26.42-7.82 1.27a29.77 29.77 0 0 0-7.33 3.62c-2.32 1.56-4.52 3.439-6.58 5.639-2.06 2.19-3.92 4.621-5.57 7.271l-19.82 31.62-1.11 1.82-5.05 7.07c-1.76 2.28-3.6 4.3-5.51 6.06s-3.89 3.17-5.93 4.24c-2.04 1.06-4.15 1.6-6.32 1.6-2.35 0-4.76-.74-7.24-2.22s-5.045-3.93-7.695-7.37l-4.04 2.22c2.96 2.87 6 4.95 9.135 6.26 3.13 1.3 6.28 1.96 9.45 1.96 2.65 0 5.26-.42 7.82-1.27s5.02-2.05 7.37-3.62c2.35-1.56 4.54-3.43 6.58-5.61 2.04-2.17 3.89-4.58 5.54-7.24l21.77-35a23.38 23.38 0 0 1 .85-1.08c.3-.37.59-.771.85-1.211l.91-1.299a75.09 75.09 0 0 1 4.43-5.38c1.52-1.67 3.09-3.13 4.69-4.37 1.61-1.24 3.26-2.23 4.95-2.97s3.43-1.11 5.21-1.11c2.35 0 4.78.73 7.3 2.18 1.01.58 2.02 1.32 3.04 2.22l2.3-1.98.01.03z"/><path id="L" d="M1094.57 169.81a23.51 23.51 0 0 1-2.67 1.31c-3.13 1.3-6.28 1.96-9.45 1.96-2.65 0-5.26-.42-7.82-1.27s-5.02-2.05-7.37-3.62c-2.35-1.56-4.54-3.43-6.58-5.61-2.04-2.17-3.89-4.58-5.54-7.24l-21.77-35-.85-1.08a10 10 0 0 1-.85-1.21l-.91-1.3-4.43-5.38c-1.52-1.67-3.09-3.13-4.69-4.37-1.61-1.24-3.26-2.23-4.95-2.97s-3.43-1.11-5.21-1.11c-2.35 0-4.78.73-7.3 2.18-2.52 1.46-5.084 3.92-7.694 7.4l-3.98-2.28c2.95-2.87 6-4.95 9.134-6.26 3.13-1.3 6.26-1.96 9.39-1.96 2.65 0 5.26.42 7.82 1.27a29.77 29.77 0 0 1 7.33 3.62c2.32 1.56 4.52 3.44 6.58 5.64 2.06 2.19 3.92 4.62 5.57 7.27l19.82 31.62 1.11 1.82a120.29 120.29 0 0 0 5.05 7.07c1.76 2.28 3.6 4.3 5.51 6.06s3.89 3.17 5.93 4.24c2.04 1.06 4.15 1.6 6.32 1.6 2.35 0 4.76-.74 7.24-2.22.98-.58 1.97-1.32 2.98-2.21l2.3 2.01-.02.02z"/><path id="M" d="M661.042 169.81a23.51 23.51 0 0 0 2.67 1.31c3.13 1.3 6.279 1.96 9.449 1.96a24.68 24.68 0 0 0 7.821-1.27c2.56-.85 5.02-2.05 7.37-3.62 2.35-1.56 4.54-3.43 6.58-5.61 2.04-2.17 3.89-4.58 5.54-7.24l21.77-35 .85-1.08a10 10 0 0 0 .85-1.21l.91-1.3 4.429-5.38c1.52-1.67 3.091-3.13 4.691-4.37 1.61-1.24 3.26-2.23 4.95-2.97s3.43-1.11 5.21-1.11c2.35 0 4.78.73 7.3 2.18 2.52 1.46 5.08 3.92 7.69 7.4l3.98-2.28c-2.95-2.87-6-4.95-9.13-6.26-3.13-1.3-6.26-1.96-9.39-1.96-2.65 0-5.26.42-7.82 1.27a29.77 29.77 0 0 0-7.33 3.62c-2.32 1.56-4.52 3.44-6.58 5.64-2.06 2.19-3.921 4.62-5.571 7.27l-19.819 31.62-1.11 1.82a120.29 120.29 0 0 1-5.05 7.07c-1.76 2.28-3.6 4.3-5.51 6.06s-3.89 3.17-5.93 4.24c-2.04 1.06-4.15 1.6-6.32 1.6-2.35 0-4.76-.74-7.24-2.22-.98-.58-1.97-1.32-2.98-2.21l-2.301 2.01.021.02z"/><path id="N" d="M733.832 169.81c-.88.5-1.771.94-2.671 1.31-3.13 1.3-6.279 1.96-9.449 1.96-2.65 0-5.26-.42-7.82-1.27s-5.021-2.05-7.371-3.62c-2.35-1.56-4.539-3.43-6.579-5.61-2.04-2.17-3.891-4.58-5.541-7.24l-21.769-35-.851-1.08c-.3-.37-.589-.77-.849-1.21l-.911-1.3-4.429-5.38c-1.52-1.67-3.091-3.13-4.691-4.37-1.61-1.24-3.259-2.23-4.949-2.97s-3.43-1.11-5.21-1.11c-2.35 0-4.78.73-7.3 2.18-2.52 1.46-5.08 3.92-7.69 7.4l-3.981-2.28c2.95-2.87 6-4.95 9.13-6.26 3.13-1.3 6.261-1.96 9.391-1.96 2.65 0 5.26.42 7.82 1.27a29.77 29.77 0 0 1 7.33 3.62c2.32 1.56 4.519 3.44 6.579 5.64 2.06 2.19 3.921 4.62 5.571 7.27l19.819 31.62 1.11 1.82c1.61 2.43 3.291 4.79 5.051 7.07s3.6 4.3 5.51 6.06 3.89 3.17 5.93 4.24c2.04 1.06 4.15 1.6 6.32 1.6 2.35 0 4.76-.74 7.24-2.22.98-.58 1.97-1.32 2.98-2.21l2.3 2.01-.02.02z"/><path id="O" d="M300.198 105.37c.92-.53 1.861-.99 2.801-1.39 3.13-1.3 6.259-1.96 9.389-1.96 2.65 0 5.26.42 7.82 1.27a29.77 29.77 0 0 1 7.33 3.62c2.32 1.56 4.521 3.439 6.581 5.639 2.06 2.19 3.919 4.621 5.569 7.271l19.82 31.62 1.111 1.82 5.049 7.07c1.76 2.28 3.6 4.3 5.51 6.06s3.891 3.17 5.931 4.24c2.04 1.06 4.149 1.6 6.319 1.6 2.35 0 4.76-.74 7.24-2.22s5.041-3.93 7.691-7.37l4.039 2.22c-2.96 2.87-6 4.95-9.13 6.26-3.13 1.3-6.28 1.96-9.45 1.96-2.65 0-5.259-.42-7.819-1.27s-5.021-2.05-7.371-3.62c-2.35-1.56-4.54-3.43-6.58-5.61-2.04-2.17-3.89-4.58-5.54-7.24l-21.769-35a23.42 23.42 0 0 0-.851-1.08c-.3-.37-.59-.771-.85-1.211l-.91-1.299a75.09 75.09 0 0 0-4.43-5.38c-1.52-1.67-3.09-3.13-4.69-4.37-1.61-1.24-3.26-2.23-4.95-2.97s-3.429-1.11-5.209-1.11c-2.35 0-4.781.73-7.301 2.18-1.01.58-2.02 1.32-3.04 2.22l-2.3-1.98-.01.03z"/><path id="P" d="M1726.48 156.289a26.01 26.01 0 0 0-2.8-1.39c-3.13-1.3-6.26-1.96-9.39-1.96-2.65 0-5.26.42-7.82 1.27a29.77 29.77 0 0 0-7.33 3.62c-2.32 1.56-4.52 3.44-6.58 5.64-2.06 2.19-3.92 4.62-5.57 7.27l-19.82 31.62-1.11 1.82-5.05 7.07c-1.76 2.28-3.6 4.3-5.51 6.06s-3.89 3.17-5.93 4.24c-2.04 1.06-4.15 1.6-6.32 1.6-2.35 0-4.76-.74-7.24-2.22s-5.04-3.93-7.69-7.37l-4.04 2.22c2.96 2.87 6 4.95 9.13 6.26 3.13 1.3 6.28 1.96 9.45 1.96 2.65 0 5.26-.42 7.82-1.27s5.02-2.05 7.37-3.62c2.35-1.56 4.54-3.43 6.58-5.61 2.04-2.17 3.89-4.58 5.54-7.24l21.77-35a23.38 23.38 0 0 1 .85-1.08 10 10 0 0 0 .85-1.21l.91-1.3a75.09 75.09 0 0 1 4.43-5.38c1.52-1.67 3.09-3.13 4.69-4.37 1.61-1.24 3.26-2.23 4.95-2.97s3.43-1.11 5.21-1.11c2.35 0 4.78.73 7.3 2.18 1.01.58 2.02 1.32 3.04 2.22l2.3-1.98.01.03z"/><path id="Q" d="M1653.44 156.289a26.01 26.01 0 0 1 2.8-1.39c3.13-1.3 6.26-1.96 9.39-1.96 2.65 0 5.26.42 7.82 1.27a29.77 29.77 0 0 1 7.33 3.62c2.32 1.56 4.52 3.44 6.58 5.64 2.06 2.19 3.92 4.62 5.57 7.27l19.82 31.62 1.11 1.82 5.05 7.07c1.76 2.28 3.6 4.3 5.51 6.06s3.89 3.17 5.93 4.24c2.04 1.06 4.15 1.6 6.32 1.6 2.35 0 4.76-.74 7.24-2.22s5.04-3.93 7.69-7.37l4.04 2.22c-2.96 2.87-6 4.95-9.13 6.26-3.13 1.3-6.28 1.96-9.45 1.96-2.65 0-5.26-.42-7.82-1.27s-5.02-2.05-7.37-3.62c-2.35-1.56-4.54-3.43-6.58-5.61-2.04-2.17-3.89-4.58-5.54-7.24l-21.77-35a23.38 23.38 0 0 0-.85-1.08 10 10 0 0 1-.85-1.21l-.91-1.3a75.09 75.09 0 0 0-4.43-5.38c-1.52-1.67-3.09-3.13-4.69-4.37-1.61-1.24-3.26-2.23-4.95-2.97s-3.43-1.11-5.21-1.11c-2.35 0-4.78.73-7.3 2.18-1.01.58-2.02 1.32-3.04 2.22l-2.3-1.98-.01.03z"/><path id="R" d="M1005.06 156.289a26.01 26.01 0 0 0-2.8-1.39c-3.128-1.3-6.258-1.96-9.388-1.96-2.65 0-5.26.42-7.82 1.27a29.77 29.77 0 0 0-7.33 3.62c-2.32 1.56-4.52 3.44-6.58 5.64-2.06 2.19-3.919 4.62-5.569 7.27l-19.82 31.62-1.111 1.82-5.05 7.07c-1.76 2.28-3.6 4.3-5.51 6.06s-3.89 3.17-5.93 4.24c-2.04 1.06-4.15 1.6-6.32 1.6-2.35 0-4.76-.74-7.24-2.22s-5.04-3.93-7.69-7.37l-4.04 2.22c2.96 2.87 6 4.95 9.13 6.26 3.13 1.3 6.281 1.96 9.451 1.96 2.65 0 5.259-.42 7.819-1.27s5.021-2.05 7.371-3.62c2.35-1.56 4.539-3.43 6.579-5.61 2.04-2.17 3.891-4.58 5.541-7.24l21.769-35a23.38 23.38 0 0 1 .85-1.08 10 10 0 0 0 .85-1.21l.911-1.3c1.43-1.91 2.91-3.7 4.429-5.38 1.52-1.67 3.091-3.13 4.691-4.37 1.61-1.24 3.259-2.23 4.949-2.97s3.43-1.11 5.21-1.11c2.35 0 4.78.73 7.3 2.18 1.008.58 2.018 1.32 3.038 2.22l2.3-1.98.01.03z"/><path id="S" d="M932.019 156.289a26.01 26.01 0 0 1 2.8-1.39c3.13-1.3 6.26-1.96 9.39-1.96 2.65 0 5.26.42 7.82 1.27a29.77 29.77 0 0 1 7.33 3.62c2.32 1.56 4.52 3.44 6.58 5.64 2.06 2.19 3.92 4.62 5.57 7.27l19.82 31.62 1.11 1.82 5.05 7.07c1.76 2.28 3.601 4.3 5.511 6.06s3.89 3.17 5.93 4.24c2.04 1.06 4.15 1.6 6.32 1.6 2.35 0 4.76-.74 7.24-2.22s5.04-3.93 7.69-7.37l4.04 2.22c-2.96 2.87-6 4.95-9.13 6.26-3.13 1.3-6.28 1.96-9.45 1.96-2.65 0-5.26-.42-7.82-1.27s-5.02-2.05-7.37-3.62c-2.351-1.56-4.541-3.43-6.581-5.61-2.04-2.17-3.89-4.58-5.54-7.24l-21.77-35a23.38 23.38 0 0 0-.85-1.08 10 10 0 0 1-.85-1.21l-.91-1.3a75.09 75.09 0 0 0-4.43-5.38c-1.52-1.67-3.09-3.13-4.69-4.37-1.61-1.24-3.26-2.23-4.95-2.97s-3.43-1.11-5.21-1.11c-2.35 0-4.78.73-7.3 2.18-1.01.58-2.02 1.32-3.04 2.22l-2.3-1.98-.01.03z"/><path id="T" d="M1726.48 976.289a26.01 26.01 0 0 0-2.8-1.39c-3.13-1.3-6.26-1.96-9.39-1.96-2.65 0-5.26.42-7.82 1.27a29.77 29.77 0 0 0-7.33 3.62c-2.32 1.56-4.52 3.44-6.58 5.64-2.06 2.19-3.92 4.62-5.57 7.27l-19.82 31.621-1.11 1.82-5.05 7.07c-1.76 2.28-3.6 4.3-5.51 6.06s-3.89 3.17-5.93 4.24c-2.04 1.06-4.15 1.6-6.32 1.6-2.35 0-4.76-.74-7.24-2.22s-5.04-3.93-7.69-7.37l-4.04 2.22c2.96 2.87 6 4.95 9.13 6.26 3.13 1.3 6.28 1.96 9.45 1.96 2.65 0 5.26-.42 7.82-1.27s5.02-2.05 7.37-3.62c2.35-1.56 4.54-3.43 6.58-5.61 2.04-2.17 3.89-4.58 5.54-7.24l21.77-35.001a23.38 23.38 0 0 1 .85-1.08 10 10 0 0 0 .85-1.21l.91-1.3a75.09 75.09 0 0 1 4.43-5.38c1.52-1.67 3.09-3.13 4.69-4.37 1.61-1.24 3.26-2.23 4.95-2.97s3.43-1.11 5.21-1.11c2.35 0 4.78.73 7.3 2.18 1.01.58 2.02 1.32 3.04 2.22l2.3-1.98.01.03z"/><path id="U" d="M1653.44 976.289a26.01 26.01 0 0 1 2.8-1.39c3.13-1.3 6.26-1.96 9.39-1.96 2.65 0 5.26.42 7.82 1.27a29.77 29.77 0 0 1 7.33 3.62c2.32 1.56 4.52 3.44 6.58 5.64 2.06 2.19 3.92 4.62 5.57 7.27l19.82 31.621 1.11 1.82 5.05 7.07c1.76 2.28 3.6 4.3 5.51 6.06s3.89 3.17 5.93 4.24c2.04 1.06 4.15 1.6 6.32 1.6 2.35 0 4.76-.74 7.24-2.22s5.04-3.93 7.69-7.37l4.04 2.22c-2.96 2.87-6 4.95-9.13 6.26-3.13 1.3-6.28 1.96-9.45 1.96-2.65 0-5.26-.42-7.82-1.27s-5.02-2.05-7.37-3.62c-2.35-1.56-4.54-3.43-6.58-5.61-2.04-2.17-3.89-4.58-5.54-7.24l-21.77-35.001a23.38 23.38 0 0 0-.85-1.08 10 10 0 0 1-.85-1.21l-.91-1.3a75.09 75.09 0 0 0-4.43-5.38c-1.52-1.67-3.09-3.13-4.69-4.37-1.61-1.24-3.26-2.23-4.95-2.97s-3.43-1.11-5.21-1.11c-2.35 0-4.78.73-7.3 2.18-1.01.58-2.02 1.32-3.04 2.22l-2.3-1.98-.01.03z"/><path id="V" d="M1094.7 1028.37a26.01 26.01 0 0 0-2.8-1.39c-3.13-1.3-6.26-1.96-9.39-1.96-2.65 0-5.26.42-7.82 1.27a29.77 29.77 0 0 0-7.33 3.62c-2.32 1.56-4.52 3.44-6.58 5.64-2.06 2.19-3.92 4.62-5.57 7.27l-19.82 31.62-1.11 1.82-5.05 7.07c-1.76 2.28-3.6 4.3-5.51 6.06s-3.89 3.17-5.93 4.24c-2.04 1.06-4.15 1.6-6.32 1.6-2.35 0-4.76-.74-7.24-2.22s-5.045-3.93-7.695-7.37l-4.04 2.22c2.96 2.87 6 4.95 9.135 6.26 3.13 1.3 6.28 1.96 9.45 1.96 2.65 0 5.26-.42 7.82-1.27s5.02-2.05 7.37-3.62c2.35-1.56 4.54-3.43 6.58-5.61 2.04-2.17 3.89-4.58 5.54-7.24l21.77-35a23.38 23.38 0 0 1 .85-1.08 10 10 0 0 0 .85-1.21l.91-1.3a75.09 75.09 0 0 1 4.43-5.38c1.52-1.67 3.09-3.13 4.69-4.37 1.61-1.24 3.26-2.23 4.95-2.97s3.43-1.11 5.21-1.11c2.35 0 4.78.73 7.3 2.18 1.01.58 2.02 1.32 3.04 2.22l2.3-1.98.01.03z"/><path id="W" d="M300.198 1028.37c.92-.53 1.861-.99 2.801-1.39 3.13-1.3 6.259-1.96 9.389-1.96 2.65 0 5.26.42 7.82 1.27a29.77 29.77 0 0 1 7.33 3.62c2.32 1.56 4.521 3.44 6.581 5.64 2.06 2.19 3.919 4.62 5.569 7.27l19.82 31.62 1.111 1.82 5.049 7.07c1.76 2.28 3.6 4.3 5.51 6.06s3.891 3.17 5.931 4.24c2.04 1.06 4.149 1.6 6.319 1.6 2.35 0 4.76-.74 7.24-2.22s5.041-3.93 7.691-7.37l4.039 2.22c-2.96 2.87-6 4.95-9.13 6.26-3.13 1.3-6.28 1.96-9.45 1.96-2.65 0-5.259-.42-7.819-1.27s-5.021-2.05-7.371-3.62c-2.35-1.56-4.54-3.43-6.58-5.61-2.04-2.17-3.89-4.58-5.54-7.24l-21.769-35a23.42 23.42 0 0 0-.851-1.08 10 10 0 0 1-.85-1.21l-.91-1.3a75.09 75.09 0 0 0-4.43-5.38c-1.52-1.67-3.09-3.13-4.69-4.37-1.61-1.24-3.26-2.23-4.95-2.97s-3.429-1.11-5.209-1.11c-2.35 0-4.781.73-7.301 2.18-1.01.58-2.02 1.32-3.04 2.22l-2.3-1.98-.01.03z"/></defs></svg>