<svg width="642" height="528" viewBox="0 0 642 528" fill="none" xmlns="http://www.w3.org/2000/svg">
<path d="M11.6246 125.611L0.719745 86.0281C-1.57218 77.7088 2.9311 69.0282 11.0522 66.111L124.572 25.3331L203.741 0.860122C206.481 0.0129389 209.395 -0.105352 212.195 0.51691L322.102 24.9401C323.278 25.2013 324.478 25.3331 325.683 25.3331H446.834H538.989C541.344 25.3331 543.673 25.8375 545.818 26.8123L632.185 66.0675C638.959 69.1464 642.835 76.377 641.65 83.7227L617.032 236.278C616.632 238.758 616.803 241.297 617.532 243.7L640.725 320.134C642.525 326.065 640.849 332.505 636.387 336.808L547.612 422.41C544.386 425.521 542.563 429.81 542.563 434.291V462.957C542.563 470.512 537.434 477.102 530.111 478.957L342.783 526.4C341.459 526.736 340.097 526.905 338.731 526.905H261.207C258.726 526.905 256.277 526.346 254.042 525.269L160.733 480.304C155.022 477.553 151.393 471.774 151.393 465.435V381.159C151.393 374.941 147.898 369.251 142.353 366.438L74.9491 332.255C71.8027 330.659 69.2503 328.097 67.6664 324.944L18.9406 227.967C15.7391 221.595 16.9918 213.887 22.0464 208.857L53.85 177.208C61.8421 169.255 59.6843 155.808 49.6051 150.754L20.1394 135.981C15.9606 133.886 12.8662 130.117 11.6246 125.611Z" fill="#CBD333" fill-opacity="0.13" stroke="#FAFBF5" stroke-width="0.247577"/>
</svg>
